<svg width="20" height="20" viewBox="0 0 20 20" fill="none" xmlns="http://www.w3.org/2000/svg">
<path d="M6.25097 4.37645C7.56325 3.06417 8.21939 2.40802 8.97601 2.16218C9.64154 1.94594 10.3585 1.94594 11.024 2.16218C11.7806 2.40802 12.4367 3.06417 13.749 4.37645L15.6236 6.25097C16.9358 7.56325 17.592 8.21939 17.8378 8.97601C18.0541 9.64154 18.0541 10.3585 17.8378 11.024C17.592 11.7806 16.9358 12.4367 15.6236 13.749L13.749 15.6236C12.4367 16.9358 11.7806 17.592 11.024 17.8378C10.3585 18.0541 9.64154 18.0541 8.97601 17.8378C8.21939 17.592 7.56325 16.9358 6.25097 15.6236L4.37645 13.749C3.06417 12.4367 2.40802 11.7806 2.16218 11.024C1.94594 10.3585 1.94594 9.64154 2.16218 8.97601C2.40802 8.21939 3.06417 7.56325 4.37645 6.25097L6.25097 4.37645Z" fill="white"/>
</svg>
