<svg width="18" height="22" viewBox="0 0 18 22" fill="none" xmlns="http://www.w3.org/2000/svg">
<path d="M17.107 8.96593V8.60717C17.107 5.12095 14.3432 2.35717 10.857 2.35717C7.37075 2.35717 4.60697 5.12095 4.60697 8.60717V8.96593C3.01651 9.64203 1.9284 11.2058 1.9284 13.0715V19.3215C1.9284 21.8255 3.8886 23.7857 6.39268 23.7857H15.3213C17.8253 23.7857 19.7855 21.8255 19.7855 19.3215V13.0715C19.7855 11.2058 18.6974 9.64203 17.107 8.96593ZM11.7498 8.60717H9.96411C9.96411 8.07553 10.3253 7.71431 10.857 7.71431C11.3886 7.71431 11.7498 8.07553 11.7498 8.60717Z" fill="white" stroke="#2E1065" stroke-width="3.57143"/>
</svg>
