<svg width="25" height="30" viewBox="0 0 25 30" fill="none" xmlns="http://www.w3.org/2000/svg">
<path d="M23.75 11.7523V11.25C23.75 6.36929 19.8807 2.5 15 2.5C10.1193 2.5 6.25 6.36929 6.25 11.25V11.7523C4.02336 12.6988 2.5 14.8881 2.5 17.5V26.25C2.5 29.7557 5.24429 32.5 8.75 32.5H21.25C24.7557 32.5 27.5 29.7557 27.5 26.25V17.5C27.5 14.8881 25.9766 12.6988 23.75 11.7523ZM13.75 11.25C13.75 10.5057 14.2557 10 15 10C15.7443 10 16.25 10.5057 16.25 11.25H13.75Z" fill="white" stroke="#3B0764" stroke-width="5"/>
</svg>
