<svg width="42" height="42" viewBox="0 0 42 42" xmlns="http://www.w3.org/2000/svg">
<g id="Frame 13">
<path id="Vector" d="M36.8577 10.3251L36.2548 10.3233C35.767 10.3218 35.3306 10.0506 35.1141 9.61438C34.3626 8.10018 32.8453 7.15655 31.1564 7.15143L28.9749 7.14482L28.9856 3.62546C28.9881 2.79692 28.1659 2.19629 27.3869 2.47484C25.5586 3.12583 24.2463 4.86893 24.2401 6.92215L24.2323 9.49775L22.697 13.9736C22.4694 14.5963 21.8715 15.0127 21.2101 15.0123L13.163 14.9926C11.4408 14.9874 9.84647 15.5397 8.54453 16.4748C7.59876 16.0347 5.27463 14.6641 5.28329 11.8076C5.28593 10.9365 4.58092 10.2273 3.70959 10.2246C2.83827 10.222 2.12897 10.9269 2.12633 11.798C2.1145 15.6993 4.62725 17.8565 6.34788 18.8749C5.65453 20.0438 5.25578 21.4062 5.25137 22.8612L5.21385 36.2806C5.20727 38.4537 6.97296 40.2282 9.14653 40.2348C11.3201 40.2414 13.0965 38.4776 13.1031 36.3029L13.1199 30.7698L22.5908 30.7938L22.574 36.3237C22.5674 38.4985 24.3331 40.2746 26.5083 40.2811C28.6834 40.2877 30.4599 38.5224 30.4665 36.3476L30.4821 31.1949C30.484 30.5636 30.5506 29.9309 30.6772 29.3127L33.9583 19.6198C37.3098 19.4816 39.9969 16.7169 40.0072 13.3317C40.0116 11.8797 39.205 9.62678 36.8593 10.3267L36.8577 10.3251Z" />
</g>
</svg>
