<svg width="42" height="42" viewBox="0 0 42 42" xmlns="http://www.w3.org/2000/svg">
<g id="Frame 13">
<path id="Vector" d="M32.0833 38.8333C33.6491 38.8333 35.1797 38.369 36.4816 37.4991C37.7835 36.6292 38.7982 35.3928 39.3974 33.9462C39.9966 32.4997 40.1533 30.9079 39.8479 29.3722C39.5424 27.8365 38.7884 26.4259 37.6813 25.3187C36.5741 24.2116 35.1635 23.4576 33.6278 23.1521C32.0921 22.8466 30.5003 23.0034 29.0538 23.6026C27.6072 24.2018 26.3708 25.2165 25.5009 26.5184C24.631 27.8203 24.1667 29.3509 24.1667 30.9167C24.1692 33.0155 25.0041 35.0277 26.4882 36.5118C27.9723 37.9959 29.9845 38.8308 32.0833 38.8333ZM9.91667 38.8333C11.4824 38.8333 13.013 38.369 14.3149 37.4991C15.6168 36.6292 16.6315 35.3928 17.2307 33.9462C17.8299 32.4997 17.9867 30.9079 17.6812 29.3722C17.3758 27.8365 16.6218 26.4259 15.5146 25.3187C14.4074 24.2116 12.9968 23.4576 11.4611 23.1521C9.92545 22.8466 8.33367 23.0034 6.88709 23.6026C5.44051 24.2018 4.2041 25.2165 3.3342 26.5184C2.46431 27.8203 2 29.3509 2 30.9167C2.00252 33.0155 2.8374 35.0277 4.32152 36.5118C5.80563 37.9959 7.81781 38.8308 9.91667 38.8333ZM19.4167 30.9167L19.4167 24.5833C19.4167 24.3554 19.466 24.1302 19.5611 23.9231C19.6562 23.7159 19.7949 23.5318 19.9677 23.3832L23.5887 20.2719C23.7599 20.1267 23.8977 19.9463 23.9928 19.743C24.0878 19.5397 24.138 19.3183 24.1397 19.0939C24.147 18.8876 24.1125 18.6819 24.0382 18.4892C23.9639 18.2966 23.8514 18.121 23.7075 17.9729L20.5978 15.4982C20.2853 15.2162 19.8739 15.0691 19.4534 15.0889C19.0329 15.1088 18.6373 15.294 18.3527 15.6042L14.236 19.4042C13.9434 19.675 13.5595 19.8254 13.1609 19.8254L8.33333 19.8254C7.91341 19.8254 7.51068 19.6586 7.21375 19.3617C6.91682 19.0647 6.75 18.662 6.75 18.2421C6.75 17.8222 6.91682 17.4194 7.21375 17.1225C7.51068 16.8256 7.91341 16.6587 8.33333 16.6587L12.545 16.6587L16.1503 13.3306C16.9943 12.4616 18.1409 11.9515 19.3515 11.9064C20.5621 11.8613 21.7434 12.2846 22.6498 13.0883L25.7595 15.5583C26.2559 16.0116 26.6504 16.565 26.917 17.1821C27.1836 17.7992 27.3162 18.4658 27.3061 19.1379C27.2959 19.8101 27.1432 20.4724 26.858 21.0811C26.5728 21.6898 26.1617 22.2311 25.6518 22.6691L22.5833 25.3101L22.5833 30.9167C22.5833 31.3366 22.4165 31.7393 22.1196 32.0362C21.8227 32.3332 21.4199 32.5 21 32.5C20.5801 32.5 20.1773 32.3332 19.8804 32.0362C19.5835 31.7393 19.4167 31.3366 19.4167 30.9167ZM13.875 4C14.6579 4 15.4232 4.23215 16.0741 4.6671C16.7251 5.10204 17.2324 5.72025 17.532 6.44354C17.8316 7.16683 17.91 7.96272 17.7573 8.73056C17.6045 9.4984 17.2275 10.2037 16.674 10.7573C16.1204 11.3109 15.4151 11.6879 14.6472 11.8406C13.8794 11.9933 13.0835 11.9149 12.3602 11.6154C11.6369 11.3158 11.0187 10.8084 10.5838 10.1575C10.1488 9.50652 9.91667 8.74121 9.91667 7.95833C9.91667 6.90851 10.3337 5.9017 11.076 5.15937C11.8184 4.41703 12.8252 4 13.875 4Z" />
</g>
</svg>
