<svg width="852" height="393" viewBox="0 0 852 393" fill="none" xmlns="http://www.w3.org/2000/svg">
<g opacity="0.2" clip-path="url(#clip0_92_813)">
<path d="M794.141 -80.6438C798.46 -84.533 805.233 -80.6228 804.025 -74.9374L798.196 -47.5174C797.656 -44.9748 798.814 -42.3734 801.065 -41.0738L825.342 -27.0574C830.376 -24.1513 828.75 -16.5017 822.969 -15.8942L795.09 -12.964C792.505 -12.6923 790.389 -10.7869 789.849 -8.2443L784.02 19.1758C782.812 24.8611 775.034 25.6785 772.67 20.3687L761.268 -5.24039C760.211 -7.61502 757.745 -9.03881 755.16 -8.76709L727.281 -5.83688C721.5 -5.22933 718.319 -12.3737 722.639 -16.2629L743.471 -35.0204C745.403 -36.7597 745.995 -39.545 744.938 -41.9197L733.536 -67.5288C731.172 -72.8386 736.983 -78.0715 742.017 -75.1653L766.294 -61.149C768.545 -59.8493 771.377 -60.147 773.309 -61.8863L794.141 -80.6438Z" fill="#D8B4FE"/>
</g>
<g opacity="0.2" clip-path="url(#clip1_92_813)">
<path d="M378.979 -105.563C383.299 -109.452 390.071 -105.542 388.863 -99.8567L383.035 -72.4367C382.494 -69.8941 383.652 -67.2927 385.904 -65.993L410.181 -51.9767C415.214 -49.0706 413.588 -41.421 407.808 -40.8134L379.929 -37.8832C377.344 -37.6115 375.227 -35.7061 374.687 -33.1636L368.859 -5.74352C367.65 -0.0581971 359.873 0.759243 357.508 -4.55059L346.107 -30.1597C345.049 -32.5343 342.583 -33.9581 339.998 -33.6864L312.119 -30.7562C306.339 -30.1486 303.158 -37.293 307.477 -41.1822L328.309 -59.9397C330.241 -61.679 330.833 -64.4643 329.776 -66.8389L318.374 -92.448C316.01 -97.7579 321.822 -102.991 326.855 -100.085L351.132 -86.0683C353.383 -84.7686 356.215 -85.0663 358.147 -86.8056L378.979 -105.563Z" fill="#D8B4FE"/>
</g>
<g opacity="0.2" clip-path="url(#clip2_92_813)">
<path d="M540.06 -12.5631C544.38 -16.4523 551.153 -12.542 549.944 -6.85671L544.116 20.5633C543.575 23.1059 544.734 25.7073 546.985 27.007L571.262 41.0233C576.295 43.9295 574.669 51.579 568.889 52.1866L541.01 55.1168C538.425 55.3885 536.308 57.2939 535.768 59.8364L529.94 87.2565C528.731 92.9418 520.954 93.7592 518.59 88.4494L507.188 62.8403C506.13 60.4657 503.664 59.0419 501.079 59.3136L473.2 62.2438C467.42 62.8514 464.239 55.7071 468.558 51.8178L489.391 33.0603C491.322 31.321 491.914 28.5357 490.857 26.1611L479.455 0.551965C477.091 -4.75787 482.903 -9.99076 487.936 -7.08459L512.213 6.93172C514.464 8.2314 517.296 7.93375 519.228 6.19444L540.06 -12.5631Z" fill="#D8B4FE"/>
</g>
<g opacity="0.2" clip-path="url(#clip3_92_813)">
<path d="M701.141 80.4369C705.46 76.5477 712.233 80.458 711.025 86.1433L705.196 113.563C704.656 116.106 705.814 118.707 708.065 120.007L732.342 134.023C737.376 136.929 735.75 144.579 729.969 145.187L702.09 148.117C699.505 148.388 697.389 150.294 696.849 152.836L691.02 180.256C689.812 185.942 682.034 186.759 679.67 181.449L668.268 155.84C667.211 153.466 664.745 152.042 662.16 152.314L634.281 155.244C628.5 155.851 625.319 148.707 629.639 144.818L650.471 126.06C652.403 124.321 652.995 121.536 651.938 119.161L640.536 93.552C638.172 88.2421 643.983 83.0092 649.017 85.9154L673.294 99.9317C675.545 101.231 678.377 100.934 680.309 99.1944L701.141 80.4369Z" fill="#D8B4FE"/>
</g>
<g opacity="0.2" clip-path="url(#clip4_92_813)">
<path d="M862.222 173.437C866.541 169.548 873.314 173.458 872.105 179.143L866.277 206.563C865.736 209.106 866.895 211.707 869.146 213.007L893.423 227.023C898.456 229.929 896.83 237.579 891.05 238.187L863.171 241.117C860.586 241.388 858.47 243.294 857.929 245.836L852.101 273.256C850.892 278.942 843.115 279.759 840.751 274.449L829.349 248.84C828.292 246.466 825.825 245.042 823.24 245.314L795.361 248.244C789.581 248.851 786.4 241.707 790.719 237.818L811.552 219.06C813.483 217.321 814.075 214.536 813.018 212.161L801.616 186.552C799.252 181.242 805.064 176.009 810.097 178.915L834.374 192.932C836.626 194.231 839.458 193.934 841.389 192.194L862.222 173.437Z" fill="#D8B4FE"/>
</g>
<g opacity="0.2" clip-path="url(#clip5_92_813)">
<path d="M124.899 -37.4823C129.218 -41.3715 135.991 -37.4613 134.782 -31.776L128.954 -4.35594C128.414 -1.81338 129.572 0.788 131.823 2.08768L156.1 16.104C161.134 19.0102 159.508 26.6597 153.727 27.2673L125.848 30.1975C123.263 30.4692 121.147 32.3746 120.606 34.9171L114.778 62.3372C113.57 68.0225 105.792 68.84 103.428 63.5301L92.026 37.9211C90.9688 35.5464 88.5027 34.1226 85.9176 34.3944L58.0385 37.3246C52.258 37.9321 49.0772 30.7878 53.3966 26.8986L74.2289 8.14107C76.1606 6.40176 76.7526 3.61642 75.6954 1.24178L64.2935 -24.3673C61.9294 -29.6771 67.7411 -34.91 72.7747 -32.0039L97.0517 -17.9876C99.3028 -16.6879 102.135 -16.9855 104.066 -18.7248L124.899 -37.4823Z" fill="#D8B4FE"/>
</g>
<g opacity="0.2" clip-path="url(#clip6_92_813)">
<path d="M285.979 55.5177C290.299 51.6285 297.071 55.5387 295.863 61.224L290.035 88.6441C289.494 91.1866 290.652 93.788 292.904 95.0877L317.181 109.104C322.214 112.01 320.588 119.66 314.808 120.267L286.929 123.197C284.344 123.469 282.227 125.375 281.687 127.917L275.859 155.337C274.65 161.023 266.873 161.84 264.508 156.53L253.107 130.921C252.049 128.546 249.583 127.123 246.998 127.394L219.119 130.325C213.339 130.932 210.158 123.788 214.477 119.899L235.309 101.141C237.241 99.4018 237.833 96.6164 236.776 94.2418L225.374 68.6327C223.01 63.3229 228.822 58.09 233.855 60.9961L258.132 75.0124C260.383 76.3121 263.215 76.0145 265.147 74.2752L285.979 55.5177Z" fill="#D8B4FE"/>
</g>
<g opacity="0.2" clip-path="url(#clip7_92_813)">
<path d="M447.06 148.518C451.38 144.628 458.153 148.539 456.944 154.224L451.116 181.644C450.575 184.187 451.734 186.788 453.985 188.088L478.262 202.104C483.295 205.01 481.669 212.66 475.889 213.267L448.01 216.197C445.425 216.469 443.308 218.375 442.768 220.917L436.94 248.337C435.731 254.023 427.954 254.84 425.59 249.53L414.188 223.921C413.13 221.546 410.664 220.123 408.079 220.394L380.2 223.325C374.42 223.932 371.239 216.788 375.558 212.899L396.391 194.141C398.322 192.402 398.914 189.616 397.857 187.242L386.455 161.633C384.091 156.323 389.903 151.09 394.936 153.996L419.213 168.012C421.464 169.312 424.296 169.014 426.228 167.275L447.06 148.518Z" fill="#D8B4FE"/>
</g>
<g opacity="0.2" clip-path="url(#clip8_92_813)">
<path d="M608.141 241.518C612.46 237.628 619.233 241.539 618.025 247.224L612.196 274.644C611.656 277.187 612.814 279.788 615.065 281.088L639.342 295.104C644.376 298.01 642.75 305.66 636.969 306.267L609.09 309.197C606.505 309.469 604.389 311.375 603.849 313.917L598.02 341.337C596.812 347.023 589.034 347.84 586.67 342.53L575.268 316.921C574.211 314.546 571.745 313.123 569.16 313.394L541.281 316.325C535.5 316.932 532.319 309.788 536.639 305.899L557.471 287.141C559.403 285.402 559.995 282.616 558.938 280.242L547.536 254.633C545.172 249.323 550.983 244.09 556.017 246.996L580.294 261.012C582.545 262.312 585.377 262.014 587.309 260.275L608.141 241.518Z" fill="#D8B4FE"/>
</g>
<g opacity="0.2" clip-path="url(#clip9_92_813)">
<path d="M769.222 334.518C773.541 330.628 780.314 334.539 779.105 340.224L773.277 367.644C772.736 370.187 773.895 372.788 776.146 374.088L800.423 388.104C805.456 391.01 803.83 398.66 798.05 399.267L770.171 402.197C767.586 402.469 765.47 404.375 764.929 406.917L759.101 434.337C757.892 440.023 750.115 440.84 747.751 435.53L736.349 409.921C735.292 407.546 732.825 406.123 730.24 406.394L702.361 409.325C696.581 409.932 693.4 402.788 697.719 398.899L718.552 380.141C720.483 378.402 721.075 375.616 720.018 373.242L708.616 347.633C706.252 342.323 712.064 337.09 717.097 339.996L741.374 354.012C743.626 355.312 746.458 355.014 748.389 353.275L769.222 334.518Z" fill="#D8B4FE"/>
</g>
<g opacity="0.2" clip-path="url(#clip10_92_813)">
<path d="M31.8988 123.598C36.2182 119.709 42.9909 123.619 41.7825 129.305L35.9541 156.725C35.4137 159.267 36.5719 161.869 38.823 163.168L63.1 177.185C68.1336 180.091 66.5077 187.74 60.7272 188.348L32.8481 191.278C30.263 191.55 28.1468 193.455 27.6064 195.998L21.7781 223.418C20.5696 229.103 12.792 229.921 10.4279 224.611L-0.973965 199.002C-2.03122 196.627 -4.49729 195.203 -7.08241 195.475L-34.9615 198.405C-40.742 199.013 -43.9228 191.868 -39.6034 187.979L-18.7711 169.222C-16.8394 167.482 -16.2474 164.697 -17.3046 162.322L-28.7065 136.713C-31.0706 131.404 -25.2589 126.171 -20.2253 129.077L4.05171 143.093C6.30282 144.393 9.13479 144.095 11.0665 142.356L31.8988 123.598Z" fill="#D8B4FE"/>
</g>
<g opacity="0.2" clip-path="url(#clip11_92_813)">
<path d="M192.979 216.598C197.299 212.709 204.071 216.619 202.863 222.305L197.035 249.725C196.494 252.267 197.652 254.869 199.904 256.168L224.181 270.185C229.214 273.091 227.588 280.74 221.808 281.348L193.929 284.278C191.344 284.55 189.227 286.455 188.687 288.998L182.859 316.418C181.65 322.103 173.873 322.921 171.508 317.611L160.107 292.002C159.049 289.627 156.583 288.203 153.998 288.475L126.119 291.405C120.339 292.013 117.158 284.869 121.477 280.979L142.309 262.222C144.241 260.482 144.833 257.697 143.776 255.323L132.374 229.713C130.01 224.404 135.822 219.171 140.855 222.077L165.132 236.093C167.383 237.393 170.215 237.095 172.147 235.356L192.979 216.598Z" fill="#D8B4FE"/>
</g>
<g opacity="0.2" clip-path="url(#clip12_92_813)">
<path d="M354.06 309.598C358.38 305.709 365.153 309.619 363.944 315.305L358.116 342.725C357.575 345.267 358.734 347.869 360.985 349.168L385.262 363.185C390.295 366.091 388.669 373.74 382.889 374.348L355.01 377.278C352.425 377.55 350.308 379.455 349.768 381.998L343.94 409.418C342.731 415.103 334.954 415.921 332.59 410.611L321.188 385.002C320.13 382.627 317.664 381.203 315.079 381.475L287.2 384.405C281.42 385.013 278.239 377.868 282.558 373.979L303.391 355.222C305.322 353.482 305.914 350.697 304.857 348.322L293.455 322.713C291.091 317.404 296.903 312.171 301.936 315.077L326.213 329.093C328.464 330.393 331.296 330.095 333.228 328.356L354.06 309.598Z" fill="#D8B4FE"/>
</g>
<g opacity="0.2" clip-path="url(#clip13_92_813)">
<path d="M515.141 402.598C519.46 398.709 526.233 402.619 525.025 408.305L519.196 435.725C518.656 438.267 519.814 440.869 522.065 442.168L546.342 456.185C551.376 459.091 549.75 466.74 543.969 467.348L516.09 470.278C513.505 470.55 511.389 472.455 510.849 474.998L505.02 502.418C503.812 508.103 496.034 508.921 493.67 503.611L482.268 478.002C481.211 475.627 478.745 474.203 476.16 474.475L448.281 477.405C442.5 478.013 439.319 470.868 443.639 466.979L464.471 448.222C466.403 446.482 466.995 443.697 465.938 441.322L454.536 415.713C452.172 410.404 457.983 405.171 463.017 408.077L487.294 422.093C489.545 423.393 492.377 423.095 494.309 421.356L515.141 402.598Z" fill="#D8B4FE"/>
</g>
<g opacity="0.2" clip-path="url(#clip14_92_813)">
<path d="M99.9794 377.679C104.299 373.79 111.071 377.7 109.863 383.385L104.035 410.805C103.494 413.348 104.652 415.949 106.904 417.249L131.181 431.265C136.214 434.172 134.588 441.821 128.808 442.429L100.929 445.359C98.3436 445.631 96.2274 447.536 95.687 450.079L89.8586 477.499C88.6502 483.184 80.8726 484.001 78.5085 478.692L67.1066 453.082C66.0493 450.708 63.5833 449.284 60.9982 449.556L33.1191 452.486C27.3386 453.094 24.1577 445.949 28.4771 442.06L49.3095 423.302C51.2411 421.563 51.8332 418.778 50.7759 416.403L39.374 390.794C37.0099 385.484 42.8217 380.251 47.8553 383.158L72.1323 397.174C74.3834 398.474 77.2154 398.176 79.1471 396.437L99.9794 377.679Z" fill="#D8B4FE"/>
</g>
<defs>
<clipPath id="clip0_92_813">
<rect width="140" height="140" fill="white" transform="translate(747.242 -128) rotate(30)"/>
</clipPath>
<clipPath id="clip1_92_813">
<rect width="140" height="140" fill="white" transform="translate(332.081 -152.919) rotate(30)"/>
</clipPath>
<clipPath id="clip2_92_813">
<rect width="140" height="140" fill="white" transform="translate(493.162 -59.9193) rotate(30)"/>
</clipPath>
<clipPath id="clip3_92_813">
<rect width="140" height="140" fill="white" transform="translate(654.242 33.0807) rotate(30)"/>
</clipPath>
<clipPath id="clip4_92_813">
<rect width="140" height="140" fill="white" transform="translate(815.323 126.081) rotate(30)"/>
</clipPath>
<clipPath id="clip5_92_813">
<rect width="140" height="140" fill="white" transform="translate(78 -84.8386) rotate(30)"/>
</clipPath>
<clipPath id="clip6_92_813">
<rect width="140" height="140" fill="white" transform="translate(239.081 8.16144) rotate(30)"/>
</clipPath>
<clipPath id="clip7_92_813">
<rect width="140" height="140" fill="white" transform="translate(400.162 101.161) rotate(30)"/>
</clipPath>
<clipPath id="clip8_92_813">
<rect width="140" height="140" fill="white" transform="translate(561.242 194.161) rotate(30)"/>
</clipPath>
<clipPath id="clip9_92_813">
<rect width="140" height="140" fill="white" transform="translate(722.323 287.161) rotate(30)"/>
</clipPath>
<clipPath id="clip10_92_813">
<rect width="140" height="140" fill="white" transform="translate(-15 76.2422) rotate(30)"/>
</clipPath>
<clipPath id="clip11_92_813">
<rect width="140" height="140" fill="white" transform="translate(146.081 169.242) rotate(30)"/>
</clipPath>
<clipPath id="clip12_92_813">
<rect width="140" height="140" fill="white" transform="translate(307.162 262.242) rotate(30)"/>
</clipPath>
<clipPath id="clip13_92_813">
<rect width="140" height="140" fill="white" transform="translate(468.242 355.242) rotate(30)"/>
</clipPath>
<clipPath id="clip14_92_813">
<rect width="140" height="140" fill="white" transform="translate(53.0806 330.323) rotate(30)"/>
</clipPath>
</defs>
</svg>
