<svg width="406" height="95" viewBox="0 0 406 95" fill="none" xmlns="http://www.w3.org/2000/svg">
<rect x="-1.33865" y="-4.70089" width="61.2301" height="62.5158" rx="19.4244" transform="matrix(0.863868 0.503719 -0.468907 0.883248 25.749 14.3028)" fill="url(#paint0_linear_3_2)"/>
<rect x="-1.33865" y="-4.70089" width="61.2301" height="62.5158" rx="19.4244" transform="matrix(0.863868 0.503719 -0.468907 0.883248 25.749 14.3028)" stroke="white" stroke-width="6.77866"/>
<rect x="-0.0768425" y="-4.89065" width="61.3654" height="62.381" rx="19.4244" transform="matrix(0.703597 0.7106 -0.680925 0.732353 68.1284 11.497)" fill="url(#paint1_linear_3_2)"/>
<rect x="-0.0768425" y="-4.89065" width="61.3654" height="62.381" rx="19.4244" transform="matrix(0.703597 0.7106 -0.680925 0.732353 68.1284 11.497)" stroke="white" stroke-width="6.77866"/>
<rect x="1.19048" y="-4.74134" width="61.5004" height="62.2411" rx="19.4244" transform="matrix(0.496291 0.868156 -0.847533 0.530743 120.597 10.7762)" fill="url(#paint2_linear_3_2)"/>
<rect x="1.19048" y="-4.74134" width="61.5004" height="62.2411" rx="19.4244" transform="matrix(0.496291 0.868156 -0.847533 0.530743 120.597 10.7762)" stroke="white" stroke-width="6.77866"/>
<path d="M162.428 74.7197C179.9 53.1196 190.218 86.9399 203.344 63.9796M208.427 71.376L207.792 59.1387C207.763 58.5801 207.241 58.1801 206.7 58.301L195.042 60.9036" stroke="white" stroke-width="6.77866" stroke-linecap="round"/>
<rect x="-4.1408" y="-2.39063" width="68.6729" height="69.206" rx="16.7115" transform="matrix(0.965279 -0.26122 0.256437 0.966561 223.734 19.0064)" fill="#22C55E" stroke="white" stroke-width="6.77866"/>
<path opacity="0.5" d="M226.681 33.0447C224.794 25.9331 229.022 18.61 236.124 16.688L253.137 12.084L269.146 72.4239L252.133 77.0279C245.031 78.9498 237.744 74.7428 235.857 67.6312L226.681 33.0447Z" fill="#4ADE80"/>
<path d="M267.804 59.4093C266.1 59.8705 264.351 58.861 263.898 57.1545L257.097 31.5189L256.69 31.629L252.785 36.376C251.506 37.9308 249.015 37.3941 248.5 35.4527C248.295 34.6787 248.477 33.8513 248.989 33.233L254.509 26.5639C255.149 25.7911 256.012 25.2355 256.978 24.9741C259.553 24.2772 262.195 25.8026 262.879 28.3811L270.07 55.4843C270.523 57.1908 269.508 58.9481 267.804 59.4093Z" fill="white"/>
<rect x="-2.4025" y="-4.16136" width="68.6729" height="69.206" rx="16.7115" transform="matrix(0.965279 0.26122 -0.256437 0.966561 289.508 14.8919)" fill="#06B6D4" stroke="white" stroke-width="6.77866"/>
<path opacity="0.5" d="M287.242 27.2802C289.129 20.1686 296.416 15.9616 303.518 17.8835L320.531 22.4875L304.522 82.8274L287.509 78.2234C280.407 76.3014 276.179 68.9783 278.066 61.8667L287.242 27.2802Z" fill="#22D3EE"/>
<path d="M299.134 67.9374C297.527 67.5025 296.57 65.8455 296.997 64.2363C297.198 63.4784 297.686 62.8301 298.358 62.4291L311.38 54.6519C317.184 51.2277 318.922 49.8563 319.615 47.2437L319.634 47.1731C320.464 44.0426 318.943 41.2092 315.447 40.2631C312.918 39.5787 310.657 40.2491 309.225 41.9484C308.187 43.1796 306.657 44.1912 305.1 43.7698C303.542 43.3483 302.577 41.7099 303.364 40.3034C305.862 35.8345 311.114 33.8687 317.043 35.4729C323.591 37.2451 327.231 42.544 325.714 48.2635L325.695 48.3341C324.671 52.1942 322.018 54.7558 314.309 59.052L305.825 63.8198L305.694 64.314L318.397 67.7517C319.786 68.1276 320.613 69.5599 320.244 70.9508C319.875 72.3418 318.45 73.1646 317.061 72.7887L299.134 67.9374Z" fill="white"/>
<rect x="-4.1408" y="-2.39063" width="68.6729" height="69.206" rx="16.7115" transform="matrix(0.965279 -0.26122 0.256437 0.966561 326.715 19.0064)" fill="#6366F1" stroke="white" stroke-width="6.77866"/>
<path opacity="0.5" d="M329.662 33.0447C327.776 25.9331 332.004 18.61 339.106 16.688L356.119 12.084L372.127 72.4239L355.114 77.0279C348.012 78.9498 340.725 74.7428 338.838 67.6312L329.662 33.0447Z" fill="#818CF8"/>
<g clip-path="url(#clip0_3_2)">
<path d="M370.104 36.1403L369.336 33.2472C368.262 29.1968 364.266 26.8671 360.256 27.9524C356.245 29.0377 353.939 33.0728 355.013 37.1232L355.781 40.0163C353.346 40.6753 351.983 43.0597 352.635 45.5189L355.322 55.6448C355.974 58.1039 358.335 59.4806 360.77 58.8217L375.093 54.9456C377.528 54.2867 378.891 51.9023 378.239 49.4431L375.552 39.3172C374.9 36.858 372.539 35.4814 370.104 36.1403ZM357.878 36.348C357.225 33.8889 358.588 31.5044 361.023 30.8455C363.458 30.1866 365.819 31.5632 366.472 34.0224L367.239 36.9155L358.645 39.2411L357.878 36.348Z" fill="white"/>
</g>
<defs>
<linearGradient id="paint0_linear_3_2" x1="27.2257" y1="0" x2="27.2257" y2="55.7371" gradientUnits="userSpaceOnUse">
<stop stop-color="#F59E0B"/>
<stop offset="1" stop-color="#FF862E"/>
</linearGradient>
<linearGradient id="paint1_linear_3_2" x1="27.2934" y1="0" x2="27.2934" y2="55.6023" gradientUnits="userSpaceOnUse">
<stop stop-color="#F59E0B"/>
<stop offset="1" stop-color="#FF862E"/>
</linearGradient>
<linearGradient id="paint2_linear_3_2" x1="27.3609" y1="0" x2="27.3609" y2="55.4625" gradientUnits="userSpaceOnUse">
<stop stop-color="#F59E0B"/>
<stop offset="1" stop-color="#FF862E"/>
</linearGradient>
<clipPath id="clip0_3_2">
<rect width="35.6118" height="35.9186" fill="white" transform="matrix(0.965279 -0.26122 0.256437 0.966561 342.301 29.7105)"/>
</clipPath>
</defs>
</svg>
