<svg width="360" height="118" viewBox="0 0 360 118" fill="none" xmlns="http://www.w3.org/2000/svg">
<rect x="-5.11875" y="-2.95526" width="84.8306" height="85.3367" rx="20.6464" transform="matrix(0.96543 -0.260664 0.256986 0.966415 5.58251 23.4957)" fill="#22C55E" stroke="white" stroke-width="8.37481"/>
<path opacity="0.5" d="M9.22973 40.8354C6.89371 32.0507 12.1142 23.0084 20.8901 20.6389L41.9064 14.9646L61.6844 89.3416L40.6681 95.016C31.8923 97.3854 22.8844 92.1848 20.5483 83.4L9.22973 40.8354Z" fill="#4ADE80"/>
<rect width="12.186" height="12.4404" rx="3.98412" transform="matrix(0.96543 -0.260662 0.256988 0.966415 24.6585 35.9012)" fill="white"/>
<rect width="12.186" height="12.4404" rx="3.98412" transform="matrix(0.96543 -0.260662 0.256988 0.966415 40.533 31.6152)" fill="white"/>
<rect width="12.186" height="12.4404" rx="3.98412" transform="matrix(0.96543 -0.260662 0.256988 0.966415 44.6577 47.1262)" fill="white"/>
<rect width="12.186" height="12.4404" rx="3.98412" transform="matrix(0.96543 -0.260662 0.256988 0.966415 49.0402 63.6067)" fill="white"/>
<rect width="12.186" height="12.4404" rx="3.98412" transform="matrix(0.96543 -0.260662 0.256988 0.966415 28.8146 51.5306)" fill="white"/>
<rect width="12.186" height="12.4404" rx="3.98412" transform="matrix(0.96543 -0.260662 0.256988 0.966415 33.0621 67.5033)" fill="white"/>
<rect width="12.186" height="12.4404" rx="3.98412" transform="matrix(0.96543 -0.260662 0.256988 0.966415 56.1879 27.3884)" fill="white"/>
<rect width="12.186" height="12.4404" rx="3.98412" transform="matrix(0.96543 -0.260662 0.256988 0.966415 60.3441 43.0178)" fill="white"/>
<rect width="12.186" height="12.4404" rx="3.98412" transform="matrix(0.96543 -0.260662 0.256988 0.966415 64.5915 58.9906)" fill="white"/>
<rect x="-2.96654" y="-5.13827" width="84.8306" height="85.3367" rx="20.6464" transform="matrix(0.96543 0.260664 -0.256986 0.966415 86.8391 18.4209)" fill="#EF4444" stroke="white" stroke-width="8.37481"/>
<path opacity="0.5" d="M84.0324 33.7264C86.3684 24.9417 95.3763 19.741 104.152 22.1105L125.168 27.7848L105.39 102.162L84.3741 96.4875C75.5982 94.1181 70.3777 85.0758 72.7137 76.291L84.0324 33.7264Z" fill="#F87171"/>
<path d="M134.257 70.2863C135.692 70.6737 137.181 69.8237 137.391 68.3519C137.89 64.8475 137.566 61.2605 136.429 57.8844C135.004 53.6551 132.367 49.9466 128.85 47.2277C125.334 44.5088 121.096 42.9017 116.673 42.6096C112.25 42.3175 107.841 43.3535 104.002 45.5866C100.164 47.8198 97.0685 51.1497 95.1081 55.1554C93.1476 59.161 92.4101 63.6625 92.9886 68.0906C93.5672 72.5186 95.4358 76.6744 98.3583 80.0323C100.684 82.7039 103.593 84.7751 106.841 86.0922C108.228 86.6546 109.719 85.7835 110.103 84.3379C110.488 82.8923 109.616 81.4237 108.251 80.8085C106.023 79.804 104.025 78.324 102.402 76.4589C100.181 73.9069 98.7609 70.7485 98.3212 67.3832C97.8815 64.0178 98.442 60.5967 99.9319 57.5524C101.422 54.5081 103.774 51.9773 106.692 50.2802C109.609 48.583 112.96 47.7956 116.322 48.0176C119.683 48.2396 122.904 49.461 125.576 51.5274C128.249 53.5937 130.253 56.4122 131.336 59.6264C132.131 61.9868 132.403 64.4827 132.146 66.9406C131.992 68.4194 132.822 69.899 134.257 70.2863Z" fill="white"/>
<path d="M125.783 81.1163L130.834 82.48C131.057 82.5403 131.248 82.6875 131.363 82.8892C131.479 83.0909 131.51 83.3306 131.45 83.5556C131.391 83.7806 131.244 83.9724 131.044 84.0888C130.844 84.2053 130.606 84.2368 130.383 84.1765L125.332 82.8128L123.648 82.3582L118.597 80.9945C118.374 80.9342 118.184 80.787 118.068 80.5853C117.953 80.3836 117.921 80.1439 117.981 79.9189C118.041 79.694 118.187 79.5022 118.387 79.3857C118.587 79.2692 118.825 79.2377 119.048 79.298L124.099 80.6617L125.783 81.1163Z" fill="white" stroke="white" stroke-width="2.98809"/>
<path d="M114.332 66.0107L119.744 67.4719C119.983 67.5365 120.187 67.6942 120.311 67.9103C120.435 68.1264 120.469 68.3832 120.404 68.6243C120.34 68.8653 120.184 69.0708 119.969 69.1956C119.755 69.3204 119.5 69.3542 119.261 69.2896L113.849 67.8284C112.853 67.5594 112.263 66.521 112.528 65.5237L113.979 60.0706C114.043 59.8296 114.199 59.624 114.414 59.4993C114.628 59.3745 114.883 59.3407 115.122 59.4053C115.361 59.4699 115.565 59.6276 115.689 59.8437C115.813 60.0598 115.847 60.3166 115.782 60.5576L114.332 66.0107Z" fill="white" stroke="white" stroke-width="2.98809"/>
<rect x="-5.11875" y="-2.95526" width="84.8306" height="85.3367" rx="20.6464" transform="matrix(0.96543 -0.260664 0.256986 0.966415 132.812 23.4957)" fill="#8B5CF6" stroke="white" stroke-width="8.37481"/>
<path opacity="0.5" d="M136.459 40.8354C134.123 32.0507 139.344 23.0084 148.12 20.6389L169.136 14.9646L188.914 89.3416L167.898 95.016C159.122 97.3854 150.114 92.1848 147.778 83.4L136.459 40.8354Z" fill="#A78BFA"/>
<g clip-path="url(#clip0_3_49)">
<path d="M169.029 33.8507L171.298 31.7417C171.761 31.311 172.315 31.0088 172.906 30.8491L178.831 53.1291C177.665 53.4439 176.405 53.4068 175.223 52.9716L174.017 52.5278C172.445 51.9489 170.759 51.8738 169.141 52.3104C167.668 52.7083 166.51 53.7065 165.857 54.9741C164.87 56.8908 163.89 59.0429 161.753 59.2842C160.368 59.4406 158.862 58.84 158.052 57.7072L157.556 57.0134C156.819 55.9825 156.632 54.6526 157.055 53.4557L158.091 50.5259C158.185 50.2608 158.214 49.9734 158.175 49.695L157.741 46.6154C157.564 45.3575 158.012 44.0921 158.938 43.2307L161.207 41.1216C161.412 40.9308 161.57 40.6898 161.664 40.4249L162.7 37.495C163.124 36.2984 164.103 35.3875 165.321 35.0586L168.303 34.2536C168.573 34.1808 168.824 34.0414 169.029 33.8507Z" fill="white"/>
<path d="M177.754 31.495L174.742 30.8117C174.127 30.6722 173.498 30.6894 172.906 30.8491L178.831 53.1291C179.997 52.8142 181.07 52.1474 181.877 51.1749L182.701 50.1831C183.776 48.8895 185.199 47.9749 186.816 47.5383C188.29 47.1404 189.788 47.4215 190.982 48.1904C192.788 49.3529 194.705 50.723 196.675 49.8554C197.952 49.2932 198.958 48.0142 199.098 46.6251L199.183 45.7744C199.31 44.5103 198.812 43.2641 197.851 42.441L195.5 40.4256C195.288 40.2433 195.12 40.009 195.016 39.7481L193.863 36.8625C193.392 35.6839 192.377 34.8136 191.147 34.5344L188.136 33.851C187.863 33.7892 187.607 33.6601 187.394 33.4779L185.043 31.4627C184.082 30.6396 182.782 30.3444 181.564 30.6732L178.582 31.4782C178.313 31.551 178.026 31.5568 177.754 31.495Z" fill="white"/>
<path d="M189.779 54.8559C188.802 53.8751 187.37 53.4888 186.039 53.848C184.708 54.2073 183.659 55.2641 183.301 56.6058C183.15 57.1715 183.482 57.7533 184.044 57.9054C184.229 57.9557 184.416 57.9527 184.589 57.9061C184.94 57.8113 185.232 57.5357 185.333 57.1568C185.497 56.5435 185.976 56.0607 186.584 55.8966C187.191 55.7325 187.846 55.9092 188.292 56.3575C188.704 56.7709 189.37 56.7705 189.78 56.3556C190.191 55.9409 190.19 55.2694 189.779 54.8559Z" fill="white"/>
<path d="M176.685 58.391C175.709 57.4102 174.276 57.0239 172.946 57.3831C171.615 57.7424 170.566 58.7993 170.207 60.141C170.056 60.7066 170.389 61.2885 170.95 61.4406C171.135 61.4908 171.322 61.4879 171.495 61.4412C171.846 61.3465 172.139 61.0709 172.24 60.6919C172.404 60.0787 172.883 59.5958 173.491 59.4317C174.098 59.2677 174.752 59.4443 175.199 59.8926C175.61 60.3061 176.276 60.3057 176.687 59.8908C177.098 59.476 177.097 58.8046 176.685 58.391Z" fill="white"/>
<path d="M189.48 61.4546C188.638 61.6819 188.138 62.5542 188.364 63.4028C189.286 66.8681 187.237 70.4429 183.798 71.3715L183.582 71.4299C180.143 72.3584 176.595 70.2945 175.673 66.8292C175.448 65.9806 174.582 65.477 173.74 65.7044C172.898 65.9318 172.398 66.804 172.624 67.6526C173.996 72.8125 179.278 75.8856 184.399 74.503L184.615 74.4445C189.736 73.0619 192.786 67.7392 191.414 62.5793C191.188 61.7308 190.323 61.2272 189.48 61.4546Z" fill="white"/>
<path d="M182.657 67.5154C184.533 67.0089 185.647 65.0656 185.144 63.175C184.641 61.2844 182.713 60.1625 180.836 60.6691C178.96 61.1756 177.847 63.1189 178.349 65.0095C178.852 66.9001 180.781 68.022 182.657 67.5154Z" fill="white"/>
</g>
<rect x="-2.96654" y="-5.13827" width="84.8306" height="85.3367" rx="20.6464" transform="matrix(0.96543 0.260664 -0.256986 0.966415 216.018 19.2944)" fill="#EF4444" stroke="white" stroke-width="8.37481"/>
<path opacity="0.5" d="M213.211 34.6C215.547 25.8152 224.555 20.6145 233.331 22.984L254.347 28.6583L234.569 103.035L213.553 97.3611C204.777 94.9916 199.557 85.9493 201.893 77.1645L213.211 34.6Z" fill="#F87171"/>
<rect width="12.186" height="12.4404" rx="3.98412" transform="matrix(0.96543 0.260662 -0.256988 0.966415 229.107 38.2784)" fill="white"/>
<rect width="12.186" height="12.4404" rx="3.98412" transform="matrix(0.96543 0.260662 -0.256988 0.966415 224.951 53.9078)" fill="white"/>
<rect width="12.186" height="12.4404" rx="3.98412" transform="matrix(0.96543 0.260662 -0.256988 0.966415 220.703 69.8805)" fill="white"/>
<rect width="12.186" height="12.4404" rx="3.98412" transform="matrix(0.96543 0.260662 -0.256988 0.966415 260.636 46.7913)" fill="white"/>
<rect width="12.186" height="12.4404" rx="3.98412" transform="matrix(0.96543 0.260662 -0.256988 0.966415 256.48 62.4205)" fill="white"/>
<rect width="12.186" height="12.4404" rx="3.98412" transform="matrix(0.96543 0.260662 -0.256988 0.966415 252.233 78.3933)" fill="white"/>
<path d="M244.485 48.7301L249.191 50.0007" stroke="white" stroke-width="4.48214" stroke-linecap="round" stroke-linejoin="round"/>
<path d="M249.67 67.168L244.964 65.8974" stroke="white" stroke-width="4.48214" stroke-linecap="round" stroke-linejoin="round"/>
<path d="M236.011 80.5995L240.716 81.8701" stroke="white" stroke-width="4.48214" stroke-linecap="round" stroke-linejoin="round"/>
<path d="M250.328 53.3141L253.897 51.2711L251.82 47.7035" stroke="white" stroke-width="4.48214" stroke-linecap="round" stroke-linejoin="round"/>
<path d="M242.336 68.1943L240.258 64.6267L243.828 62.5838" stroke="white" stroke-width="4.48214" stroke-linecap="round" stroke-linejoin="round"/>
<path d="M241.853 85.1836L245.422 83.1407L243.345 79.573" stroke="white" stroke-width="4.48214" stroke-linecap="round" stroke-linejoin="round"/>
<rect x="-5.11875" y="-2.95526" width="84.8306" height="85.3367" rx="20.6464" transform="matrix(0.96543 -0.260664 0.256986 0.966415 261.992 24.3654)" fill="#22C55E" stroke="white" stroke-width="8.37481"/>
<path opacity="0.5" d="M265.639 41.7052C263.303 32.9204 268.523 23.8781 277.299 21.5087L298.316 15.8343L318.094 90.2114L297.077 95.8857C288.301 98.2552 279.294 93.0545 276.958 84.2698L265.639 41.7052Z" fill="#4ADE80"/>
<path d="M327.502 48.3106C328.937 47.9232 329.805 46.4367 329.256 45.0564C327.95 41.77 325.89 38.8268 323.229 36.4759C319.897 33.5311 315.773 31.6482 311.378 31.0652C306.984 30.4822 302.516 31.2254 298.541 33.2008C294.566 35.1762 291.261 38.295 289.045 42.1629C286.828 46.0308 285.8 50.4741 286.09 54.9308C286.38 59.3875 287.975 63.6575 290.673 67.2008C293.372 70.7441 297.052 73.4016 301.249 74.8373C304.589 75.9795 308.136 76.3074 311.602 75.8116C313.083 75.5999 313.942 74.0943 313.557 72.6487C313.173 71.2031 311.689 70.3707 310.202 70.5253C307.774 70.7779 305.309 70.5026 302.978 69.7052C299.788 68.6142 296.991 66.5944 294.94 63.9015C292.89 61.2086 291.677 57.9634 291.457 54.5763C291.237 51.1892 292.018 47.8124 293.703 44.8728C295.387 41.9332 297.898 39.5628 300.92 38.0615C303.941 36.5603 307.336 35.9954 310.676 36.4385C314.016 36.8815 317.15 38.3126 319.683 40.5506C321.543 42.1941 323.017 44.2186 324.014 46.4766C324.614 47.8352 326.068 48.6979 327.502 48.3106Z" fill="white"/>
<path d="M328.711 56.8159C328.895 56.7663 329.097 56.8143 329.272 56.9495C329.448 57.0846 329.582 57.2959 329.646 57.5367C329.71 57.7774 329.699 58.0281 329.614 58.2335C329.529 58.4389 329.378 58.5821 329.194 58.6318L319.486 61.2529C319.303 61.3025 319.101 61.2545 318.925 61.1193C318.75 60.9842 318.616 60.7729 318.552 60.5322C318.488 60.2914 318.499 60.0407 318.584 59.8353C318.669 59.6299 318.82 59.4867 319.004 59.437L328.711 56.8159Z" fill="white"/>
<path d="M320.862 69.6269C320.726 69.8528 320.668 70.1283 320.701 70.3926C320.735 70.657 320.857 70.8887 321.042 71.0367C321.226 71.1847 321.855 71.0682 322.082 71.0131C322.309 70.958 322.114 70.9688 322.251 70.7429L329.46 58.8177C329.596 58.5918 329.654 58.3164 329.62 58.052C329.587 57.7876 329.464 57.5559 329.28 57.408C329.096 57.26 328.865 57.2078 328.638 57.2629C328.412 57.318 328.208 57.4759 328.071 57.7018L320.862 69.6269Z" fill="white"/>
<path d="M331.367 66.8031C331.551 66.7535 331.75 66.7896 331.919 66.9034C332.089 67.0173 332.216 67.1996 332.272 67.4103C332.328 67.621 332.309 67.8428 332.218 68.0269C332.128 68.211 331.974 68.3423 331.79 68.392L322.082 71.0131C321.898 71.0627 321.699 71.0266 321.53 70.9128C321.36 70.7989 321.233 70.6165 321.177 70.4058C321.121 70.1951 321.141 69.9734 321.231 69.7893C321.321 69.6052 321.475 69.4738 321.659 69.4242L331.367 66.8031Z" fill="white"/>
<path d="M322.082 71.0131C322.309 70.958 322.114 70.9688 322.251 70.7429L329.46 58.8177C329.596 58.5918 329.654 58.3164 329.62 58.052C329.587 57.7876 329.464 57.5559 329.28 57.408C329.096 57.26 328.865 57.2078 328.638 57.2629C328.412 57.318 328.208 57.4759 328.071 57.7018L320.862 69.6269C320.726 69.8528 320.668 70.1283 320.701 70.3926C320.735 70.657 320.857 70.8887 321.042 71.0367C321.226 71.1847 321.855 71.0682 322.082 71.0131ZM322.082 71.0131C321.898 71.0627 321.699 71.0266 321.53 70.9128C321.36 70.7989 321.233 70.6165 321.177 70.4058C321.121 70.1951 321.141 69.9734 321.231 69.7893C321.321 69.6052 321.475 69.4738 321.659 69.4242L331.367 66.8031C331.551 66.7535 331.75 66.7896 331.919 66.9034C332.089 67.0173 332.216 67.1996 332.272 67.4103C332.328 67.621 332.309 67.8428 332.218 68.0269C332.128 68.211 331.974 68.3423 331.79 68.392L322.082 71.0131ZM328.711 56.8159C328.895 56.7663 329.097 56.8143 329.272 56.9495C329.448 57.0846 329.582 57.2959 329.646 57.5367C329.71 57.7774 329.699 58.0281 329.614 58.2335C329.529 58.4389 329.378 58.5821 329.194 58.6318L319.486 61.2529C319.303 61.3025 319.101 61.2545 318.925 61.1193C318.75 60.9842 318.616 60.7729 318.552 60.5322C318.488 60.2914 318.499 60.0407 318.584 59.8353C318.669 59.6299 318.82 59.4867 319.004 59.437L328.711 56.8159Z" stroke="white" stroke-width="2.98809"/>
<path d="M308.125 54.6463L313.537 53.1851C313.776 53.1205 314.031 53.1543 314.246 53.2791C314.46 53.4039 314.617 53.6094 314.681 53.8504C314.745 54.0915 314.711 54.3483 314.588 54.5644C314.464 54.7805 314.26 54.9382 314.021 55.0028L308.609 56.4639C307.613 56.7329 306.587 56.1306 306.322 55.1333L304.871 49.6802C304.807 49.4392 304.841 49.1823 304.965 48.9662C305.089 48.7501 305.293 48.5924 305.532 48.5278C305.771 48.4633 306.026 48.4971 306.24 48.6218C306.455 48.7466 306.611 48.9521 306.675 49.1932L308.125 54.6463Z" fill="white" stroke="white" stroke-width="2.98809"/>
<defs>
<clipPath id="clip0_3_49">
<rect width="44.8444" height="45.1408" fill="white" transform="matrix(0.96543 -0.260662 0.256988 0.966415 151.259 36.6936)"/>
</clipPath>
</defs>
</svg>
