<svg width="30" height="30" viewBox="0 0 30 30" fill="none" xmlns="http://www.w3.org/2000/svg">
<path d="M23.175 11.2529L11.1 4.3279C10.4466 3.9506 9.70499 3.75295 8.95048 3.75502C8.19598 3.75709 7.45546 3.95882 6.80415 4.3397C6.15284 4.72058 5.61394 5.26706 5.24217 5.92362C4.87041 6.58018 4.67904 7.32344 4.68749 8.0779V21.9779C4.68749 23.1117 5.13789 24.1991 5.93961 25.0008C6.74133 25.8025 7.82869 26.2529 8.96249 26.2529C9.71304 26.2516 10.4501 26.0534 11.1 25.6779L23.175 18.7529C23.8238 18.3774 24.3625 17.8379 24.737 17.1884C25.1115 16.539 25.3086 15.8026 25.3086 15.0529C25.3086 14.3032 25.1115 13.5668 24.737 12.9174C24.3625 12.2679 23.8238 11.7284 23.175 11.3529V11.2529ZM21.925 16.4904L9.84999 23.5154C9.57935 23.6688 9.27358 23.7494 8.96249 23.7494C8.65141 23.7494 8.34564 23.6688 8.07499 23.5154C7.80511 23.3596 7.58101 23.1355 7.42522 22.8656C7.26943 22.5957 7.18744 22.2895 7.18749 21.9779V8.0279C7.18744 7.71627 7.26943 7.41012 7.42522 7.14023C7.58101 6.87034 7.80511 6.64622 8.07499 6.4904C8.34675 6.33935 8.65161 6.25776 8.96249 6.2529C9.27316 6.25928 9.57766 6.34077 9.84999 6.4904L21.925 13.4654C22.195 13.6212 22.4192 13.8452 22.5751 14.1151C22.731 14.385 22.813 14.6912 22.813 15.0029C22.813 15.3146 22.731 15.6208 22.5751 15.8907C22.4192 16.1606 22.195 16.3847 21.925 16.5404V16.4904Z" fill="#F97316"/>
<path d="M21.925 16.4904L9.84999 23.5154C9.57935 23.6688 9.27358 23.7494 8.96249 23.7494C8.65141 23.7494 8.34564 23.6688 8.07499 23.5154C7.80511 23.3596 7.58101 23.1355 7.42522 22.8656C7.26943 22.5957 7.18744 22.2895 7.18749 21.9779V8.0279C7.18744 7.71627 7.26943 7.41012 7.42522 7.14023C7.58101 6.87034 7.80511 6.64622 8.07499 6.4904C8.34675 6.33935 8.65161 6.25776 8.96249 6.2529C9.27316 6.25928 9.57766 6.34077 9.84999 6.4904L21.925 13.4654C22.195 13.6212 22.4192 13.8452 22.5751 14.1151C22.731 14.385 22.813 14.6912 22.813 15.0029C22.813 15.3146 22.731 15.6208 22.5751 15.8907C22.4192 16.1606 22.195 16.3847 21.925 16.5404V16.4904Z" fill="#F97316"/>
</svg>
