<svg width="24" height="24" viewBox="0 0 24 24" fill="none" xmlns="http://www.w3.org/2000/svg">
<g id="star">
<path id="Icon" d="M3 11.5C2.72386 11.5 2.5 11.7239 2.5 12C2.5 12.2761 2.72386 12.5 3 12.5C7.69442 12.5 11.5 16.3056 11.5 21C11.5 21.2761 11.7239 21.5 12 21.5C12.2761 21.5 12.5 21.2761 12.5 21C12.5 16.3056 16.3056 12.5 21 12.5C21.2761 12.5 21.5 12.2761 21.5 12C21.5 11.7239 21.2761 11.5 21 11.5C16.3056 11.5 12.5 7.69442 12.5 3C12.5 2.72386 12.2761 2.5 12 2.5C11.7239 2.5 11.5 2.72386 11.5 3C11.5 7.69442 7.69442 11.5 3 11.5Z" fill="#FB923C" stroke="#FB923C" stroke-linecap="round" stroke-linejoin="round"/>
</g>
</svg>
