<svg width="92" height="16" viewBox="0 0 92 16" fill="none" xmlns="http://www.w3.org/2000/svg">
<path d="M3.37708 15.6213C2.06426 15.6213 1 14.557 1 13.2442V2.22745C1 1.22143 1.81554 0.40589 2.82156 0.40589C3.82758 0.40589 4.64311 1.22143 4.64311 2.22745V10.2423L10.5376 1.45801C10.9788 0.800422 11.7187 0.40589 12.5106 0.40589C13.8229 0.40589 14.8867 1.4697 14.8867 2.78197V13.7997C14.8867 14.8057 14.0712 15.6213 13.0651 15.6213C12.0591 15.6213 11.2436 14.8057 11.2436 13.7997V5.80627L5.34961 14.5707C4.90798 15.2274 4.16848 15.6213 3.37708 15.6213Z" fill="#F97316"/>
<path d="M20.4009 15.6213C19.3949 15.6213 18.5794 14.8057 18.5794 13.7997V2.78701C18.5794 1.47195 19.6454 0.40589 20.9605 0.40589H29.1873C30.0631 0.40589 30.7731 1.11589 30.7731 1.99172C30.7731 2.86754 30.0631 3.57754 29.1873 3.57754H22.2225V13.7997C22.2225 14.8057 21.4069 15.6213 20.4009 15.6213Z" fill="#F97316"/>
<path d="M35.1652 15.6213C34.1651 15.6213 33.3544 14.8105 33.3544 13.8104V2.78701C33.3544 1.47195 34.4205 0.40589 35.7355 0.40589H41.0692C44.5195 0.40589 46.5339 2.07744 46.5339 5.27052C46.5339 8.44217 44.5195 10.178 41.0692 10.178H36.9761V13.8104C36.9761 14.8105 36.1653 15.6213 35.1652 15.6213ZM40.7049 3.57754H36.9761V7.00636H40.7049C42.1407 7.00636 42.8051 6.34202 42.8051 5.29195C42.8051 4.15616 42.0979 3.57754 40.7049 3.57754Z" fill="#F97316"/>
<path d="M59.3557 15.6213C58.6158 15.6213 57.9536 15.1619 57.6945 14.4689L57.1396 12.9854H50.882L50.3062 14.5252C50.0596 15.1844 49.4298 15.6213 48.7261 15.6213C47.5435 15.6213 46.728 14.4361 47.1505 13.3316L51.5181 1.91479C51.8707 0.993135 52.7552 0.38446 53.7421 0.38446H54.4339C55.4186 0.38446 56.3017 0.990542 56.6558 1.90934L61.0107 13.2098C61.4584 14.3717 60.6009 15.6213 59.3557 15.6213ZM52.0178 9.94228H56.0038L54.0108 4.58476L52.0178 9.94228Z" fill="#F97316"/>
<path d="M63.0207 3.57754C62.1449 3.57754 61.4349 2.86754 61.4349 1.99172C61.4349 1.11589 62.1449 0.40589 63.0207 0.40589H73.8857C74.7616 0.40589 75.4716 1.11589 75.4716 1.99172C75.4716 2.86754 74.7616 3.57754 73.8857 3.57754H70.264V13.8104C70.264 14.8105 69.4533 15.6213 68.4532 15.6213C67.4531 15.6213 66.6424 14.8105 66.6424 13.8104V3.57754H63.0207Z" fill="#F97316"/>
<path d="M81.6993 5.27052H85.2782C88.8999 5.27052 91 7.09208 91 10.4566C91 13.864 88.8999 15.6213 85.2782 15.6213H79.2468C78.5893 15.6213 78.0562 15.0882 78.0562 14.4307V2.22745C78.0562 1.22143 78.8718 0.40589 79.8778 0.40589C80.8838 0.40589 81.6993 1.22143 81.6993 2.22745V5.27052ZM84.9139 8.4636H81.6993V12.4496H84.9139C86.4783 12.4496 87.2497 11.7853 87.2497 10.4566C87.2497 9.23509 86.5211 8.4636 84.9139 8.4636Z" fill="#F97316"/>
<path d="M3.37708 15.6213C2.06426 15.6213 1 14.557 1 13.2442V2.22745C1 1.22143 1.81554 0.40589 2.82156 0.40589C3.82758 0.40589 4.64311 1.22143 4.64311 2.22745V10.2423L10.5376 1.45801C10.9788 0.800422 11.7187 0.40589 12.5106 0.40589C13.8229 0.40589 14.8867 1.4697 14.8867 2.78197V13.7997C14.8867 14.8057 14.0712 15.6213 13.0651 15.6213C12.0591 15.6213 11.2436 14.8057 11.2436 13.7997V5.80627L5.34961 14.5707C4.90798 15.2274 4.16848 15.6213 3.37708 15.6213Z" stroke="#F97316" stroke-width="0.5"/>
<path d="M20.4009 15.6213C19.3949 15.6213 18.5794 14.8057 18.5794 13.7997V2.78701C18.5794 1.47195 19.6454 0.40589 20.9605 0.40589H29.1873C30.0631 0.40589 30.7731 1.11589 30.7731 1.99172C30.7731 2.86754 30.0631 3.57754 29.1873 3.57754H22.2225V13.7997C22.2225 14.8057 21.4069 15.6213 20.4009 15.6213Z" stroke="#F97316" stroke-width="0.5"/>
<path d="M35.1652 15.6213C34.1651 15.6213 33.3544 14.8105 33.3544 13.8104V2.78701C33.3544 1.47195 34.4205 0.40589 35.7355 0.40589H41.0692C44.5195 0.40589 46.5339 2.07744 46.5339 5.27052C46.5339 8.44217 44.5195 10.178 41.0692 10.178H36.9761V13.8104C36.9761 14.8105 36.1653 15.6213 35.1652 15.6213ZM40.7049 3.57754H36.9761V7.00636H40.7049C42.1407 7.00636 42.8051 6.34202 42.8051 5.29195C42.8051 4.15616 42.0979 3.57754 40.7049 3.57754Z" stroke="#F97316" stroke-width="0.5"/>
<path d="M59.3557 15.6213C58.6158 15.6213 57.9536 15.1619 57.6945 14.4689L57.1396 12.9854H50.882L50.3062 14.5252C50.0596 15.1844 49.4298 15.6213 48.7261 15.6213C47.5435 15.6213 46.728 14.4361 47.1505 13.3316L51.5181 1.91479C51.8707 0.993135 52.7552 0.38446 53.7421 0.38446H54.4339C55.4186 0.38446 56.3017 0.990542 56.6558 1.90934L61.0107 13.2098C61.4584 14.3717 60.6009 15.6213 59.3557 15.6213ZM52.0178 9.94228H56.0038L54.0108 4.58476L52.0178 9.94228Z" stroke="#F97316" stroke-width="0.5"/>
<path d="M63.0207 3.57754C62.1449 3.57754 61.4349 2.86754 61.4349 1.99172C61.4349 1.11589 62.1449 0.40589 63.0207 0.40589H73.8857C74.7616 0.40589 75.4716 1.11589 75.4716 1.99172C75.4716 2.86754 74.7616 3.57754 73.8857 3.57754H70.264V13.8104C70.264 14.8105 69.4533 15.6213 68.4532 15.6213C67.4531 15.6213 66.6424 14.8105 66.6424 13.8104V3.57754H63.0207Z" stroke="#F97316" stroke-width="0.5"/>
<path d="M81.6993 5.27052H85.2782C88.8999 5.27052 91 7.09208 91 10.4566C91 13.864 88.8999 15.6213 85.2782 15.6213H79.2468C78.5893 15.6213 78.0562 15.0882 78.0562 14.4307V2.22745C78.0562 1.22143 78.8718 0.40589 79.8778 0.40589C80.8838 0.40589 81.6993 1.22143 81.6993 2.22745V5.27052ZM84.9139 8.4636H81.6993V12.4496H84.9139C86.4783 12.4496 87.2497 11.7853 87.2497 10.4566C87.2497 9.23509 86.5211 8.4636 84.9139 8.4636Z" stroke="#F97316" stroke-width="0.5"/>
</svg>
