<svg width="852" height="393" viewBox="0 0 852 393" fill="none" xmlns="http://www.w3.org/2000/svg">
<g opacity="0.2">
<rect x="747.242" y="-128" width="140" height="140" rx="34.4827" transform="rotate(30 747.242 -128)" fill="#F472B6"/>
<rect x="908.323" y="-35" width="140" height="140" rx="34.4827" transform="rotate(30 908.323 -35)" fill="#F472B6"/>
<rect x="332.081" y="-152.919" width="140" height="140" rx="34.4827" transform="rotate(30 332.081 -152.919)" fill="#F472B6"/>
<rect x="493.161" y="-59.9193" width="140" height="140" rx="34.4827" transform="rotate(30 493.161 -59.9193)" fill="#F472B6"/>
<path d="M511.392 11.2952C505.275 7.76314 497.452 9.85923 493.92 15.9769L489.269 24.033C485.737 30.1507 487.833 37.9733 493.95 41.5054L506.034 48.4821C511.824 51.8245 519.139 50.1272 522.901 44.752L529.411 59.9919C531.444 64.751 538.036 65.1453 540.623 60.6649L551.321 42.136C553.908 37.6549 550.269 32.1438 545.132 32.7624L528.679 34.7448C531.453 28.7988 529.266 21.6145 523.476 18.2719L511.392 11.2952Z" fill="#EC4899"/>
<rect x="654.242" y="33.0807" width="140" height="140" rx="34.4827" transform="rotate(30 654.242 33.0807)" fill="#F472B6"/>
<path d="M672.473 104.295C666.355 100.763 658.533 102.859 655.001 108.977L650.349 117.033C646.817 123.151 648.914 130.973 655.031 134.505L667.115 141.482C672.904 144.824 680.22 143.127 683.982 137.752L690.492 152.992C692.525 157.751 699.117 158.145 701.704 153.665L712.402 135.136C714.989 130.655 711.35 125.144 706.213 125.762L689.76 127.745C692.534 121.799 690.347 114.614 684.557 111.272L672.473 104.295Z" fill="#EC4899"/>
<rect x="815.323" y="126.081" width="140" height="140" rx="34.4827" transform="rotate(30 815.323 126.081)" fill="#F472B6"/>
<path d="M833.554 197.295C827.436 193.763 819.614 195.859 816.081 201.977L811.43 210.033C807.898 216.151 809.994 223.973 816.112 227.505L828.196 234.482C833.985 237.824 841.3 236.127 845.063 230.752L851.573 245.992C853.605 250.751 860.198 251.145 862.785 246.665L873.482 228.136C876.07 223.655 872.431 218.144 867.294 218.762L850.84 220.745C853.615 214.799 851.427 207.614 845.638 204.272L833.554 197.295Z" fill="#EC4899"/>
<rect x="78" y="-84.8386" width="140" height="140" rx="34.4827" transform="rotate(30 78 -84.8386)" fill="#F472B6"/>
<path d="M96.2309 -13.6241C90.1132 -17.1561 82.2905 -15.0601 78.7585 -8.94237L74.1073 -0.886319C70.5752 5.23145 72.6713 13.0541 78.789 16.5861L90.8731 23.5628C96.6622 26.9052 103.977 25.2079 107.74 19.8327L114.25 35.0726C116.282 39.8318 122.875 40.226 125.462 35.7456L136.159 17.2168C138.747 12.7356 135.108 7.22453 129.971 7.84311L113.517 9.82547C116.292 3.87949 114.104 -3.30479 108.315 -6.64735L96.2309 -13.6241Z" fill="#EC4899"/>
<rect x="239.081" y="8.16144" width="140" height="140" rx="34.4827" transform="rotate(30 239.081 8.16144)" fill="#F472B6"/>
<path d="M257.312 79.3759C251.194 75.8438 243.371 77.9399 239.839 84.0576L235.188 92.1137C231.656 98.2314 233.752 106.054 239.87 109.586L251.954 116.563C257.743 119.905 265.058 118.208 268.821 112.833L275.33 128.073C277.363 132.832 283.956 133.226 286.543 128.746L297.24 110.217C299.827 105.736 296.188 100.225 291.051 100.843L274.598 102.825C277.373 96.8795 275.185 89.6952 269.396 86.3526L257.312 79.3759Z" fill="#EC4899"/>
<rect x="400.161" y="101.161" width="140" height="140" rx="34.4827" transform="rotate(30 400.161 101.161)" fill="#F472B6"/>
<path d="M418.392 172.376C412.275 168.844 404.452 170.94 400.92 177.058L396.269 185.114C392.737 191.231 394.833 199.054 400.95 202.586L413.034 209.563C418.824 212.905 426.139 211.208 429.901 205.833L436.411 221.073C438.444 225.832 445.036 226.226 447.623 221.746L458.321 203.217C460.908 198.736 457.269 193.225 452.132 193.843L435.679 195.825C438.453 189.879 436.266 182.695 430.476 179.353L418.392 172.376Z" fill="#EC4899"/>
<rect x="561.242" y="194.161" width="140" height="140" rx="34.4827" transform="rotate(30 561.242 194.161)" fill="#F472B6"/>
<path d="M579.473 265.376C573.355 261.844 565.533 263.94 562.001 270.058L557.349 278.114C553.817 284.231 555.914 292.054 562.031 295.586L574.115 302.563C579.904 305.905 587.22 304.208 590.982 298.833L597.492 314.073C599.525 318.832 606.117 319.226 608.704 314.746L619.402 296.217C621.989 291.736 618.35 286.225 613.213 286.843L596.76 288.825C599.534 282.879 597.347 275.695 591.557 272.353L579.473 265.376Z" fill="#EC4899"/>
<rect x="722.323" y="287.161" width="140" height="140" rx="34.4827" transform="rotate(30 722.323 287.161)" fill="#F472B6"/>
<path d="M740.554 358.376C734.436 354.844 726.614 356.94 723.081 363.058L718.43 371.114C714.898 377.231 716.994 385.054 723.112 388.586L735.196 395.563C740.985 398.905 748.3 397.208 752.063 391.833L758.573 407.073C760.605 411.832 767.198 412.226 769.785 407.746L780.482 389.217C783.07 384.736 779.431 379.225 774.294 379.843L757.84 381.825C760.615 375.879 758.427 368.695 752.638 365.353L740.554 358.376Z" fill="#EC4899"/>
<rect x="-15" y="76.2422" width="140" height="140" rx="34.4827" transform="rotate(30 -15 76.2422)" fill="#F472B6"/>
<path d="M3.23088 147.457C-2.88681 143.925 -10.7095 146.021 -14.2415 152.138L-18.8927 160.194C-22.4248 166.312 -20.3287 174.135 -14.211 177.667L-2.12691 184.644C3.66217 187.986 10.9773 186.289 14.7397 180.913L21.2496 196.153C23.2824 200.912 29.875 201.307 32.4617 196.826L43.1594 178.297C45.7466 173.816 42.1076 168.305 36.9706 168.924L20.5174 170.906C23.2919 164.96 21.1044 157.776 15.315 154.433L3.23088 147.457Z" fill="#EC4899"/>
<rect x="146.081" y="169.242" width="140" height="140" rx="34.4827" transform="rotate(30 146.081 169.242)" fill="#F472B6"/>
<path d="M164.312 240.457C158.194 236.925 150.371 239.021 146.839 245.138L142.188 253.194C138.656 259.312 140.752 267.135 146.87 270.667L158.954 277.644C164.743 280.986 172.058 279.289 175.821 273.913L182.33 289.153C184.363 293.912 190.956 294.307 193.543 289.826L204.24 271.297C206.827 266.816 203.188 261.305 198.051 261.924L181.598 263.906C184.373 257.96 182.185 250.776 176.396 247.433L164.312 240.457Z" fill="#EC4899"/>
<rect x="307.161" y="262.242" width="140" height="140" rx="34.4827" transform="rotate(30 307.161 262.242)" fill="#F472B6"/>
<path d="M325.392 333.457C319.275 329.925 311.452 332.021 307.92 338.138L303.269 346.194C299.737 352.312 301.833 360.135 307.95 363.667L320.034 370.644C325.824 373.986 333.139 372.289 336.901 366.913L343.411 382.153C345.444 386.912 352.036 387.307 354.623 382.826L365.321 364.297C367.908 359.816 364.269 354.305 359.132 354.924L342.679 356.906C345.453 350.96 343.266 343.776 337.476 340.433L325.392 333.457Z" fill="#EC4899"/>
<rect x="468.242" y="355.242" width="140" height="140" rx="34.4827" transform="rotate(30 468.242 355.242)" fill="#F472B6"/>
<rect x="-108" y="237.323" width="140" height="140" rx="34.4827" transform="rotate(30 -108 237.323)" fill="#F472B6"/>
<rect x="53.0808" y="330.323" width="140" height="140" rx="34.4827" transform="rotate(30 53.0808 330.323)" fill="#F472B6"/>
</g>
</svg>
