<svg width="852" height="393" viewBox="0 0 852 393" fill="none" xmlns="http://www.w3.org/2000/svg">
<g opacity="0.2">
<g clip-path="url(#clip0_39_360)">
<rect x="747.242" y="-128" width="140" height="140" rx="34.4827" transform="rotate(30 747.242 -128)" fill="#F87171"/>
<path d="M765.543 -59.6987L780.184 -5.05772M800.184 -39.6987L745.543 -25.0577" stroke="#EF4444" stroke-width="10" stroke-linecap="round" stroke-linejoin="round"/>
</g>
<g clip-path="url(#clip1_39_360)">
<rect x="908.323" y="-35" width="140" height="140" rx="34.4827" transform="rotate(30 908.323 -35)" fill="#F87171"/>
</g>
<g clip-path="url(#clip2_39_360)">
<rect x="332.081" y="-152.919" width="140" height="140" rx="34.4827" transform="rotate(30 332.081 -152.919)" fill="#F87171"/>
</g>
<g clip-path="url(#clip3_39_360)">
<rect x="493.162" y="-59.9193" width="140" height="140" rx="34.4827" transform="rotate(30 493.162 -59.9193)" fill="#F87171"/>
<path d="M511.463 8.38199L526.104 63.023M546.104 28.382L491.463 43.023" stroke="#EF4444" stroke-width="10" stroke-linecap="round" stroke-linejoin="round"/>
</g>
<g clip-path="url(#clip4_39_360)">
<rect x="654.242" y="33.0807" width="140" height="140" rx="34.4827" transform="rotate(30 654.242 33.0807)" fill="#F87171"/>
<path d="M672.543 101.382L687.184 156.023M707.184 121.382L652.543 136.023" stroke="#EF4444" stroke-width="10" stroke-linecap="round" stroke-linejoin="round"/>
</g>
<g clip-path="url(#clip5_39_360)">
<rect x="815.323" y="126.081" width="140" height="140" rx="34.4827" transform="rotate(30 815.323 126.081)" fill="#F87171"/>
<path d="M833.624 194.382L848.265 249.023M868.265 214.382L813.624 229.023" stroke="#EF4444" stroke-width="10" stroke-linecap="round" stroke-linejoin="round"/>
</g>
<g clip-path="url(#clip6_39_360)">
<rect x="78" y="-84.8386" width="140" height="140" rx="34.4827" transform="rotate(30 78 -84.8386)" fill="#F87171"/>
<path d="M96.3013 -16.5373L110.942 38.1037M130.942 3.46271L76.3013 18.1037" stroke="#EF4444" stroke-width="10" stroke-linecap="round" stroke-linejoin="round"/>
</g>
<g clip-path="url(#clip7_39_360)">
<rect x="239.081" y="8.16144" width="140" height="140" rx="34.4827" transform="rotate(30 239.081 8.16144)" fill="#F87171"/>
<path d="M257.382 76.4627L272.023 131.104M292.023 96.4627L237.382 111.104" stroke="#EF4444" stroke-width="10" stroke-linecap="round" stroke-linejoin="round"/>
</g>
<g clip-path="url(#clip8_39_360)">
<rect x="400.162" y="101.161" width="140" height="140" rx="34.4827" transform="rotate(30 400.162 101.161)" fill="#F87171"/>
<path d="M418.463 169.463L433.104 224.104M453.104 189.463L398.463 204.104" stroke="#EF4444" stroke-width="10" stroke-linecap="round" stroke-linejoin="round"/>
</g>
<g clip-path="url(#clip9_39_360)">
<rect x="561.242" y="194.161" width="140" height="140" rx="34.4827" transform="rotate(30 561.242 194.161)" fill="#F87171"/>
<path d="M579.543 262.463L594.184 317.104M614.184 282.463L559.543 297.104" stroke="#EF4444" stroke-width="10" stroke-linecap="round" stroke-linejoin="round"/>
</g>
<g clip-path="url(#clip10_39_360)">
<rect x="722.323" y="287.161" width="140" height="140" rx="34.4827" transform="rotate(30 722.323 287.161)" fill="#F87171"/>
<path d="M740.624 355.463L755.265 410.104M775.265 375.463L720.624 390.104" stroke="#EF4444" stroke-width="10" stroke-linecap="round" stroke-linejoin="round"/>
</g>
<g clip-path="url(#clip11_39_360)">
<rect x="-15" y="76.2422" width="140" height="140" rx="34.4827" transform="rotate(30 -15 76.2422)" fill="#F87171"/>
<path d="M3.30127 144.543L17.9423 199.184M37.9423 164.543L-16.6987 179.184" stroke="#EF4444" stroke-width="10" stroke-linecap="round" stroke-linejoin="round"/>
</g>
<g clip-path="url(#clip12_39_360)">
<rect x="146.081" y="169.242" width="140" height="140" rx="34.4827" transform="rotate(30 146.081 169.242)" fill="#F87171"/>
<path d="M164.382 237.543L179.023 292.184M199.023 257.543L144.382 272.184" stroke="#EF4444" stroke-width="10" stroke-linecap="round" stroke-linejoin="round"/>
</g>
<g clip-path="url(#clip13_39_360)">
<rect x="307.162" y="262.242" width="140" height="140" rx="34.4827" transform="rotate(30 307.162 262.242)" fill="#F87171"/>
<path d="M325.463 330.543L340.104 385.184M360.104 350.543L305.463 365.184" stroke="#EF4444" stroke-width="10" stroke-linecap="round" stroke-linejoin="round"/>
</g>
<g clip-path="url(#clip14_39_360)">
<rect x="468.242" y="355.242" width="140" height="140" rx="34.4827" transform="rotate(30 468.242 355.242)" fill="#F87171"/>
</g>
<g clip-path="url(#clip15_39_360)">
<rect x="-108" y="237.323" width="140" height="140" rx="34.4827" transform="rotate(30 -108 237.323)" fill="#F87171"/>
</g>
<g clip-path="url(#clip16_39_360)">
<rect x="53.0808" y="330.323" width="140" height="140" rx="34.4827" transform="rotate(30 53.0808 330.323)" fill="#F87171"/>
<path d="M71.3821 398.624L86.0231 453.265M106.023 418.624L51.3821 433.265" stroke="#EF4444" stroke-width="10" stroke-linecap="round" stroke-linejoin="round"/>
</g>
</g>
<defs>
<clipPath id="clip0_39_360">
<rect x="747.242" y="-128" width="140" height="140" rx="34.4827" transform="rotate(30 747.242 -128)" fill="white"/>
</clipPath>
<clipPath id="clip1_39_360">
<rect x="908.323" y="-35" width="140" height="140" rx="34.4827" transform="rotate(30 908.323 -35)" fill="white"/>
</clipPath>
<clipPath id="clip2_39_360">
<rect x="332.081" y="-152.919" width="140" height="140" rx="34.4827" transform="rotate(30 332.081 -152.919)" fill="white"/>
</clipPath>
<clipPath id="clip3_39_360">
<rect x="493.162" y="-59.9193" width="140" height="140" rx="34.4827" transform="rotate(30 493.162 -59.9193)" fill="white"/>
</clipPath>
<clipPath id="clip4_39_360">
<rect x="654.242" y="33.0807" width="140" height="140" rx="34.4827" transform="rotate(30 654.242 33.0807)" fill="white"/>
</clipPath>
<clipPath id="clip5_39_360">
<rect x="815.323" y="126.081" width="140" height="140" rx="34.4827" transform="rotate(30 815.323 126.081)" fill="white"/>
</clipPath>
<clipPath id="clip6_39_360">
<rect x="78" y="-84.8386" width="140" height="140" rx="34.4827" transform="rotate(30 78 -84.8386)" fill="white"/>
</clipPath>
<clipPath id="clip7_39_360">
<rect x="239.081" y="8.16144" width="140" height="140" rx="34.4827" transform="rotate(30 239.081 8.16144)" fill="white"/>
</clipPath>
<clipPath id="clip8_39_360">
<rect x="400.162" y="101.161" width="140" height="140" rx="34.4827" transform="rotate(30 400.162 101.161)" fill="white"/>
</clipPath>
<clipPath id="clip9_39_360">
<rect x="561.242" y="194.161" width="140" height="140" rx="34.4827" transform="rotate(30 561.242 194.161)" fill="white"/>
</clipPath>
<clipPath id="clip10_39_360">
<rect x="722.323" y="287.161" width="140" height="140" rx="34.4827" transform="rotate(30 722.323 287.161)" fill="white"/>
</clipPath>
<clipPath id="clip11_39_360">
<rect x="-15" y="76.2422" width="140" height="140" rx="34.4827" transform="rotate(30 -15 76.2422)" fill="white"/>
</clipPath>
<clipPath id="clip12_39_360">
<rect x="146.081" y="169.242" width="140" height="140" rx="34.4827" transform="rotate(30 146.081 169.242)" fill="white"/>
</clipPath>
<clipPath id="clip13_39_360">
<rect x="307.162" y="262.242" width="140" height="140" rx="34.4827" transform="rotate(30 307.162 262.242)" fill="white"/>
</clipPath>
<clipPath id="clip14_39_360">
<rect x="468.242" y="355.242" width="140" height="140" rx="34.4827" transform="rotate(30 468.242 355.242)" fill="white"/>
</clipPath>
<clipPath id="clip15_39_360">
<rect x="-108" y="237.323" width="140" height="140" rx="34.4827" transform="rotate(30 -108 237.323)" fill="white"/>
</clipPath>
<clipPath id="clip16_39_360">
<rect x="53.0808" y="330.323" width="140" height="140" rx="34.4827" transform="rotate(30 53.0808 330.323)" fill="white"/>
</clipPath>
</defs>
</svg>
