<svg width="852" height="393" viewBox="0 0 852 393" fill="none" xmlns="http://www.w3.org/2000/svg">
<g opacity="0.25" clip-path="url(#clip0_85_171)">
<path d="M427.878 -108.327C427.878 52.2523 427.691 185.975 427.409 188.792C427.033 192.267 427.127 193.393 427.784 192.079C428.254 191.046 437.175 124.091 447.599 43.2373C458.116 -37.616 475.207 -168.991 485.631 -248.811C496.054 -328.631 504.506 -393.99 504.318 -394.178C503.473 -395.305 465.441 -398.779 444.594 -399.625L427.878 -400.282V-108.327Z" fill="#FACC15"/>
<path d="M327.398 -391.079C313.97 -388.919 293.31 -384.693 279.506 -381.407C274.623 -380.28 272.463 -379.341 272.557 -378.402C272.651 -376.899 278.473 -355.113 339.606 -127.202C348.433 -94.1474 361.111 -46.8187 367.778 -22.0274C374.445 2.76384 386.278 46.8998 394.072 76.1046C401.866 105.309 412.102 143.341 416.703 160.62C425.249 192.642 426.376 196.492 425.53 190.67C425.249 188.886 415.576 115.733 403.932 28.2124C392.288 -59.3082 374.915 -189.65 365.43 -261.301C355.852 -332.951 348.058 -392.018 348.058 -392.488C348.058 -393.896 342.423 -393.521 327.398 -391.079Z" fill="#FACC15"/>
<path d="M581.978 -374.927C576.438 -354.174 553.712 -269.283 542.444 -227.213C528.921 -176.785 519.812 -142.697 491.828 -38.4612C485.161 -13.3882 472.389 34.1284 463.562 67.1834C432.949 181.279 429.85 193.018 430.132 193.206C430.319 193.393 432.573 188.135 435.296 181.561C437.926 174.894 488.635 52.0645 547.89 -91.5182L655.694 -352.578L651.187 -354.643C642.923 -358.494 614.376 -368.823 599.632 -373.331C591.65 -375.772 584.701 -377.932 584.044 -378.12C583.387 -378.402 582.542 -377.087 581.978 -374.927Z" fill="#FACC15"/>
<path d="M183.252 -348.915C169.824 -343.093 143.906 -330.322 133.764 -324.688L126.533 -320.556L236.779 -129.55C297.536 -24.4692 364.116 91.0355 384.963 127.002C405.716 162.968 422.807 192.266 422.901 192.173C423.089 191.985 418.769 181.373 413.417 168.508C403.556 144.844 375.854 78.1703 335.474 -19.0226C323.267 -48.3214 303.358 -96.2136 291.151 -125.606C278.943 -154.905 258.753 -203.548 246.17 -233.786C233.586 -264.024 217.34 -302.995 210.11 -320.556C202.785 -338.022 196.869 -352.672 196.869 -353.141C196.869 -354.644 194.709 -353.986 183.252 -348.915Z" fill="#FACC15"/>
<path d="M727.063 -316.236C726.312 -315.015 695.605 -261.864 658.887 -198.102C558.22 -23.7176 434.358 190.858 432.761 193.488C431.446 195.647 431.446 195.741 432.761 194.427C437.081 190.201 792.328 -275.386 791.671 -276.044C784.534 -282.523 731.383 -318.302 728.848 -318.302C728.66 -318.302 727.815 -317.362 727.063 -316.236Z" fill="#FACC15"/>
<path d="M55.6337 -271.067C31.6876 -251.534 2.48279 -225.898 2.48279 -224.395C2.48279 -224.114 96.7647 -129.644 212.082 -14.5148C327.305 100.708 420.741 193.769 419.802 192.361C411.914 181.186 60.9864 -274.072 60.2351 -274.072C59.7656 -274.072 57.6058 -272.757 55.6337 -271.067Z" fill="#FACC15"/>
<path d="M642.454 -12.1672C527.231 103.056 433.419 197.056 433.982 196.868C436.424 195.741 499.059 169.541 533.523 155.174C554.746 146.44 601.229 127.096 636.82 112.259C672.504 97.4214 717.673 78.6402 737.299 70.4703C756.926 62.3005 797.118 45.5852 826.51 33.3773C855.997 21.1695 902.481 1.82486 929.807 -9.5378C957.228 -20.9005 979.859 -30.4789 980.235 -30.8545C981.174 -31.6997 968.027 -60.1533 958.73 -77.432C946.898 -99.3122 946.804 -99.5 945.584 -99.1244C945.02 -98.8426 832.614 -34.0473 695.793 44.9278C559.065 123.903 445.439 189.543 443.373 190.67C441.307 191.891 440.086 192.455 440.556 191.891C441.119 191.422 544.134 111.977 669.687 15.5352C795.24 -80.9066 898.912 -160.821 900.133 -162.042L902.387 -164.107L897.785 -170.117C885.953 -185.518 855.152 -220.451 852.804 -221.296C852.335 -221.484 757.583 -127.296 642.454 -12.1672Z" fill="#FACC15"/>
<path d="M-58.1805 -155.093C-67.8529 -141.946 -78.4643 -126.263 -86.9158 -112.741C-92.6441 -103.538 -93.9588 -100.721 -93.1137 -99.9697C-92.4563 -99.3124 22.9545 -32.6389 163.344 48.4022C303.734 129.349 418.394 195.741 418.206 195.929C418.112 196.117 408.909 192.454 397.828 187.947C366.839 175.176 318.196 155.174 270.116 135.265C246.076 125.311 219.5 114.324 210.955 110.85C202.409 107.375 175.834 96.3883 151.794 86.4342C127.754 76.4801 101.178 65.4931 92.6329 62.0186C84.0874 58.5441 63.8037 50.1864 47.5579 43.4251C-33.9527 9.8067 -71.703 -5.78174 -95.1796 -15.4541C-109.359 -21.3702 -122.506 -26.8167 -124.384 -27.568L-127.859 -28.9766L-130.864 -21.7458C-137.907 -4.74876 -154.153 42.8617 -153.12 43.8008C-153.026 43.8947 -133.869 49.0595 -110.674 55.2573C-66.0687 67.1834 -11.6969 81.7389 75.7298 105.215C104.935 113.01 149.071 124.842 173.862 131.509C308.993 167.663 414.544 196.023 417.83 196.962C422.244 198.277 417.642 194.051 398.11 179.214C380.08 165.503 227.67 48.7778 176.209 9.43108C130.289 -25.7838 -26.1585 -145.42 -37.6151 -154.154C-44.9398 -159.694 -51.0437 -164.296 -51.2315 -164.296C-51.4193 -164.202 -54.5182 -160.164 -58.1805 -155.093Z" fill="#FACC15"/>
<path d="M977.699 52.5341C946.804 60.8918 862.57 83.5232 795.333 101.553C646.492 141.369 560.755 164.376 493.612 182.406C468.539 189.074 445.157 195.366 441.494 196.305C437.926 197.244 435.672 198.089 436.517 198.089C437.926 198.183 567.892 180.904 921.167 133.857C976.854 126.438 1022.59 120.241 1022.77 120.053C1023.43 119.395 1017.7 87.7489 1013.95 70.9397C1008.97 49.0596 1007.94 45.6789 1006.34 45.3972C1005.59 45.3033 992.724 48.4961 977.699 52.5341Z" fill="#FACC15"/>
<path d="M-169.741 125.124C-171.713 137.238 -173.873 162.686 -174.624 182.876L-175.282 199.122L121.368 199.028L418.018 198.934L372.943 193.018C348.152 189.731 225.416 173.673 100.145 157.334C-25.1256 141.088 -135.559 126.72 -145.42 125.405C-155.186 124.091 -164.576 122.87 -166.267 122.588C-169.084 122.119 -169.272 122.213 -169.741 125.124Z" fill="#FACC15"/>
<path d="M436.799 200.624C437.832 200.812 453.515 202.878 471.545 205.226C489.669 207.48 557.845 216.401 623.203 224.852C883.793 258.846 1017.23 276.125 1019.96 276.407L1022.77 276.595L1023.9 265.326C1025.4 250.301 1027 221.659 1027 209.639V200.061L731.008 200.155C568.174 200.249 435.766 200.437 436.799 200.624Z" fill="#FACC15"/>
<path d="M409.097 202.502C404.683 203.16 295.94 217.715 167.288 234.806C38.7306 251.897 -89.3575 268.894 -117.248 272.65L-167.957 279.412L-167.675 282.698C-166.642 294.53 -155.468 353.128 -153.871 354.818C-153.777 355.006 -128.986 348.527 -98.842 340.451C-47.0058 326.553 0.322968 313.875 105.78 285.609C130.853 278.942 175.176 267.016 204.381 259.222C279.788 239.032 338.198 223.35 379.986 212.269C399.894 206.916 416.515 202.221 417.079 201.751C417.548 201.375 417.736 201.094 417.548 201.094C417.267 201.188 413.51 201.845 409.097 202.502Z" fill="#FACC15"/>
<path d="M434.452 202.221C434.734 202.409 454.172 210.578 477.649 220.251C535.589 244.103 566.86 257.062 681.425 304.297C705.465 314.251 732.041 325.238 740.586 328.712C749.132 332.187 775.707 343.174 799.747 353.128C823.787 363.082 850.363 374.069 858.908 377.544C867.454 381.018 894.029 392.005 918.069 401.959C980.611 427.784 981.737 428.253 982.677 428.253C984.461 428.253 997.42 392.005 1004.09 368.529C1005.78 362.237 1007.28 356.603 1007.28 356.133C1007.28 355.664 1005.5 354.912 1003.34 354.349C1001.08 353.879 974.601 346.742 944.363 338.667C914.125 330.497 869.144 318.477 844.353 311.809C819.561 305.142 775.425 293.31 746.221 285.516C717.016 277.721 676.073 266.734 655.132 261.1C613.719 250.019 533.523 228.514 474.832 212.832C454.454 207.292 436.893 202.596 435.86 202.315C434.828 201.939 434.17 201.939 434.452 202.221Z" fill="#FACC15"/>
<path d="M410.036 207.104C406.186 208.794 383.179 218.467 358.857 228.514C334.629 238.562 288.146 257.907 255.56 271.43C223.069 284.952 180.341 302.7 160.715 310.87C141.088 319.04 106.249 333.502 83.2421 343.08C60.235 352.659 25.208 367.214 5.29987 375.478C-14.6083 383.742 -52.3586 399.424 -78.7462 410.411C-105.04 421.304 -127.014 430.695 -127.484 431.07C-128.704 432.291 -119.595 452.857 -106.73 478.023C-100.814 489.668 -95.6494 499.528 -95.1798 499.998C-94.6164 500.561 -93.8652 500.467 -93.1139 499.904C-92.4566 499.34 21.8274 433.324 160.715 353.128C299.696 272.932 414.637 206.54 416.14 205.601C420.272 203.066 418.018 203.535 410.036 207.104Z" fill="#FACC15"/>
<path d="M433.512 205.038C433.512 205.32 467.413 231.519 508.919 263.26C550.332 294.906 631.373 356.978 688.937 401.02C746.502 445.062 818.246 499.997 848.39 523.004C878.44 546.011 903.419 564.981 903.795 565.074C904.452 565.262 923.14 538.969 928.962 529.672C934.596 520.657 946.147 501.124 945.959 500.936C945.865 500.843 831.018 434.545 690.816 353.598C550.614 272.65 435.297 205.977 434.733 205.507C434.076 204.944 433.512 204.756 433.512 205.038Z" fill="#FACC15"/>
<path d="M434.17 209.921C459.149 242.788 793.456 676.729 793.925 676.917C795.24 677.292 823.13 653.534 837.31 639.918C844.822 632.781 851.02 626.677 851.208 626.395C851.302 626.114 756.926 531.456 641.327 416.045C525.823 300.634 432.668 207.855 434.17 209.921Z" fill="#FACC15"/>
<path d="M417.549 210.203C415.764 211.705 310.495 292.652 183.722 390.221C56.9485 487.696 -47.3813 567.986 -48.1326 568.643C-49.1656 569.676 -48.4143 571.085 -43.4373 577.282C-33.7649 589.208 -19.3973 605.454 -8.31634 616.817L2.01336 627.428L211.894 417.454C327.305 302.043 421.586 207.573 421.305 207.573C421.023 207.573 419.333 208.794 417.549 210.203Z" fill="#FACC15"/>
<path d="M432.198 211.799C432.949 213.865 441.776 235.182 451.824 259.222C475.958 317.256 510.046 399.33 531.457 450.791C556.905 512.017 579.912 567.328 612.873 646.585C628.931 685.274 645.553 725.279 649.684 735.326C653.91 745.374 657.573 754.014 657.948 754.389C659.169 755.704 691.754 740.304 715.513 727.157C723.589 722.649 726.406 720.583 726.03 719.55C725.749 718.799 684.43 646.961 634.096 559.816C583.856 472.765 517.934 358.575 487.696 306.175C457.458 253.775 432.198 210.203 431.728 209.452C431.165 208.7 431.352 209.733 432.198 211.799Z" fill="#FACC15"/>
<path d="M429.287 213.677C429.756 217.621 450.134 371.252 497.369 726.312C502.534 765.001 506.854 796.835 507.041 797.023C507.605 797.493 528.358 794.112 542.914 791.201C561.413 787.351 582.354 781.904 582.166 780.871C582.072 780.308 577.095 761.526 571.085 739.083C565.075 716.639 555.591 681.143 549.956 660.202C538.688 618.226 518.216 541.692 499.247 470.98C492.486 445.626 480.56 401.302 472.859 372.379C426.658 199.967 428.63 207.198 429.287 213.677Z" fill="#FACC15"/>
<path d="M244.667 441.588C147.38 568.737 66.5269 674.287 65.1183 676.259L62.4889 679.734L73.5698 687.716C88.5948 698.421 126.439 722.649 127.002 721.898C127.096 721.804 171.326 645.176 225.228 551.74C354.162 328.431 421.399 211.987 421.962 211.048C422.15 210.672 422.15 210.391 421.962 210.391C421.774 210.391 341.954 314.439 244.667 441.588Z" fill="#FACC15"/>
<path d="M425.53 215.743C424.779 222.129 403.181 388.343 372.004 627.334C359.89 720.489 350.218 797.023 350.687 797.399C352.284 798.807 397.64 802 416.422 802H426.939V506.195C426.939 343.456 426.751 210.391 426.563 210.391C426.376 210.391 425.906 212.832 425.53 215.743Z" fill="#FACC15"/>
<path d="M381.395 313.5C358.294 369.656 330.779 436.235 320.356 461.59C295.565 521.596 279.131 561.506 256.969 615.127C247.015 639.167 234.526 669.592 229.079 682.739C220.064 704.431 199.217 754.953 198.184 757.488C197.339 759.46 259.88 780.871 268.52 781.622L271.431 781.81L281.009 746.126C286.268 726.499 297.161 685.932 305.143 655.976C338.292 532.395 348.809 493.236 360.266 450.321C366.933 425.53 378.766 381.394 386.56 352.189C417.924 235.182 424.122 211.893 423.841 211.705C423.653 211.518 404.59 257.344 381.395 313.5Z" fill="#FACC15"/>
</g>
<defs>
<clipPath id="clip0_85_171">
<rect width="1202" height="1202" fill="white" transform="translate(-175 -400)"/>
</clipPath>
</defs>
</svg>
