<svg width="852" height="393" viewBox="0 0 852 393" fill="none" xmlns="http://www.w3.org/2000/svg">
<g opacity="0.2">
<g clip-path="url(#clip0_50_917)">
<rect x="747.242" y="-128" width="140" height="140" rx="34.4827" transform="rotate(30 747.242 -128)" fill="#60A5FA"/>
<path d="M781.803 -44.8129C779.278 -40.44 773.686 -38.9417 769.313 -41.4664C764.94 -43.9912 763.442 -49.5828 765.967 -53.9558C768.491 -58.3288 774.083 -59.8271 778.456 -57.3023C782.829 -54.7776 784.327 -49.1859 781.803 -44.8129Z" fill="#3B82F6"/>
<path d="M773.037 -4.12575L735.113 -26.0208C733.924 -26.7073 733.579 -28.3347 734.342 -29.6558C739.136 -37.9598 749.96 -40.6862 764.137 -32.5011C778.314 -24.3161 781.365 -13.5789 776.571 -5.27486C775.808 -3.95376 774.226 -3.43928 773.037 -4.12575Z" fill="#3B82F6"/>
<path d="M790.839 -15.512C792.919 -10.6664 792.216 -1.89635 789.767 2.34419C789.005 3.66529 787.422 4.17976 786.233 3.4933L784.922 2.73624M786.915 -32.7162C790.072 -32.7188 793.142 -34.3584 794.834 -37.2891C796.526 -40.2199 796.411 -43.6981 794.835 -46.4335M735.113 -26.0208L773.037 -4.12575C774.226 -3.43928 775.808 -3.95376 776.571 -5.27486C781.365 -13.5789 778.314 -24.3161 764.137 -32.5011C749.96 -40.6862 739.136 -37.9598 734.342 -29.6558C733.579 -28.3347 733.924 -26.7073 735.113 -26.0208ZM781.803 -44.8129C779.278 -40.44 773.686 -38.9417 769.313 -41.4664C764.94 -43.9912 763.442 -49.5828 765.967 -53.9558C768.491 -58.3288 774.083 -59.8271 778.456 -57.3023C782.829 -54.7776 784.327 -49.1859 781.803 -44.8129Z" stroke="#3B82F6" stroke-width="5" stroke-linecap="round"/>
</g>
<g clip-path="url(#clip1_50_917)">
<rect x="908.323" y="-35" width="140" height="140" rx="34.4827" transform="rotate(30 908.323 -35)" fill="#60A5FA"/>
</g>
<g clip-path="url(#clip2_50_917)">
<rect x="332.081" y="-152.919" width="140" height="140" rx="34.4827" transform="rotate(30 332.081 -152.919)" fill="#60A5FA"/>
</g>
<g clip-path="url(#clip3_50_917)">
<rect x="493.161" y="-59.9193" width="140" height="140" rx="34.4827" transform="rotate(30 493.161 -59.9193)" fill="#60A5FA"/>
<path d="M527.722 23.2677C525.197 27.6407 519.605 29.139 515.232 26.6143C510.859 24.0895 509.361 18.4978 511.886 14.1249C514.411 9.75192 520.002 8.25364 524.375 10.7784C528.748 13.3031 530.247 18.8948 527.722 23.2677Z" fill="#3B82F6"/>
<path d="M518.956 63.9549L481.033 42.0599C479.844 41.3734 479.498 39.746 480.261 38.4249C485.055 30.1208 495.879 27.3945 510.056 35.5796C524.233 43.7646 527.284 54.5018 522.49 62.8058C521.727 64.1269 520.145 64.6414 518.956 63.9549Z" fill="#3B82F6"/>
<path d="M536.758 52.5686C538.838 57.4143 538.135 66.1843 535.686 70.4249C534.924 71.746 533.342 72.2604 532.153 71.574L530.841 70.8169M532.835 35.3645C535.992 35.3619 539.061 33.7223 540.753 30.7915C542.445 27.8608 542.331 24.3826 540.754 21.6472M481.033 42.0599L518.956 63.9549C520.145 64.6414 521.727 64.1269 522.49 62.8058C527.284 54.5018 524.233 43.7646 510.056 35.5796C495.879 27.3945 485.055 30.1208 480.261 38.4249C479.498 39.746 479.844 41.3734 481.033 42.0599ZM527.722 23.2677C525.197 27.6407 519.605 29.139 515.232 26.6143C510.859 24.0895 509.361 18.4978 511.886 14.1249C514.411 9.75192 520.002 8.25364 524.375 10.7784C528.748 13.3031 530.247 18.8948 527.722 23.2677Z" stroke="#3B82F6" stroke-width="5" stroke-linecap="round"/>
</g>
<g clip-path="url(#clip4_50_917)">
<rect x="654.242" y="33.0807" width="140" height="140" rx="34.4827" transform="rotate(30 654.242 33.0807)" fill="#60A5FA"/>
<path d="M688.803 116.268C686.278 120.641 680.686 122.139 676.313 119.614C671.94 117.09 670.442 111.498 672.967 107.125C675.491 102.752 681.083 101.254 685.456 103.778C689.829 106.303 691.327 111.895 688.803 116.268Z" fill="#3B82F6"/>
<path d="M680.037 156.955L642.113 135.06C640.924 134.373 640.579 132.746 641.342 131.425C646.136 123.121 656.96 120.395 671.137 128.58C685.314 136.765 688.365 147.502 683.571 155.806C682.808 157.127 681.226 157.641 680.037 156.955Z" fill="#3B82F6"/>
<path d="M697.839 145.569C699.919 150.414 699.216 159.184 696.767 163.425C696.005 164.746 694.422 165.26 693.233 164.574L691.922 163.817M693.915 128.364C697.072 128.362 700.142 126.722 701.834 123.792C703.526 120.861 703.411 117.383 701.835 114.647M642.113 135.06L680.037 156.955C681.226 157.641 682.808 157.127 683.571 155.806C688.365 147.502 685.314 136.765 671.137 128.58C656.96 120.395 646.136 123.121 641.342 131.425C640.579 132.746 640.924 134.373 642.113 135.06ZM688.803 116.268C686.278 120.641 680.686 122.139 676.313 119.614C671.94 117.09 670.442 111.498 672.967 107.125C675.491 102.752 681.083 101.254 685.456 103.778C689.829 106.303 691.327 111.895 688.803 116.268Z" stroke="#3B82F6" stroke-width="5" stroke-linecap="round"/>
</g>
<g clip-path="url(#clip5_50_917)">
<rect x="815.323" y="126.081" width="140" height="140" rx="34.4827" transform="rotate(30 815.323 126.081)" fill="#60A5FA"/>
<path d="M849.883 209.268C847.359 213.641 841.767 215.139 837.394 212.614C833.021 210.09 831.523 204.498 834.048 200.125C836.572 195.752 842.164 194.254 846.537 196.778C850.91 199.303 852.408 204.895 849.883 209.268Z" fill="#3B82F6"/>
<path d="M841.118 249.955L803.194 228.06C802.005 227.373 801.66 225.746 802.422 224.425C807.217 216.121 818.041 213.395 832.218 221.58C846.395 229.765 849.446 240.502 844.652 248.806C843.889 250.127 842.307 250.641 841.118 249.955Z" fill="#3B82F6"/>
<path d="M858.92 238.569C861 243.414 860.296 252.184 857.848 256.425C857.085 257.746 855.503 258.26 854.314 257.574L853.003 256.817M854.996 221.364C858.153 221.362 861.223 219.722 862.915 216.792C864.607 213.861 864.492 210.383 862.916 207.647M803.194 228.06L841.118 249.955C842.307 250.641 843.889 250.127 844.652 248.806C849.446 240.502 846.395 229.765 832.218 221.58C818.041 213.395 807.217 216.121 802.422 224.425C801.66 225.746 802.005 227.373 803.194 228.06ZM849.883 209.268C847.359 213.641 841.767 215.139 837.394 212.614C833.021 210.09 831.523 204.498 834.048 200.125C836.572 195.752 842.164 194.254 846.537 196.778C850.91 199.303 852.408 204.895 849.883 209.268Z" stroke="#3B82F6" stroke-width="5" stroke-linecap="round"/>
</g>
<g clip-path="url(#clip6_50_917)">
<rect x="78" y="-84.8385" width="140" height="140" rx="34.4827" transform="rotate(30 78 -84.8385)" fill="#60A5FA"/>
<path d="M112.56 -1.65145C110.036 2.72151 104.444 4.2198 100.071 1.69507C95.6981 -0.829661 94.1998 -6.42134 96.7245 -10.7943C99.2492 -15.1673 104.841 -16.6656 109.214 -14.1408C113.587 -11.6161 115.085 -6.02441 112.56 -1.65145Z" fill="#3B82F6"/>
<path d="M103.795 39.0358L65.8713 17.1407C64.6823 16.4542 64.3367 14.8268 65.0995 13.5057C69.8938 5.20165 80.718 2.47533 94.8949 10.6604C109.072 18.8454 112.123 29.5826 107.329 37.8866C106.566 39.2077 104.984 39.7222 103.795 39.0358Z" fill="#3B82F6"/>
<path d="M121.597 27.6495C123.677 32.4951 122.973 41.2651 120.525 45.5057C119.762 46.8268 118.18 47.3413 116.991 46.6548L115.68 45.8977M117.673 10.4453C120.83 10.4427 123.9 8.80312 125.592 5.87236C127.284 2.9416 127.169 -0.536569 125.593 -3.27202M65.8713 17.1407L103.795 39.0358C104.984 39.7222 106.566 39.2077 107.329 37.8866C112.123 29.5826 109.072 18.8454 94.8949 10.6604C80.718 2.47533 69.8938 5.20165 65.0995 13.5057C64.3367 14.8268 64.6823 16.4542 65.8713 17.1407ZM112.56 -1.65145C110.036 2.72151 104.444 4.2198 100.071 1.69507C95.6981 -0.829661 94.1998 -6.42134 96.7245 -10.7943C99.2492 -15.1673 104.841 -16.6656 109.214 -14.1408C113.587 -11.6161 115.085 -6.02441 112.56 -1.65145Z" stroke="#3B82F6" stroke-width="5" stroke-linecap="round"/>
</g>
<g clip-path="url(#clip7_50_917)">
<rect x="239.081" y="8.1615" width="140" height="140" rx="34.4827" transform="rotate(30 239.081 8.1615)" fill="#60A5FA"/>
<path d="M273.641 91.3485C271.116 95.7215 265.525 97.2198 261.152 94.6951C256.779 92.1703 255.281 86.5787 257.805 82.2057C260.33 77.8327 265.922 76.3344 270.295 78.8592C274.668 81.3839 276.166 86.9756 273.641 91.3485Z" fill="#3B82F6"/>
<path d="M264.875 132.036L226.952 110.141C225.763 109.454 225.418 107.827 226.18 106.506C230.975 98.2017 241.799 95.4753 255.976 103.66C270.153 111.845 273.204 122.583 268.409 130.887C267.647 132.208 266.064 132.722 264.875 132.036Z" fill="#3B82F6"/>
<path d="M282.678 120.649C284.758 125.495 284.054 134.265 281.606 138.506C280.843 139.827 279.261 140.341 278.072 139.655L276.761 138.898M278.754 103.445C281.911 103.443 284.981 101.803 286.673 98.8724C288.365 95.9416 288.25 92.4634 286.674 89.728M226.952 110.141L264.875 132.036C266.064 132.722 267.647 132.208 268.409 130.887C273.204 122.583 270.153 111.845 255.976 103.66C241.799 95.4753 230.975 98.2016 226.18 106.506C225.418 107.827 225.763 109.454 226.952 110.141ZM273.641 91.3485C271.116 95.7215 265.525 97.2198 261.152 94.6951C256.779 92.1703 255.281 86.5787 257.805 82.2057C260.33 77.8327 265.922 76.3344 270.295 78.8592C274.668 81.3839 276.166 86.9756 273.641 91.3485Z" stroke="#3B82F6" stroke-width="5" stroke-linecap="round"/>
</g>
<g clip-path="url(#clip8_50_917)">
<rect x="400.161" y="101.161" width="140" height="140" rx="34.4827" transform="rotate(30 400.161 101.161)" fill="#60A5FA"/>
<path d="M434.722 184.349C432.197 188.722 426.605 190.22 422.232 187.695C417.859 185.17 416.361 179.579 418.886 175.206C421.411 170.833 427.002 169.334 431.375 171.859C435.748 174.384 437.247 179.976 434.722 184.349Z" fill="#3B82F6"/>
<path d="M425.956 225.036L388.033 203.141C386.844 202.454 386.498 200.827 387.261 199.506C392.055 191.202 402.879 188.475 417.056 196.66C431.233 204.845 434.284 215.583 429.49 223.887C428.727 225.208 427.145 225.722 425.956 225.036Z" fill="#3B82F6"/>
<path d="M443.758 213.649C445.838 218.495 445.135 227.265 442.686 231.506C441.924 232.827 440.342 233.341 439.153 232.655L437.841 231.898M439.835 196.445C442.992 196.443 446.061 194.803 447.753 191.872C449.445 188.942 449.331 185.463 447.754 182.728M388.033 203.141L425.956 225.036C427.145 225.722 428.727 225.208 429.49 223.887C434.284 215.583 431.233 204.845 417.056 196.66C402.879 188.475 392.055 191.202 387.261 199.506C386.498 200.827 386.844 202.454 388.033 203.141ZM434.722 184.349C432.197 188.722 426.605 190.22 422.232 187.695C417.859 185.17 416.361 179.579 418.886 175.206C421.411 170.833 427.002 169.334 431.375 171.859C435.748 174.384 437.247 179.976 434.722 184.349Z" stroke="#3B82F6" stroke-width="5" stroke-linecap="round"/>
</g>
<g clip-path="url(#clip9_50_917)">
<rect x="561.242" y="194.161" width="140" height="140" rx="34.4827" transform="rotate(30 561.242 194.161)" fill="#60A5FA"/>
<path d="M595.803 277.349C593.278 281.722 587.686 283.22 583.313 280.695C578.94 278.171 577.442 272.579 579.967 268.206C582.491 263.833 588.083 262.335 592.456 264.859C596.829 267.384 598.327 272.976 595.803 277.349Z" fill="#3B82F6"/>
<path d="M587.037 318.036L549.113 296.141C547.924 295.454 547.579 293.827 548.342 292.506C553.136 284.202 563.96 281.476 578.137 289.661C592.314 297.846 595.365 308.583 590.571 316.887C589.808 318.208 588.226 318.722 587.037 318.036Z" fill="#3B82F6"/>
<path d="M604.839 306.65C606.919 311.495 606.216 320.265 603.767 324.506C603.005 325.827 601.422 326.342 600.233 325.655L598.922 324.898M600.915 289.446C604.072 289.443 607.142 287.803 608.834 284.873C610.526 281.942 610.411 278.464 608.835 275.728M549.113 296.141L587.037 318.036C588.226 318.722 589.808 318.208 590.571 316.887C595.365 308.583 592.314 297.846 578.137 289.661C563.96 281.476 553.136 284.202 548.342 292.506C547.579 293.827 547.924 295.454 549.113 296.141ZM595.803 277.349C593.278 281.722 587.686 283.22 583.313 280.695C578.94 278.171 577.442 272.579 579.967 268.206C582.491 263.833 588.083 262.335 592.456 264.859C596.829 267.384 598.327 272.976 595.803 277.349Z" stroke="#3B82F6" stroke-width="5" stroke-linecap="round"/>
</g>
<g clip-path="url(#clip10_50_917)">
<rect x="722.323" y="287.161" width="140" height="140" rx="34.4827" transform="rotate(30 722.323 287.161)" fill="#60A5FA"/>
<path d="M756.883 370.349C754.359 374.722 748.767 376.22 744.394 373.695C740.021 371.17 738.523 365.579 741.048 361.206C743.572 356.833 749.164 355.334 753.537 357.859C757.91 360.384 759.408 365.976 756.883 370.349Z" fill="#3B82F6"/>
<path d="M748.118 411.036L710.194 389.141C709.005 388.454 708.66 386.827 709.422 385.506C714.217 377.202 725.041 374.475 739.218 382.66C753.395 390.845 756.446 401.583 751.652 409.887C750.889 411.208 749.307 411.722 748.118 411.036Z" fill="#3B82F6"/>
<path d="M765.92 399.649C768 404.495 767.296 413.265 764.848 417.506C764.085 418.827 762.503 419.341 761.314 418.655L760.003 417.898M761.996 382.445C765.153 382.443 768.223 380.803 769.915 377.872C771.607 374.942 771.492 371.463 769.916 368.728M710.194 389.141L748.118 411.036C749.307 411.722 750.889 411.208 751.652 409.887C756.446 401.583 753.395 390.845 739.218 382.66C725.041 374.475 714.217 377.202 709.422 385.506C708.66 386.827 709.005 388.454 710.194 389.141ZM756.883 370.349C754.359 374.722 748.767 376.22 744.394 373.695C740.021 371.17 738.523 365.579 741.048 361.206C743.572 356.833 749.164 355.334 753.537 357.859C757.91 360.384 759.408 365.976 756.883 370.349Z" stroke="#3B82F6" stroke-width="5" stroke-linecap="round"/>
</g>
<g clip-path="url(#clip11_50_917)">
<rect x="-15" y="76.2422" width="140" height="140" rx="34.4827" transform="rotate(30 -15 76.2422)" fill="#60A5FA"/>
<path d="M19.5604 159.429C17.0357 163.802 11.444 165.3 7.07103 162.776C2.69807 160.251 1.19978 154.659 3.72451 150.286C6.24924 145.913 11.8409 144.415 16.2139 146.94C20.5868 149.465 22.0851 155.056 19.5604 159.429Z" fill="#3B82F6"/>
<path d="M10.7946 200.116L-27.1287 178.221C-28.3177 177.535 -28.6633 175.907 -27.9005 174.586C-23.1062 166.282 -12.282 163.556 1.89491 171.741C16.0718 179.926 19.1229 190.663 14.3285 198.967C13.5658 200.288 11.9836 200.803 10.7946 200.116Z" fill="#3B82F6"/>
<path d="M28.5968 188.73C30.6771 193.576 29.9734 202.346 27.5251 206.586C26.7623 207.907 25.1802 208.422 23.9912 207.735L22.6799 206.978M24.6732 171.526C27.8303 171.523 30.8999 169.884 32.592 166.953C34.2841 164.022 34.1692 160.544 32.5929 157.809M-27.1287 178.221L10.7946 200.116C11.9836 200.803 13.5658 200.288 14.3285 198.967C19.1229 190.663 16.0718 179.926 1.89491 171.741C-12.282 163.556 -23.1062 166.282 -27.9005 174.586C-28.6633 175.907 -28.3177 177.535 -27.1287 178.221ZM19.5604 159.429C17.0357 163.802 11.444 165.3 7.07103 162.776C2.69807 160.251 1.19978 154.659 3.72451 150.286C6.24924 145.913 11.8409 144.415 16.2139 146.94C20.5868 149.465 22.0851 155.056 19.5604 159.429Z" stroke="#3B82F6" stroke-width="5" stroke-linecap="round"/>
</g>
<g clip-path="url(#clip12_50_917)">
<rect x="146.081" y="169.242" width="140" height="140" rx="34.4827" transform="rotate(30 146.081 169.242)" fill="#60A5FA"/>
<path d="M180.641 252.429C178.116 256.802 172.525 258.301 168.152 255.776C163.779 253.251 162.281 247.659 164.805 243.287C167.33 238.914 172.922 237.415 177.295 239.94C181.668 242.465 183.166 248.056 180.641 252.429Z" fill="#3B82F6"/>
<path d="M171.875 293.117L133.952 271.222C132.763 270.535 132.418 268.908 133.18 267.587C137.975 259.282 148.799 256.556 162.976 264.741C177.153 272.926 180.204 283.663 175.409 291.967C174.647 293.289 173.064 293.803 171.875 293.117Z" fill="#3B82F6"/>
<path d="M189.678 281.73C191.758 286.576 191.054 295.346 188.606 299.586C187.843 300.908 186.261 301.422 185.072 300.736L183.761 299.979M185.754 264.526C188.911 264.523 191.981 262.884 193.673 259.953C195.365 257.022 195.25 253.544 193.674 250.809M133.952 271.222L171.875 293.117C173.064 293.803 174.647 293.289 175.409 291.967C180.204 283.663 177.153 272.926 162.976 264.741C148.799 256.556 137.975 259.282 133.18 267.587C132.418 268.908 132.763 270.535 133.952 271.222ZM180.641 252.429C178.116 256.802 172.525 258.301 168.152 255.776C163.779 253.251 162.281 247.659 164.805 243.287C167.33 238.914 172.922 237.415 177.295 239.94C181.668 242.465 183.166 248.056 180.641 252.429Z" stroke="#3B82F6" stroke-width="5" stroke-linecap="round"/>
</g>
<g clip-path="url(#clip13_50_917)">
<rect x="307.161" y="262.242" width="140" height="140" rx="34.4827" transform="rotate(30 307.161 262.242)" fill="#60A5FA"/>
<path d="M341.722 345.429C339.197 349.802 333.605 351.301 329.232 348.776C324.859 346.251 323.361 340.659 325.886 336.287C328.411 331.914 334.002 330.415 338.375 332.94C342.748 335.465 344.247 341.056 341.722 345.429Z" fill="#3B82F6"/>
<path d="M332.956 386.117L295.033 364.222C293.844 363.535 293.498 361.908 294.261 360.587C299.055 352.282 309.879 349.556 324.056 357.741C338.233 365.926 341.284 376.663 336.49 384.967C335.727 386.289 334.145 386.803 332.956 386.117Z" fill="#3B82F6"/>
<path d="M350.758 374.73C352.838 379.576 352.135 388.346 349.686 392.586C348.924 393.908 347.342 394.422 346.153 393.736L344.841 392.979M346.835 357.526C349.992 357.523 353.061 355.884 354.753 352.953C356.445 350.022 356.331 346.544 354.754 343.809M295.033 364.222L332.956 386.117C334.145 386.803 335.727 386.289 336.49 384.967C341.284 376.663 338.233 365.926 324.056 357.741C309.879 349.556 299.055 352.282 294.261 360.587C293.498 361.908 293.844 363.535 295.033 364.222ZM341.722 345.429C339.197 349.802 333.605 351.301 329.232 348.776C324.859 346.251 323.361 340.659 325.886 336.287C328.411 331.914 334.002 330.415 338.375 332.94C342.748 335.465 344.247 341.056 341.722 345.429Z" stroke="#3B82F6" stroke-width="5" stroke-linecap="round"/>
</g>
<g clip-path="url(#clip14_50_917)">
<rect x="468.242" y="355.242" width="140" height="140" rx="34.4827" transform="rotate(30 468.242 355.242)" fill="#60A5FA"/>
</g>
<g clip-path="url(#clip15_50_917)">
<rect x="-108" y="237.323" width="140" height="140" rx="34.4827" transform="rotate(30 -108 237.323)" fill="#60A5FA"/>
</g>
<g clip-path="url(#clip16_50_917)">
<rect x="53.0808" y="330.323" width="140" height="140" rx="34.4827" transform="rotate(30 53.0808 330.323)" fill="#60A5FA"/>
<path d="M87.6412 413.51C85.1165 417.883 79.5248 419.381 75.1518 416.857C70.7789 414.332 69.2806 408.74 71.8053 404.367C74.3301 399.994 79.9217 398.496 84.2947 401.021C88.6677 403.546 90.1659 409.137 87.6412 413.51Z" fill="#3B82F6"/>
<path d="M78.8754 454.197L40.9521 432.302C39.7631 431.616 39.4175 429.988 40.1803 428.667C44.9746 420.363 55.7988 417.637 69.9757 425.822C84.1526 434.007 87.2037 444.744 82.4093 453.048C81.6466 454.369 80.0644 454.884 78.8754 454.197Z" fill="#3B82F6"/>
<path d="M96.6776 442.811C98.7579 447.657 98.0542 456.427 95.6059 460.667C94.8432 461.988 93.261 462.503 92.072 461.816L90.7607 461.059M92.754 425.607C95.9111 425.604 98.9808 423.965 100.673 421.034C102.365 418.103 102.25 414.625 100.674 411.89M40.9521 432.302L78.8754 454.197C80.0644 454.884 81.6466 454.369 82.4093 453.048C87.2037 444.744 84.1526 434.007 69.9757 425.822C55.7988 417.637 44.9746 420.363 40.1803 428.667C39.4175 429.988 39.7631 431.616 40.9521 432.302ZM87.6412 413.51C85.1165 417.883 79.5248 419.381 75.1518 416.857C70.7789 414.332 69.2806 408.74 71.8053 404.367C74.3301 399.994 79.9217 398.496 84.2947 401.021C88.6677 403.546 90.1659 409.137 87.6412 413.51Z" stroke="#3B82F6" stroke-width="5" stroke-linecap="round"/>
</g>
</g>
<defs>
<clipPath id="clip0_50_917">
<rect x="747.242" y="-128" width="140" height="140" rx="34.4827" transform="rotate(30 747.242 -128)" fill="white"/>
</clipPath>
<clipPath id="clip1_50_917">
<rect x="908.323" y="-35" width="140" height="140" rx="34.4827" transform="rotate(30 908.323 -35)" fill="white"/>
</clipPath>
<clipPath id="clip2_50_917">
<rect x="332.081" y="-152.919" width="140" height="140" rx="34.4827" transform="rotate(30 332.081 -152.919)" fill="white"/>
</clipPath>
<clipPath id="clip3_50_917">
<rect x="493.161" y="-59.9193" width="140" height="140" rx="34.4827" transform="rotate(30 493.161 -59.9193)" fill="white"/>
</clipPath>
<clipPath id="clip4_50_917">
<rect x="654.242" y="33.0807" width="140" height="140" rx="34.4827" transform="rotate(30 654.242 33.0807)" fill="white"/>
</clipPath>
<clipPath id="clip5_50_917">
<rect x="815.323" y="126.081" width="140" height="140" rx="34.4827" transform="rotate(30 815.323 126.081)" fill="white"/>
</clipPath>
<clipPath id="clip6_50_917">
<rect x="78" y="-84.8385" width="140" height="140" rx="34.4827" transform="rotate(30 78 -84.8385)" fill="white"/>
</clipPath>
<clipPath id="clip7_50_917">
<rect x="239.081" y="8.1615" width="140" height="140" rx="34.4827" transform="rotate(30 239.081 8.1615)" fill="white"/>
</clipPath>
<clipPath id="clip8_50_917">
<rect x="400.161" y="101.161" width="140" height="140" rx="34.4827" transform="rotate(30 400.161 101.161)" fill="white"/>
</clipPath>
<clipPath id="clip9_50_917">
<rect x="561.242" y="194.161" width="140" height="140" rx="34.4827" transform="rotate(30 561.242 194.161)" fill="white"/>
</clipPath>
<clipPath id="clip10_50_917">
<rect x="722.323" y="287.161" width="140" height="140" rx="34.4827" transform="rotate(30 722.323 287.161)" fill="white"/>
</clipPath>
<clipPath id="clip11_50_917">
<rect x="-15" y="76.2422" width="140" height="140" rx="34.4827" transform="rotate(30 -15 76.2422)" fill="white"/>
</clipPath>
<clipPath id="clip12_50_917">
<rect x="146.081" y="169.242" width="140" height="140" rx="34.4827" transform="rotate(30 146.081 169.242)" fill="white"/>
</clipPath>
<clipPath id="clip13_50_917">
<rect x="307.161" y="262.242" width="140" height="140" rx="34.4827" transform="rotate(30 307.161 262.242)" fill="white"/>
</clipPath>
<clipPath id="clip14_50_917">
<rect x="468.242" y="355.242" width="140" height="140" rx="34.4827" transform="rotate(30 468.242 355.242)" fill="white"/>
</clipPath>
<clipPath id="clip15_50_917">
<rect x="-108" y="237.323" width="140" height="140" rx="34.4827" transform="rotate(30 -108 237.323)" fill="white"/>
</clipPath>
<clipPath id="clip16_50_917">
<rect x="53.0808" y="330.323" width="140" height="140" rx="34.4827" transform="rotate(30 53.0808 330.323)" fill="white"/>
</clipPath>
</defs>
</svg>
