<svg width="852" height="393" viewBox="0 0 852 393" fill="none" xmlns="http://www.w3.org/2000/svg">
<g opacity="0.2">
<g clip-path="url(#clip0_47_1211)">
<rect x="747.242" y="-128" width="140" height="140" rx="34.4827" transform="rotate(30 747.242 -128)" fill="#A78BFA"/>
<path d="M743.863 -14.4809C742.943 -12.8866 743.489 -10.8479 745.083 -9.92747L768.177 3.40586C769.772 4.32633 771.81 3.78008 772.731 2.18577C774.564 -0.989653 773.466 -5.08773 770.291 -6.92106L752.97 -16.9211C749.795 -18.7544 745.697 -17.6563 743.863 -14.4809Z" fill="#8B5CF6" stroke="#8B5CF6" stroke-width="5" stroke-miterlimit="10"/>
</g>
<g clip-path="url(#clip1_47_1211)">
<rect x="908.323" y="-35" width="140" height="140" rx="34.4827" transform="rotate(30 908.323 -35)" fill="#A78BFA"/>
</g>
<g clip-path="url(#clip2_47_1211)">
<rect x="332.081" y="-152.919" width="140" height="140" rx="34.4827" transform="rotate(30 332.081 -152.919)" fill="#A78BFA"/>
</g>
<g clip-path="url(#clip3_47_1211)">
<rect x="493.161" y="-59.9193" width="140" height="140" rx="34.4827" transform="rotate(30 493.161 -59.9193)" fill="#A78BFA"/>
<path d="M511.716 48.9427L508.216 55.0049" stroke="#8B5CF6" stroke-width="5" stroke-linecap="round" stroke-linejoin="round"/>
<path d="M489.782 53.5998C488.862 55.1941 489.408 57.2327 491.002 58.1532L514.096 71.4865C515.691 72.407 517.729 71.8608 518.65 70.2665C520.483 67.091 519.385 62.993 516.21 61.1596L498.889 51.1596C495.714 49.3263 491.616 50.4244 489.782 53.5998Z" fill="#8B5CF6" stroke="#8B5CF6" stroke-width="5" stroke-miterlimit="10"/>
<path d="M512.116 47.2494C500.945 40.7994 497.126 26.5472 503.576 15.3755L508.576 6.71522C512.259 0.335498 520.41 -1.84845 526.789 1.83488L544.11 11.8349C550.49 15.5182 552.674 23.6688 548.99 30.0486L543.99 38.7088C537.54 49.8805 523.288 53.6994 512.116 47.2494Z" fill="#8B5CF6" stroke="#8B5CF6" stroke-width="5" stroke-linecap="round" stroke-linejoin="round"/>
<path d="M500.516 23.8087C498.751 21.8659 497.579 19.4958 496.944 17.128C496.013 12.7412 496.281 8.27713 498.614 4.23568C500.948 0.194225 505.956 -1.14787 509.998 1.18547L511.874 2.2688C510.53 3.26337 509.392 4.56895 508.508 6.09893L503.508 14.7592C501.842 17.6459 500.881 20.7095 500.516 23.8087Z" fill="#8B5CF6" stroke="#8B5CF6" stroke-width="5" stroke-linecap="round" stroke-linejoin="round"/>
<path d="M538.217 45.5754C540.782 46.1325 543.421 45.9624 545.788 45.3279C550.053 43.9412 553.785 41.4771 556.118 37.4356C558.452 33.3942 557.11 28.3854 553.068 26.0521L551.192 24.9687C551.003 26.63 550.441 28.2689 549.558 29.7989L544.558 38.4591C542.891 41.3459 540.718 43.7094 538.217 45.5754Z" fill="#8B5CF6" stroke="#8B5CF6" stroke-width="5" stroke-linecap="round" stroke-linejoin="round"/>
</g>
<g clip-path="url(#clip4_47_1211)">
<rect x="654.242" y="33.0807" width="140" height="140" rx="34.4827" transform="rotate(30 654.242 33.0807)" fill="#A78BFA"/>
<path d="M672.797 141.943L669.297 148.005" stroke="#8B5CF6" stroke-width="5" stroke-linecap="round" stroke-linejoin="round"/>
<path d="M650.863 146.6C649.943 148.194 650.489 150.233 652.083 151.153L675.177 164.487C676.772 165.407 678.81 164.861 679.731 163.266C681.564 160.091 680.466 155.993 677.291 154.16L659.97 144.16C656.795 142.326 652.697 143.424 650.863 146.6Z" fill="#8B5CF6" stroke="#8B5CF6" stroke-width="5" stroke-miterlimit="10"/>
<path d="M673.197 140.249C662.025 133.799 658.207 119.547 664.657 108.375L669.657 99.7152C673.34 93.3355 681.491 91.1515 687.87 94.8349L705.191 104.835C711.57 108.518 713.754 116.669 710.071 123.049L705.071 131.709C698.621 142.881 684.369 146.699 673.197 140.249Z" fill="#8B5CF6" stroke="#8B5CF6" stroke-width="5" stroke-linecap="round" stroke-linejoin="round"/>
<path d="M661.597 116.809C659.832 114.866 658.66 112.496 658.025 110.128C657.094 105.741 657.362 101.277 659.695 97.2357C662.028 93.1942 667.037 91.8521 671.079 94.1855L672.955 95.2688C671.611 96.2634 670.472 97.5689 669.589 99.0989L664.589 107.759C662.922 110.646 661.962 113.709 661.597 116.809Z" fill="#8B5CF6" stroke="#8B5CF6" stroke-width="5" stroke-linecap="round" stroke-linejoin="round"/>
<path d="M699.298 138.575C701.863 139.133 704.501 138.962 706.869 138.328C711.134 136.941 714.866 134.477 717.199 130.436C719.533 126.394 718.19 121.385 714.149 119.052L712.273 117.969C712.083 119.63 711.522 121.269 710.639 122.799L705.639 131.459C703.972 134.346 701.799 136.709 699.298 138.575Z" fill="#8B5CF6" stroke="#8B5CF6" stroke-width="5" stroke-linecap="round" stroke-linejoin="round"/>
</g>
<g clip-path="url(#clip5_47_1211)">
<rect x="815.323" y="126.081" width="140" height="140" rx="34.4827" transform="rotate(30 815.323 126.081)" fill="#A78BFA"/>
<path d="M833.878 234.943L830.378 241.005" stroke="#8B5CF6" stroke-width="5" stroke-linecap="round" stroke-linejoin="round"/>
<path d="M811.944 239.6C811.024 241.194 811.57 243.233 813.164 244.153L836.258 257.487C837.852 258.407 839.891 257.861 840.812 256.266C842.645 253.091 841.547 248.993 838.371 247.16L821.051 237.16C817.875 235.326 813.777 236.424 811.944 239.6Z" fill="#8B5CF6" stroke="#8B5CF6" stroke-width="5" stroke-miterlimit="10"/>
<path d="M834.278 233.249C823.106 226.799 819.287 212.547 825.737 201.375L830.737 192.715C834.421 186.335 842.571 184.152 848.951 187.835L866.272 197.835C872.651 201.518 874.835 209.669 871.152 216.049L866.152 224.709C859.702 235.881 845.45 239.699 834.278 233.249Z" fill="#8B5CF6" stroke="#8B5CF6" stroke-width="5" stroke-linecap="round" stroke-linejoin="round"/>
<path d="M822.678 209.809C820.912 207.866 819.741 205.496 819.106 203.128C818.175 198.741 818.443 194.277 820.776 190.236C823.109 186.194 828.118 184.852 832.16 187.185L834.036 188.269C832.692 189.263 831.553 190.569 830.67 192.099L825.67 200.759C824.003 203.646 823.043 206.709 822.678 209.809Z" fill="#8B5CF6" stroke="#8B5CF6" stroke-width="5" stroke-linecap="round" stroke-linejoin="round"/>
</g>
<g clip-path="url(#clip6_47_1211)">
<rect x="78" y="-84.8385" width="140" height="140" rx="34.4827" transform="rotate(30 78 -84.8385)" fill="#A78BFA"/>
<path d="M96.5547 24.0236L93.0547 30.0857" stroke="#8B5CF6" stroke-width="5" stroke-linecap="round" stroke-linejoin="round"/>
<path d="M74.621 28.6806C73.7005 30.2749 74.2468 32.3136 75.8411 33.234L98.9351 46.5674C100.529 47.4878 102.568 46.9416 103.489 45.3473C105.322 42.1718 104.224 38.0738 101.048 36.2404L83.7278 26.2404C80.5524 24.4071 76.4543 25.5052 74.621 28.6806Z" fill="#8B5CF6" stroke="#8B5CF6" stroke-width="5" stroke-miterlimit="10"/>
<path d="M96.955 22.3302C85.7833 15.8802 81.9644 1.62801 88.4144 -9.54372L93.4144 -18.204C97.0977 -24.5837 105.248 -26.7676 111.628 -23.0843L128.949 -13.0843C135.328 -9.40098 137.512 -1.25036 133.829 5.12936L128.829 13.7896C122.379 24.9613 108.127 28.7802 96.955 22.3302Z" fill="#8B5CF6" stroke="#8B5CF6" stroke-width="5" stroke-linecap="round" stroke-linejoin="round"/>
<path d="M85.3545 -1.11044C83.5895 -3.05326 82.4175 -5.42343 81.7831 -7.79121C80.8517 -12.178 81.1196 -16.6421 83.453 -20.6835C85.7863 -24.725 90.7951 -26.0671 94.8365 -23.7337L96.7129 -22.6504C95.3689 -21.6558 94.2302 -20.3502 93.3469 -18.8203L88.3469 -10.16C86.6802 -7.27326 85.7198 -4.20971 85.3545 -1.11044Z" fill="#8B5CF6" stroke="#8B5CF6" stroke-width="5" stroke-linecap="round" stroke-linejoin="round"/>
<path d="M123.056 20.6562C125.621 21.2133 128.259 21.0432 130.627 20.4087C134.892 19.022 138.624 16.5579 140.957 12.5164C143.29 8.47498 141.948 3.46622 137.907 1.13288L136.03 0.0495504C135.841 1.71079 135.28 3.3497 134.396 4.87968L129.396 13.5399C127.73 16.4267 125.557 18.7902 123.056 20.6562Z" fill="#8B5CF6" stroke="#8B5CF6" stroke-width="5" stroke-linecap="round" stroke-linejoin="round"/>
</g>
<g clip-path="url(#clip7_47_1211)">
<rect x="239.081" y="8.1615" width="140" height="140" rx="34.4827" transform="rotate(30 239.081 8.1615)" fill="#A78BFA"/>
<path d="M257.635 117.024L254.135 123.086" stroke="#8B5CF6" stroke-width="5" stroke-linecap="round" stroke-linejoin="round"/>
<path d="M235.702 121.681C234.781 123.275 235.328 125.314 236.922 126.234L260.016 139.567C261.61 140.488 263.649 139.942 264.569 138.347C266.403 135.172 265.305 131.074 262.129 129.24L244.809 119.24C241.633 117.407 237.535 118.505 235.702 121.681Z" fill="#8B5CF6" stroke="#8B5CF6" stroke-width="5" stroke-miterlimit="10"/>
<path d="M258.036 115.33C246.864 108.88 243.045 94.628 249.495 83.4563L254.495 74.796C258.179 68.4163 266.329 66.2324 272.709 69.9157L290.029 79.9157C296.409 83.599 298.593 91.7496 294.91 98.1294L289.91 106.79C283.46 117.961 269.208 121.78 258.036 115.33Z" fill="#8B5CF6" stroke="#8B5CF6" stroke-width="5" stroke-linecap="round" stroke-linejoin="round"/>
<path d="M246.435 91.8896C244.67 89.9467 243.498 87.5766 242.864 85.2088C241.932 80.822 242.2 76.3579 244.534 72.3165C246.867 68.275 251.876 66.9329 255.917 69.2663L257.794 70.3496C256.45 71.3442 255.311 72.6498 254.428 74.1797L249.428 82.84C247.761 85.7267 246.801 88.7903 246.435 91.8896Z" fill="#8B5CF6" stroke="#8B5CF6" stroke-width="5" stroke-linecap="round" stroke-linejoin="round"/>
<path d="M284.136 113.656C286.701 114.213 289.34 114.043 291.708 113.409C295.972 112.022 299.705 109.558 302.038 105.516C304.371 101.475 303.029 96.4662 298.988 94.1329L297.111 93.0496C296.922 94.7108 296.361 96.3497 295.477 97.8797L290.477 106.54C288.811 109.427 286.638 111.79 284.136 113.656Z" fill="#8B5CF6" stroke="#8B5CF6" stroke-width="5" stroke-linecap="round" stroke-linejoin="round"/>
</g>
<g clip-path="url(#clip8_47_1211)">
<rect x="400.161" y="101.161" width="140" height="140" rx="34.4827" transform="rotate(30 400.161 101.161)" fill="#A78BFA"/>
<path d="M418.716 210.024L415.216 216.086" stroke="#8B5CF6" stroke-width="5" stroke-linecap="round" stroke-linejoin="round"/>
<path d="M396.782 214.681C395.862 216.275 396.408 218.314 398.002 219.234L421.096 232.567C422.691 233.488 424.729 232.942 425.65 231.347C427.483 228.172 426.385 224.074 423.21 222.24L405.889 212.24C402.714 210.407 398.616 211.505 396.782 214.681Z" fill="#8B5CF6" stroke="#8B5CF6" stroke-width="5" stroke-miterlimit="10"/>
<path d="M419.116 208.33C407.945 201.88 404.126 187.628 410.576 176.456L415.576 167.796C419.259 161.416 427.41 159.232 433.789 162.916L451.11 172.916C457.49 176.599 459.674 184.75 455.99 191.129L450.99 199.79C444.54 210.961 430.288 214.78 419.116 208.33Z" fill="#8B5CF6" stroke="#8B5CF6" stroke-width="5" stroke-linecap="round" stroke-linejoin="round"/>
<path d="M407.516 184.89C405.751 182.947 404.579 180.577 403.944 178.209C403.013 173.822 403.281 169.358 405.614 165.316C407.948 161.275 412.956 159.933 416.998 162.266L418.874 163.35C417.53 164.344 416.392 165.65 415.508 167.18L410.508 175.84C408.842 178.727 407.881 181.79 407.516 184.89Z" fill="#8B5CF6" stroke="#8B5CF6" stroke-width="5" stroke-linecap="round" stroke-linejoin="round"/>
<path d="M445.217 206.656C447.782 207.213 450.421 207.043 452.788 206.409C457.053 205.022 460.785 202.558 463.118 198.516C465.452 194.475 464.11 189.466 460.068 187.133L458.192 186.05C458.003 187.711 457.441 189.35 456.558 190.88L451.558 199.54C449.891 202.427 447.718 204.79 445.217 206.656Z" fill="#8B5CF6" stroke="#8B5CF6" stroke-width="5" stroke-linecap="round" stroke-linejoin="round"/>
</g>
<g clip-path="url(#clip9_47_1211)">
<rect x="561.242" y="194.161" width="140" height="140" rx="34.4827" transform="rotate(30 561.242 194.161)" fill="#A78BFA"/>
<path d="M579.797 303.024L576.297 309.086" stroke="#8B5CF6" stroke-width="5" stroke-linecap="round" stroke-linejoin="round"/>
<path d="M557.863 307.681C556.943 309.275 557.489 311.314 559.083 312.234L582.177 325.567C583.772 326.488 585.81 325.942 586.731 324.347C588.564 321.172 587.466 317.074 584.291 315.24L566.97 305.24C563.795 303.407 559.697 304.505 557.863 307.681Z" fill="#8B5CF6" stroke="#8B5CF6" stroke-width="5" stroke-miterlimit="10"/>
<path d="M580.197 301.33C569.025 294.88 565.207 280.628 571.657 269.456L576.657 260.796C580.34 254.416 588.491 252.232 594.87 255.916L612.191 265.916C618.57 269.599 620.754 277.75 617.071 284.129L612.071 292.79C605.621 303.961 591.369 307.78 580.197 301.33Z" fill="#8B5CF6" stroke="#8B5CF6" stroke-width="5" stroke-linecap="round" stroke-linejoin="round"/>
<path d="M568.597 277.89C566.832 275.947 565.66 273.577 565.025 271.209C564.094 266.822 564.362 262.358 566.695 258.316C569.028 254.275 574.037 252.933 578.079 255.266L579.955 256.35C578.611 257.344 577.472 258.65 576.589 260.18L571.589 268.84C569.922 271.727 568.962 274.79 568.597 277.89Z" fill="#8B5CF6" stroke="#8B5CF6" stroke-width="5" stroke-linecap="round" stroke-linejoin="round"/>
<path d="M606.298 299.656C608.863 300.213 611.501 300.043 613.869 299.409C618.134 298.022 621.866 295.558 624.199 291.516C626.533 287.475 625.19 282.466 621.149 280.133L619.273 279.05C619.083 280.711 618.522 282.35 617.639 283.88L612.639 292.54C610.972 295.427 608.799 297.79 606.298 299.656Z" fill="#8B5CF6" stroke="#8B5CF6" stroke-width="5" stroke-linecap="round" stroke-linejoin="round"/>
</g>
<g clip-path="url(#clip10_47_1211)">
<rect x="722.323" y="287.161" width="140" height="140" rx="34.4827" transform="rotate(30 722.323 287.161)" fill="#A78BFA"/>
<path d="M740.878 396.024L737.378 402.086" stroke="#8B5CF6" stroke-width="5" stroke-linecap="round" stroke-linejoin="round"/>
<path d="M718.944 400.681C718.024 402.275 718.57 404.314 720.164 405.234L743.258 418.567C744.852 419.488 746.891 418.942 747.812 417.347C749.645 414.172 748.547 410.074 745.371 408.24L728.051 398.24C724.875 396.407 720.777 397.505 718.944 400.681Z" fill="#8B5CF6" stroke="#8B5CF6" stroke-width="5" stroke-miterlimit="10"/>
<path d="M741.278 394.33C730.106 387.88 726.287 373.628 732.737 362.456L737.737 353.796C741.421 347.416 749.571 345.232 755.951 348.916L773.272 358.916C779.651 362.599 781.835 370.75 778.152 377.129L773.152 385.79C766.702 396.961 752.45 400.78 741.278 394.33Z" fill="#8B5CF6" stroke="#8B5CF6" stroke-width="5" stroke-linecap="round" stroke-linejoin="round"/>
<path d="M729.678 370.89C727.912 368.947 726.741 366.577 726.106 364.209C725.175 359.822 725.443 355.358 727.776 351.316C730.109 347.275 735.118 345.933 739.16 348.266L741.036 349.35C739.692 350.344 738.553 351.65 737.67 353.18L732.67 361.84C731.003 364.727 730.043 367.79 729.678 370.89Z" fill="#8B5CF6" stroke="#8B5CF6" stroke-width="5" stroke-linecap="round" stroke-linejoin="round"/>
<path d="M767.378 392.656C769.944 393.213 772.582 393.043 774.95 392.409C779.215 391.022 782.947 388.558 785.28 384.516C787.613 380.475 786.271 375.466 782.23 373.133L780.353 372.05C780.164 373.711 779.603 375.35 778.719 376.88L773.719 385.54C772.053 388.427 769.88 390.79 767.378 392.656Z" fill="#8B5CF6" stroke="#8B5CF6" stroke-width="5" stroke-linecap="round" stroke-linejoin="round"/>
</g>
<g clip-path="url(#clip11_47_1211)">
<rect x="-15" y="76.2422" width="140" height="140" rx="34.4827" transform="rotate(30 -15 76.2422)" fill="#A78BFA"/>
<path d="M3.55469 185.104L0.0546867 191.166" stroke="#8B5CF6" stroke-width="5" stroke-linecap="round" stroke-linejoin="round"/>
<path d="M-18.379 189.761C-19.2995 191.356 -18.7532 193.394 -17.1589 194.315L5.93511 207.648C7.52942 208.569 9.56805 208.022 10.4885 206.428C12.3219 203.253 11.2238 199.154 8.04835 197.321L-9.27215 187.321C-12.4476 185.488 -16.5457 186.586 -18.379 189.761Z" fill="#8B5CF6" stroke="#8B5CF6" stroke-width="5" stroke-miterlimit="10"/>
<path d="M3.95498 183.411C-7.21675 176.961 -11.0356 162.709 -4.58561 151.537L0.414388 142.877C4.09772 136.497 12.2483 134.313 18.6281 137.996L35.9486 147.996C42.3283 151.68 44.5122 159.83 40.8289 166.21L35.8289 174.87C29.3789 186.042 15.1267 189.861 3.95498 183.411Z" fill="#8B5CF6" stroke="#8B5CF6" stroke-width="5" stroke-linecap="round" stroke-linejoin="round"/>
<path d="M-7.64548 159.97C-9.41054 158.027 -10.5825 155.657 -11.2169 153.289C-12.1483 148.903 -11.8804 144.439 -9.54704 140.397C-7.2137 136.356 -2.20494 135.014 1.83651 137.347L3.7129 138.43C2.36888 139.425 1.2302 140.73 0.346869 142.26L-4.65313 150.921C-6.3198 153.807 -7.28025 156.871 -7.64548 159.97Z" fill="#8B5CF6" stroke="#8B5CF6" stroke-width="5" stroke-linecap="round" stroke-linejoin="round"/>
<path d="M30.0555 181.737C32.6206 182.294 35.2591 182.124 37.6269 181.489C41.8917 180.103 45.6237 177.639 47.9571 173.597C50.2904 169.556 48.9483 164.547 44.9068 162.214L43.0305 161.13C42.8411 162.791 42.2798 164.43 41.3965 165.96L36.3965 174.621C34.7298 177.507 32.5569 179.871 30.0555 181.737Z" fill="#8B5CF6" stroke="#8B5CF6" stroke-width="5" stroke-linecap="round" stroke-linejoin="round"/>
</g>
<g clip-path="url(#clip12_47_1211)">
<rect x="146.081" y="169.242" width="140" height="140" rx="34.4827" transform="rotate(30 146.081 169.242)" fill="#A78BFA"/>
<path d="M164.635 278.104L161.135 284.166" stroke="#8B5CF6" stroke-width="5" stroke-linecap="round" stroke-linejoin="round"/>
<path d="M142.702 282.761C141.781 284.356 142.328 286.394 143.922 287.315L167.016 300.648C168.61 301.569 170.649 301.022 171.569 299.428C173.403 296.253 172.305 292.154 169.129 290.321L151.809 280.321C148.633 278.488 144.535 279.586 142.702 282.761Z" fill="#8B5CF6" stroke="#8B5CF6" stroke-width="5" stroke-miterlimit="10"/>
<path d="M165.036 276.411C153.864 269.961 150.045 255.709 156.495 244.537L161.495 235.877C165.179 229.497 173.329 227.313 179.709 230.996L197.029 240.996C203.409 244.68 205.593 252.83 201.91 259.21L196.91 267.87C190.46 279.042 176.208 282.861 165.036 276.411Z" fill="#8B5CF6" stroke="#8B5CF6" stroke-width="5" stroke-linecap="round" stroke-linejoin="round"/>
<path d="M153.435 252.97C151.67 251.027 150.498 248.657 149.864 246.289C148.932 241.903 149.2 237.439 151.534 233.397C153.867 229.356 158.876 228.014 162.917 230.347L164.794 231.43C163.45 232.425 162.311 233.73 161.428 235.26L156.428 243.921C154.761 246.807 153.801 249.871 153.435 252.97Z" fill="#8B5CF6" stroke="#8B5CF6" stroke-width="5" stroke-linecap="round" stroke-linejoin="round"/>
<path d="M191.136 274.737C193.701 275.294 196.34 275.124 198.708 274.489C202.972 273.103 206.705 270.639 209.038 266.597C211.371 262.556 210.029 257.547 205.988 255.214L204.111 254.13C203.922 255.791 203.361 257.43 202.477 258.96L197.477 267.621C195.811 270.507 193.638 272.871 191.136 274.737Z" fill="#8B5CF6" stroke="#8B5CF6" stroke-width="5" stroke-linecap="round" stroke-linejoin="round"/>
</g>
<g clip-path="url(#clip13_47_1211)">
<rect x="307.161" y="262.242" width="140" height="140" rx="34.4827" transform="rotate(30 307.161 262.242)" fill="#A78BFA"/>
<path d="M325.716 371.104L322.216 377.166" stroke="#8B5CF6" stroke-width="5" stroke-linecap="round" stroke-linejoin="round"/>
<path d="M303.782 375.761C302.862 377.356 303.408 379.394 305.002 380.315L328.096 393.648C329.691 394.569 331.729 394.022 332.65 392.428C334.483 389.253 333.385 385.154 330.21 383.321L312.889 373.321C309.714 371.488 305.616 372.586 303.782 375.761Z" fill="#8B5CF6" stroke="#8B5CF6" stroke-width="5" stroke-miterlimit="10"/>
<path d="M326.116 369.411C314.945 362.961 311.126 348.709 317.576 337.537L322.576 328.877C326.259 322.497 334.41 320.313 340.789 323.996L358.11 333.996C364.49 337.68 366.674 345.83 362.99 352.21L357.99 360.87C351.54 372.042 337.288 375.861 326.116 369.411Z" fill="#8B5CF6" stroke="#8B5CF6" stroke-width="5" stroke-linecap="round" stroke-linejoin="round"/>
<path d="M314.516 345.97C312.751 344.027 311.579 341.657 310.944 339.289C310.013 334.903 310.281 330.439 312.614 326.397C314.948 322.356 319.956 321.014 323.998 323.347L325.874 324.43C324.53 325.425 323.392 326.73 322.508 328.26L317.508 336.921C315.842 339.807 314.881 342.871 314.516 345.97Z" fill="#8B5CF6" stroke="#8B5CF6" stroke-width="5" stroke-linecap="round" stroke-linejoin="round"/>
<path d="M352.217 367.737C354.782 368.294 357.421 368.124 359.788 367.489C364.053 366.103 367.785 363.639 370.118 359.597C372.452 355.556 371.11 350.547 367.068 348.214L365.192 347.13C365.003 348.791 364.441 350.43 363.558 351.96L358.558 360.621C356.891 363.507 354.718 365.871 352.217 367.737Z" fill="#8B5CF6" stroke="#8B5CF6" stroke-width="5" stroke-linecap="round" stroke-linejoin="round"/>
</g>
<g clip-path="url(#clip14_47_1211)">
<rect x="468.242" y="355.242" width="140" height="140" rx="34.4827" transform="rotate(30 468.242 355.242)" fill="#A78BFA"/>
</g>
<g clip-path="url(#clip15_47_1211)">
<rect x="-108" y="237.323" width="140" height="140" rx="34.4827" transform="rotate(30 -108 237.323)" fill="#A78BFA"/>
</g>
<g clip-path="url(#clip16_47_1211)">
<rect x="53.0808" y="330.323" width="140" height="140" rx="34.4827" transform="rotate(30 53.0808 330.323)" fill="#A78BFA"/>
<path d="M72.0358 437.492C60.8641 431.042 57.0452 416.789 63.4952 405.618L68.4952 396.957C72.1785 390.578 80.3292 388.394 86.7089 392.077L104.029 402.077C110.409 405.76 112.593 413.911 108.91 420.291L103.91 428.951C97.4597 440.123 83.2075 443.942 72.0358 437.492Z" fill="#8B5CF6" stroke="#8B5CF6" stroke-width="5" stroke-linecap="round" stroke-linejoin="round"/>
<path d="M60.4353 414.051C58.6703 412.108 57.4983 409.738 56.8639 407.37C55.9325 402.983 56.2004 398.519 58.5338 394.478C60.8671 390.436 65.8759 389.094 69.9173 391.428L71.7937 392.511C70.4497 393.506 69.311 394.811 68.4277 396.341L63.4277 405.001C61.761 407.888 60.8006 410.952 60.4353 414.051Z" fill="#8B5CF6" stroke="#8B5CF6" stroke-width="5" stroke-linecap="round" stroke-linejoin="round"/>
</g>
</g>
<defs>
<clipPath id="clip0_47_1211">
<rect x="747.242" y="-128" width="140" height="140" rx="34.4827" transform="rotate(30 747.242 -128)" fill="white"/>
</clipPath>
<clipPath id="clip1_47_1211">
<rect x="908.323" y="-35" width="140" height="140" rx="34.4827" transform="rotate(30 908.323 -35)" fill="white"/>
</clipPath>
<clipPath id="clip2_47_1211">
<rect x="332.081" y="-152.919" width="140" height="140" rx="34.4827" transform="rotate(30 332.081 -152.919)" fill="white"/>
</clipPath>
<clipPath id="clip3_47_1211">
<rect x="493.161" y="-59.9193" width="140" height="140" rx="34.4827" transform="rotate(30 493.161 -59.9193)" fill="white"/>
</clipPath>
<clipPath id="clip4_47_1211">
<rect x="654.242" y="33.0807" width="140" height="140" rx="34.4827" transform="rotate(30 654.242 33.0807)" fill="white"/>
</clipPath>
<clipPath id="clip5_47_1211">
<rect x="815.323" y="126.081" width="140" height="140" rx="34.4827" transform="rotate(30 815.323 126.081)" fill="white"/>
</clipPath>
<clipPath id="clip6_47_1211">
<rect x="78" y="-84.8385" width="140" height="140" rx="34.4827" transform="rotate(30 78 -84.8385)" fill="white"/>
</clipPath>
<clipPath id="clip7_47_1211">
<rect x="239.081" y="8.1615" width="140" height="140" rx="34.4827" transform="rotate(30 239.081 8.1615)" fill="white"/>
</clipPath>
<clipPath id="clip8_47_1211">
<rect x="400.161" y="101.161" width="140" height="140" rx="34.4827" transform="rotate(30 400.161 101.161)" fill="white"/>
</clipPath>
<clipPath id="clip9_47_1211">
<rect x="561.242" y="194.161" width="140" height="140" rx="34.4827" transform="rotate(30 561.242 194.161)" fill="white"/>
</clipPath>
<clipPath id="clip10_47_1211">
<rect x="722.323" y="287.161" width="140" height="140" rx="34.4827" transform="rotate(30 722.323 287.161)" fill="white"/>
</clipPath>
<clipPath id="clip11_47_1211">
<rect x="-15" y="76.2422" width="140" height="140" rx="34.4827" transform="rotate(30 -15 76.2422)" fill="white"/>
</clipPath>
<clipPath id="clip12_47_1211">
<rect x="146.081" y="169.242" width="140" height="140" rx="34.4827" transform="rotate(30 146.081 169.242)" fill="white"/>
</clipPath>
<clipPath id="clip13_47_1211">
<rect x="307.161" y="262.242" width="140" height="140" rx="34.4827" transform="rotate(30 307.161 262.242)" fill="white"/>
</clipPath>
<clipPath id="clip14_47_1211">
<rect x="468.242" y="355.242" width="140" height="140" rx="34.4827" transform="rotate(30 468.242 355.242)" fill="white"/>
</clipPath>
<clipPath id="clip15_47_1211">
<rect x="-108" y="237.323" width="140" height="140" rx="34.4827" transform="rotate(30 -108 237.323)" fill="white"/>
</clipPath>
<clipPath id="clip16_47_1211">
<rect x="53.0808" y="330.323" width="140" height="140" rx="34.4827" transform="rotate(30 53.0808 330.323)" fill="white"/>
</clipPath>
</defs>
</svg>
