<svg width="650" height="320" viewBox="0 0 650 320" fill="none" xmlns="http://www.w3.org/2000/svg">
<path opacity="0.3" d="M-168 160C82.8933 -42.6667 123.36 -42.6667 -46.6 160C-216.56 362.667 -176.093 362.667 74.8 160C325.693 -42.6667 366.16 -42.6667 196.2 160C26.24 362.667 66.7067 362.667 317.6 160C568.493 -42.6667 608.96 -42.6667 439 160C269.04 362.667 309.507 362.667 560.4 160C811.293 -42.6667 851.76 -42.6667 681.8 160C511.84 362.667 552.307 362.667 803.2 160C1054.09 -42.6667 1094.56 -42.6667 924.6 160C754.64 362.667 795.107 362.667 1046 160" stroke="#FB923C" stroke-width="106"/>
</svg>
