<svg width="852" height="393" viewBox="0 0 852 393" fill="none" xmlns="http://www.w3.org/2000/svg">
<path d="M-462 184.5C-157.462 -61.5 -108.343 -61.5 -314.643 184.5C-520.943 430.5 -471.824 430.5 -167.286 184.5C137.253 -61.5 186.372 -61.5 -19.9283 184.5C-226.228 430.5 -177.109 430.5 127.429 184.5C431.967 -61.5 481.086 -61.5 274.786 184.5C68.486 430.5 117.605 430.5 422.143 184.5C726.682 -61.5 775.801 -61.5 569.501 184.5C363.201 430.5 412.32 430.5 716.858 184.5C1021.4 -61.5 1070.52 -61.5 864.215 184.5C657.915 430.5 707.034 430.5 1011.57 184.5" stroke="url(#paint0_linear_5_7)" stroke-width="128.664"/>
<g opacity="0.3" clip-path="url(#clip0_5_7)">
<path d="M-1775.53 -926.171C-1772.77 -923.756 -1514.01 -729.872 -1201.1 -495.624C-887.832 -261.376 -434.153 78.094 -192.65 258.869C48.8519 439.643 247.574 586.954 248.264 585.919C249.299 585.229 -107.435 305.097 -544.554 -36.0976C-981.673 -377.292 -1418.1 -718.487 -1514.7 -793.695L-1690.31 -931.001H-1735.51C-1773.8 -931.001 -1779.67 -930.311 -1775.53 -926.171Z" fill="#F97316"/>
<path d="M-1592.67 -926.171C-1589.91 -923.756 -1180.74 -589.461 -683.59 -184.098C-186.44 221.609 231.704 563.149 245.504 574.534C259.649 585.918 269.31 595.923 267.24 596.613C264.134 597.648 264.134 599.373 267.24 602.823C269.31 605.583 270.344 607.653 268.965 607.653C267.929 607.653 -194.03 277.153 -757.076 -126.485L-1780.7 -860.968L-1781.74 -828.194C-1782.43 -804.734 -1781.39 -794.04 -1778.29 -790.935C-1775.87 -788.865 -1311.5 -469.75 -746.38 -82.3263C-181.265 305.097 280.35 622.832 279.66 623.522C278.969 624.557 -177.125 326.831 -733.96 -37.8226C-1290.8 -402.477 -1754.48 -706.068 -1764.14 -712.622L-1782.43 -724.352V-689.853V-655.354L-1650.29 -573.246C-476.243 158.476 266.55 622.832 265.514 624.212C264.479 624.902 -191.615 355.81 -748.105 26.0004C-1304.6 -303.81 -1765.18 -576.351 -1771.39 -580.146L-1782.43 -586.701V-552.202V-517.703L-1736.54 -492.174C-484.178 210.57 297.945 650.431 296.91 651.121C296.22 652.156 -171.605 404.799 -742.585 102.243L-1780.7 -448.015L-1781.74 -414.896C-1782.08 -396.612 -1782.08 -381.087 -1781.39 -380.397C-1778.98 -377.637 301.395 659.401 304.155 659.401C305.535 659.401 304.155 657.676 301.395 655.951C293.115 650.776 302.085 652.156 311.745 657.676C316.92 660.781 318.3 662.506 315.195 662.851C310.71 662.851 310.71 663.541 314.85 665.956C318.99 668.716 317.955 669.751 310.365 671.821L300.36 674.236L310.365 678.721C342.795 692.865 308.295 681.481 -48.7836 558.664C-109.504 537.965 -185.405 511.746 -217.835 500.706C-282.006 478.972 -1393.95 97.4133 -1630.28 16.3407C-1711.01 -11.2585 -1777.94 -34.0278 -1779.67 -34.0278C-1781.05 -34.0278 -1782.43 -18.8482 -1782.43 -0.563782V33.2452L-1600.26 89.8235C-1500.21 120.873 -1339.1 171.241 -1242.5 201.255C-1145.55 231.614 -971.668 285.778 -856.091 321.656C-740.17 357.88 -548.693 417.564 -430.012 454.822C-311.331 491.736 -155.045 540.38 -82.2489 563.149C-9.79822 585.573 108.883 622.832 181.679 645.602C266.204 671.821 316.92 685.965 322.44 684.93C328.995 683.205 329.685 683.895 325.545 686.655C322.785 688.725 317.265 690.45 313.47 690.795C307.605 691.14 307.95 691.485 315.195 693.9C338.31 701.145 305.88 695.625 221.009 676.996C169.259 665.611 84.3877 646.982 32.2921 635.597C-19.8033 624.212 -105.364 605.583 -157.46 594.198C-209.555 582.814 -320.301 558.664 -403.102 540.38C-486.248 522.44 -622.179 492.771 -704.98 474.832C-788.126 456.547 -897.837 432.398 -949.242 421.358C-1176.6 371.68 -1465.71 308.547 -1613.37 276.463C-1701.69 257.488 -1775.87 240.929 -1778.29 240.239C-1781.74 238.859 -1782.43 246.449 -1781.74 273.703L-1780.7 308.547L-1608.2 340.976C-1513.32 358.57 -1295.28 399.624 -1123.47 431.708C-951.657 463.792 -640.464 522.095 -431.737 561.079C-223.01 600.063 30.9121 647.672 132.343 666.646C312.09 700.455 317.265 701.145 330.375 695.97C348.315 688.725 351.42 692.175 333.825 699.42C321.06 704.595 317.61 704.595 273.794 697.695C221.009 689.415 -204.725 623.177 -438.637 586.608C-576.639 565.219 -793.646 531.41 -1211.44 466.207C-1283.55 454.822 -1438.11 431.018 -1554.72 412.734C-1671.33 394.794 -1770.35 379.27 -1774.49 378.235C-1782.43 376.51 -1782.43 376.855 -1782.43 410.664V445.163L-1771.39 447.233C-1765.18 448.268 -1292.52 507.261 -721.54 578.674C167.533 689.415 318.99 707.355 330.72 704.25C352.8 698.385 354.525 698.04 359.355 701.835C365.565 706.665 375.226 698.04 370.051 691.83C367.98 689.415 367.291 685.62 368.67 683.55C370.051 681.481 369.015 680.446 366.255 680.791C363.84 681.481 362.115 680.101 362.46 677.686C362.805 675.616 360.735 674.236 357.285 674.581C354.18 675.271 351.42 677.686 351.075 680.446C350.73 683.895 351.075 683.895 352.11 680.791C353.49 677.341 354.87 677.341 358.665 680.446C361.425 682.515 363.495 685.965 363.495 688.035C363.495 690.105 362.46 690.45 361.08 689.415C360.045 688.035 356.94 688.725 354.525 690.795C351.075 693.9 349.35 693.21 347.625 689.07C345.9 684.24 344.865 684.24 338.31 688.725C334.17 691.485 328.65 693.9 325.545 693.9C321.75 693.555 322.44 692.52 327.27 689.76C331.065 687.69 339.69 680.791 346.59 674.581L358.665 662.851L366.946 671.476C371.085 675.961 375.916 679.066 377.296 678.376C378.676 677.341 381.781 679.066 384.196 681.826C388.681 687 399.376 684.93 395.926 679.411C394.546 677.341 395.581 676.306 398.341 677.341C401.101 678.376 402.826 682.515 402.826 686.655C402.481 692.865 403.171 693.21 407.656 689.76C412.141 685.965 412.831 686.31 411.106 691.14C409.381 694.935 410.416 696.315 414.556 695.97C418.696 695.28 420.766 691.14 421.456 681.826C422.836 668.026 336.93 -900.642 333.825 -919.961L332.1 -931.001H287.595C251.024 -931.001 242.744 -929.966 242.744 -926.171C242.744 -922.031 282.765 -561.517 408.001 564.529C416.626 641.807 418.696 673.201 415.591 686.655C415.246 687.69 413.521 686.655 411.451 684.585C408.346 681.481 408.346 678.031 411.451 670.441C414.901 662.161 397.651 554.179 284.145 -125.795C212.039 -558.067 152.008 -916.166 150.973 -921.686L148.903 -931.001H103.363H57.4774L125.788 -624.995C163.048 -456.295 243.089 -98.5408 303.12 170.896C363.15 439.988 411.796 661.471 411.106 663.196C410.416 664.921 394.891 611.793 376.26 544.865C357.63 477.937 325.545 361.675 304.5 286.812C283.8 211.95 241.019 58.7744 209.969 -53.0022C178.919 -165.124 133.033 -329.684 108.193 -418.691C83.3527 -508.043 41.2622 -659.149 14.697 -755.056C-11.8683 -850.963 -34.2935 -929.621 -34.6384 -930.311C-35.3285 -930.656 -56.0287 -930.656 -80.8689 -930.311L-125.719 -929.276L-102.259 -858.553C245.849 182.626 404.206 660.781 402.481 665.266C401.101 669.061 401.791 670.096 404.206 668.371C406.621 666.991 408.346 667.336 408.346 669.406C408.346 671.131 406.966 673.546 405.241 674.581C401.101 677.341 397.651 667.681 400.066 660.091C401.446 656.641 401.101 655.606 399.031 658.021C397.306 660.781 248.264 366.85 -2.89819 -133.73L-402.067 -929.276L-446.917 -930.311C-471.758 -930.656 -492.113 -930.311 -492.113 -928.931C-492.113 -927.896 -295.461 -573.936 -55.3387 -142.354C185.129 289.227 381.091 643.187 380.056 643.877C379.365 644.567 161.668 290.607 -103.639 -143.044L-586.299 -931.001H-632.529H-678.415L-644.604 -880.287C-625.974 -851.998 -388.267 -496.314 -116.404 -89.9161C155.458 316.827 376.95 650.431 375.916 651.466C374.881 652.501 375.571 655.951 377.296 659.401C379.365 663.541 379.021 665.266 375.916 665.266C373.156 665.266 371.775 661.816 372.466 656.986C372.811 652.501 371.775 650.086 369.706 651.121C367.98 652.156 367.291 655.261 368.325 658.021C369.36 660.436 368.325 663.541 366.255 664.921C363.84 666.646 363.495 665.611 365.22 662.851C366.946 660.091 366.6 659.056 364.531 660.436C362.46 661.816 361.08 660.781 361.425 658.366C361.425 655.951 24.3571 297.507 -388.267 -138.56L-1138.3 -931.001H-1182.81C-1206.96 -931.001 -1226.97 -930.656 -1226.97 -929.966C-1226.97 -929.621 -869.892 -572.211 -433.807 -136.145C2.62183 300.267 359.01 658.711 357.975 660.091C356.94 661.816 354.525 661.816 352.455 660.781C350.04 659.056 349.695 660.091 351.42 663.196C353.145 665.956 350.04 664.231 345.21 659.746C340.035 655.261 337.275 649.741 338.31 647.672C339.69 645.602 337.275 646.637 333.48 650.086C329.685 653.191 325.2 655.951 323.475 655.951C321.75 655.606 323.82 652.846 327.96 649.396L335.895 642.842L327.96 638.012C323.82 635.252 316.575 633.872 311.745 634.217C306.915 634.907 300.36 635.597 296.91 635.597C293.805 635.597 291.735 636.977 292.77 639.047C295.875 643.877 292.77 642.842 278.969 634.907C272.07 630.767 267.24 626.627 268.274 625.592C269.31 624.902 274.14 626.627 278.625 629.732C289.32 636.632 295.185 636.977 286.215 630.077C282.42 627.317 281.385 624.902 283.8 624.902C286.215 624.902 286.905 623.177 285.525 620.762C283.8 618.002 284.835 617.657 288.975 619.037C292.77 620.762 294.15 620.072 292.425 617.312C290.7 614.553 292.08 614.208 296.565 615.933C301.395 617.657 300.36 615.588 293.115 607.998C280.695 594.888 272.76 593.508 284.49 606.618C292.77 615.588 287.595 614.553 276.209 604.893C272.415 601.443 271.379 598.683 273.794 597.303C276.209 595.923 263.444 582.814 243.779 565.909C225.149 550.04 -176.09 206.775 -648.054 -196.863L-1506.42 -931.001H-1551.96C-1590.6 -931.001 -1596.81 -930.311 -1592.67 -926.171ZM280.695 612.828C283.11 615.588 283.455 618.002 281.385 618.002C279.66 618.002 276.209 615.588 273.794 612.828C271.379 610.068 271.034 607.653 273.104 607.653C274.83 607.653 278.28 610.068 280.695 612.828ZM324.855 640.082C328.65 642.152 328.305 644.222 323.82 649.052C317.265 656.296 323.13 662.506 330.72 655.951C334.515 652.846 336.24 653.536 339 658.711C341.76 663.886 341.415 666.646 337.62 669.751C334.515 672.166 333.135 674.926 334.17 675.961C335.205 676.996 339.345 674.926 343.485 671.131C350.73 665.266 350.73 665.611 343.14 674.236C334.86 683.55 326.235 687.345 331.065 679.411C332.79 676.651 331.755 676.306 327.96 677.686C324.51 678.721 319.68 679.066 316.575 677.686C311.745 675.961 312.435 674.926 318.99 671.131C323.475 668.716 325.2 666.646 322.785 666.301C320.37 666.301 318.99 664.921 320.37 663.196C321.405 661.471 315.885 656.296 308.295 652.156C294.84 644.567 294.495 643.877 301.74 640.427C309.675 635.942 318.3 635.942 324.855 640.082ZM390.751 658.711C396.271 669.406 396.616 672.511 392.821 677.686C390.061 681.481 387.991 682.515 386.956 680.101C386.266 678.031 383.161 675.961 379.71 675.271C376.605 674.926 372.121 672.856 369.706 670.441C366.6 667.336 367.635 666.646 373.156 668.026C381.781 669.406 384.885 666.301 380.746 659.401C378.331 655.261 379.71 645.602 382.816 645.602C383.506 645.602 386.956 651.466 390.751 658.711ZM368.67 694.59C370.051 695.625 369.36 697.695 367.635 698.73C365.91 699.765 362.46 698.385 360.39 695.97C356.94 692.175 357.285 691.14 361.425 691.83C364.531 692.175 367.635 693.555 368.67 694.59Z" fill="#F97316"/>
<path d="M-1409.82 -926.171C-1407.06 -923.756 -1244.57 -778.17 -1049.29 -602.916C65.7573 397.899 294.15 602.823 306.57 615.588C314.16 623.522 316.92 626.972 312.78 623.522C306.225 618.003 304.5 618.003 295.875 622.487L286.214 627.317L294.15 631.802C298.635 633.872 301.395 634.562 300.015 632.492C298.98 630.422 303.465 629.387 311.4 629.732C324.855 630.077 344.52 643.187 341.07 649.397C340.035 650.777 341.07 653.191 343.485 654.916C348.315 657.676 356.595 659.401 356.595 657.676C356.595 656.986 74.3824 389.619 -270.276 63.6042C-615.279 -262.411 -992.713 -619.475 -1109.67 -729.872L-1321.85 -931.001H-1368.42C-1407.75 -931.001 -1413.96 -930.311 -1409.82 -926.171Z" fill="#F97316"/>
<path d="M-1040.32 -925.136C-1035.49 -919.271 -569.739 -395.922 57.8218 308.547C253.439 527.96 365.565 651.812 367.98 649.397C370.05 647.327 225.148 444.473 -31.8791 89.4786C-253.371 -216.527 -510.054 -571.521 -602.17 -698.823L-769.841 -930.656L-816.072 -931.001C-852.297 -931.001 -861.267 -929.966 -858.852 -926.861C-676 -693.993 339.344 612.138 338.309 613.173C337.274 614.208 200.308 451.718 33.6715 251.969C-133.31 52.2197 -393.098 -258.616 -543.864 -439.391C-694.63 -620.165 -848.847 -804.734 -886.452 -849.583L-954.763 -931.001H-999.958C-1042.05 -931.001 -1044.81 -930.656 -1040.32 -925.136ZM364.185 643.877C365.91 647.672 361.425 643.877 353.49 635.252C345.9 626.627 339.689 618.003 339.689 616.278C339.689 612.138 359.01 634.217 364.185 643.877Z" fill="#F97316"/>
<path d="M-309.261 -929.62C-309.261 -928.931 -212.315 -710.552 -93.6339 -444.22C25.0473 -177.888 183.749 178.486 258.96 347.876C334.515 517.266 396.616 654.916 397.306 654.226C398.686 652.846 386.611 621.452 301.395 402.384C227.564 214.02 137.518 -17.4683 8.48712 -349.003C-19.8032 -421.451 -69.4836 -549.097 -102.259 -632.585C-134.689 -716.072 -174.02 -817.499 -189.545 -857.518L-217.835 -931H-263.376C-288.561 -931 -309.261 -930.31 -309.261 -929.62Z" fill="#F97316"/>
<path d="M425.596 -113.375C425.596 698.385 425.596 704.595 432.496 700.8C436.636 698.385 438.361 695.28 436.981 691.141C435.946 688.036 436.291 686.311 437.671 688.036C439.396 689.416 444.226 688.036 448.711 685.276C458.026 679.066 459.061 681.826 450.781 691.831L444.571 699.075L452.506 692.52C463.546 682.861 468.721 682.861 478.036 693.21C483.556 699.42 484.246 701.49 480.106 699.765C472.861 697.005 469.411 700.8 474.241 706.665C477.001 709.77 477.001 711.15 474.586 711.15C472.516 711.15 469.066 708.39 467.341 704.94C465.271 701.835 463.891 700.455 463.546 702.525C463.546 710.46 470.791 715.98 484.936 718.05C498.736 720.465 498.046 720.81 475.621 721.5C462.511 721.845 454.231 722.88 457.681 723.915C460.786 724.605 463.546 727.709 463.546 730.469C463.546 734.954 464.236 734.954 469.066 730.469C476.311 722.88 481.831 722.88 649.848 728.399C707.808 730.469 1104.56 742.889 1531.33 755.999C2489.06 785.668 2515.97 786.358 2581.18 789.118L2633.62 791.188V756.344V721.5L1566.87 721.155C980.016 720.81 503.566 720.12 508.396 719.43C513.226 718.74 571.532 716.67 637.773 714.6C704.358 712.53 1106.29 700.11 1531.33 687.001C1956.38 673.891 2356.23 661.471 2419.72 659.401C2483.2 657.677 2557.37 654.917 2584.63 653.882L2633.62 651.812V617.313V583.159L2610.5 585.229C2597.39 586.264 2486.99 593.163 2364.51 600.753C2242.04 608.343 1781.11 636.977 1339.85 664.231C898.595 691.486 524.267 713.91 507.361 713.565C482.176 713.22 478.381 712.53 484.936 709.08C489.076 706.665 494.596 705.63 497.011 706.665C499.426 707.7 501.496 707.01 501.496 704.94C501.496 703.215 507.706 703.905 516.331 706.665C529.787 711.495 543.587 710.805 717.123 694.245C819.589 684.586 1036.94 664.231 1200.13 649.052C1363.31 633.872 1628.97 609.033 1790.08 593.853C1951.55 578.674 2200.64 555.56 2343.81 542.105C2486.99 528.995 2610.85 517.266 2619.13 515.886L2633.62 514.161V479.662V445.163L2622.58 447.233C2616.37 448.268 2144.06 507.261 1572.73 578.674C687.108 689.071 532.202 707.355 520.472 704.25C496.666 698.04 494.941 697.695 492.871 701.145C491.491 702.87 489.076 704.25 487.006 704.25C484.936 704.25 485.971 701.145 489.421 697.35C492.871 693.555 496.666 691.486 498.046 692.175C499.426 693.21 501.841 691.486 502.876 688.381C504.601 683.551 505.636 683.551 512.536 688.381C516.676 691.486 522.542 693.9 525.647 693.9C528.407 693.9 525.647 690.796 519.436 687.001C513.226 683.206 508.741 678.721 509.776 676.996C510.811 675.271 509.431 672.166 506.671 669.751C501.841 665.611 501.841 664.576 507.706 658.022C511.501 653.882 513.916 648.017 513.571 644.912C512.881 641.462 514.261 639.737 517.021 640.772C519.436 641.807 522.542 640.772 523.922 639.047C524.957 636.977 527.717 636.287 529.787 637.322C531.857 638.702 532.547 638.357 531.512 636.287C530.477 634.562 532.892 633.182 537.032 633.872C541.172 634.217 546.347 634.907 548.072 634.907C550.142 635.252 549.107 636.977 546.347 638.702C541.862 641.462 541.862 642.152 546.002 642.152C549.797 642.152 549.107 643.532 544.277 647.327C539.102 651.122 538.757 652.502 542.897 652.502C546.002 652.502 544.622 654.572 539.447 657.677C534.272 660.781 532.892 662.506 535.997 662.851C540.482 662.851 540.482 663.541 536.342 665.956C532.202 668.716 533.237 669.751 540.827 671.821L550.832 674.236L540.827 678.721C515.641 689.761 544.967 680.446 662.613 640.082C732.649 616.278 816.139 587.644 848.225 576.604C937.581 545.9 1072.13 499.671 1783.18 255.764C2143.71 132.257 2482.51 15.9959 2535.98 -2.28851L2633.62 -35.7525V-69.5615C2633.62 -87.8459 2632.58 -103.025 2631.55 -103.025C2629.13 -103.025 2527.01 -65.0766 1914.29 164.341C474.931 703.215 552.902 673.891 551.177 672.511C550.487 671.821 1018.66 481.042 1591.71 248.864L2633.62 -173.748V-207.212C2633.62 -225.842 2632.93 -241.021 2631.89 -241.021C2631.2 -241.021 2342.78 -115.445 1991.22 38.0753C1639.66 191.596 1271.2 352.361 1172.53 395.484C1073.86 438.608 891.695 517.956 767.839 572.119C643.983 626.282 541.862 669.751 541.172 669.061C540.482 668.371 558.767 659.056 581.882 648.362C604.997 637.667 728.164 580.054 855.125 520.716C982.431 461.032 1434.39 249.554 1860.12 50.4949L2633.62 -311.399V-345.208C2633.62 -363.838 2632.93 -379.017 2632.58 -379.017C2631.89 -379.017 2163.03 -145.459 1590.67 140.192C1017.97 425.844 548.417 659.401 547.037 659.401C545.657 659.401 547.037 657.677 549.797 655.952C554.282 652.847 554.282 652.502 549.797 652.502C546.002 652.157 546.347 651.122 551.177 647.327C554.972 644.567 556.007 642.152 553.592 642.152C551.177 642.152 550.487 640.427 551.522 638.702C552.557 636.632 555.317 635.252 557.042 635.252C559.112 635.252 559.457 636.632 558.422 638.702C555.317 643.877 558.422 642.842 572.222 634.907C579.122 630.767 583.952 626.627 582.917 625.593C581.882 624.903 577.052 626.627 572.567 629.732C561.872 636.632 556.007 636.977 564.977 630.077C568.772 627.317 569.807 624.903 567.392 624.903C564.977 624.903 564.287 623.178 565.322 621.453C566.357 619.383 565.322 618.003 562.907 618.003C560.492 618.003 563.942 613.518 570.497 607.653C577.052 602.133 580.847 597.648 578.777 597.303C576.707 597.303 572.222 600.408 568.427 604.548C564.977 608.343 558.767 613.518 554.972 615.243C548.762 618.348 549.107 618.003 556.007 610.068C561.527 604.548 562.562 601.098 559.802 600.063C557.387 599.373 782.329 384.445 1059.02 122.598C1336.06 -138.904 1699.69 -482.859 1867.02 -641.209L2172 -929.276L2126.12 -930.31L2080.23 -931.345L1287.41 -138.559C412.14 735.989 489.766 659.056 491.491 653.882C492.526 651.467 1731.43 -659.494 1969.14 -909.611L1989.5 -931H1943.27L1897.03 -930.655L1824.24 -848.893C1760.76 -777.48 1574.8 -568.416 686.073 428.948C581.882 546.245 495.976 641.462 495.286 640.772C494.596 640.082 514.261 615.588 538.412 586.264C562.907 557.285 791.644 283.363 1046.6 -21.9529C1301.56 -327.614 1576.87 -657.079 1657.95 -754.366L1805.95 -931H1759.72H1713.84L1217.03 -293.805C944.136 56.7047 671.238 406.869 610.517 484.147C550.142 561.769 500.116 624.558 499.081 623.523C498.046 622.833 749.899 273.358 1058.33 -153.049C1366.76 -579.111 1619.31 -928.585 1619.31 -929.62C1619.31 -930.655 1598.95 -930.655 1573.77 -930.31L1528.57 -929.276L1001.41 -140.974C711.603 292.678 474.241 648.707 474.241 650.777C474.241 652.502 477.001 650.432 480.796 645.602L487.696 636.977L485.971 648.362C484.936 654.917 485.281 659.056 487.351 658.022C489.076 656.987 492.526 658.712 494.941 662.161C499.426 667.681 499.426 667.681 493.216 662.851C487.696 658.712 487.006 658.712 489.421 662.506C491.491 665.956 490.801 666.646 487.696 664.576C484.591 662.506 483.901 663.196 485.971 666.646C488.731 670.786 488.041 670.786 483.211 666.646C480.106 664.231 477.346 663.196 477.346 664.921C477.346 666.646 474.931 664.921 472.171 661.471C468.376 656.642 466.996 655.952 466.996 659.746C466.996 663.886 466.306 663.886 463.546 659.401C460.786 655.262 460.096 655.262 460.096 659.056C460.096 661.816 459.061 663.196 458.026 661.816C456.991 660.781 635.358 301.992 855.125 -135.454L1253.95 -931H1207.72H1161.49L960.696 -480.099C849.95 -231.707 691.248 125.013 607.412 313.377C523.577 501.396 454.576 654.917 453.886 654.227C452.506 652.847 464.581 620.763 549.797 402.384C598.787 277.153 679.173 71.1943 739.894 -85.086C768.184 -157.534 814.414 -276.21 842.705 -349.003C870.995 -421.451 917.57 -540.472 945.861 -613.61C974.496 -686.748 1013.48 -786.795 1032.46 -835.783C1051.78 -884.772 1067.3 -926.516 1067.3 -928.24C1067.3 -929.965 1046.95 -930.655 1022.11 -930.31L976.911 -929.276L953.451 -858.553C585.332 243.344 446.986 660.781 448.711 665.611C450.436 670.096 449.746 670.786 446.296 667.336C441.811 663.196 440.776 666.646 553.247 262.663C576.362 180.211 619.832 23.2407 650.193 -85.776C680.553 -194.793 722.643 -345.553 743.344 -420.416C840.98 -770.235 884.45 -927.551 884.45 -929.276C884.45 -930.31 863.75 -930.655 838.91 -930.31L793.369 -929.276L727.129 -632.584C690.903 -469.404 611.207 -111.65 550.142 162.617C460.786 563.494 439.741 662.506 442.501 668.716C444.571 673.201 444.916 676.651 443.191 676.651C441.466 676.651 439.051 672.856 438.016 668.026C436.291 661.816 686.418 -854.068 700.218 -921.686L702.288 -931H655.368C617.072 -931 608.447 -929.965 608.447 -926.171C608.447 -923.411 573.602 -607.745 530.822 -224.807C488.386 158.132 448.711 513.126 443.191 564.529C437.326 615.588 433.186 666.646 433.876 677.686C434.221 691.486 433.531 696.315 431.116 693.9C428.701 691.486 440.776 447.923 471.481 -109.235C495.631 -548.752 516.331 -913.751 517.366 -919.961L519.091 -931H472.171H425.596V-113.375ZM544.622 615.243C537.032 623.178 533.927 627.662 537.377 624.903C543.932 619.728 560.837 617.313 558.077 621.798C557.387 623.178 558.767 624.903 560.837 625.593C563.597 626.627 562.217 629.042 557.042 631.457C552.557 633.872 549.797 634.217 551.177 632.492C554.282 626.972 527.372 629.732 519.782 635.597C516.331 638.012 522.197 631.112 532.547 620.418C542.897 609.723 552.902 600.753 554.627 600.753C556.697 600.753 551.867 607.308 544.622 615.243ZM494.596 633.527C492.181 636.632 489.421 638.012 488.386 636.977C487.351 636.287 488.731 633.182 491.146 630.077C493.561 626.972 496.321 625.593 497.356 626.627C498.391 627.317 497.011 630.422 494.596 633.527ZM510.466 646.982C509.431 654.227 501.151 663.196 497.356 660.781C495.631 659.746 497.701 654.917 501.841 650.432C510.811 640.772 511.501 640.427 510.466 646.982ZM463.546 664.921C467.341 665.266 471.136 665.956 472.171 666.301C473.206 666.646 474.931 667.336 476.656 667.681C483.901 669.061 491.836 675.961 488.386 678.031C486.316 679.411 485.281 682.516 486.316 685.276C489.766 693.9 494.596 687.346 492.871 676.651C491.491 669.406 492.526 666.991 496.321 667.681C502.876 668.716 511.501 676.651 505.981 676.651C503.911 676.651 501.151 674.581 500.116 672.166C499.081 670.096 499.081 671.476 500.116 675.961C501.496 681.481 499.771 685.621 493.906 690.451C485.971 696.66 485.971 696.66 477.001 688.381C472.171 683.896 466.996 681.136 465.271 682.516C463.891 684.241 463.546 683.551 464.926 681.136C465.961 679.066 470.101 677.686 473.551 678.376C477.001 679.066 479.761 677.686 479.761 675.271C479.761 672.856 477.691 670.786 475.276 670.786C472.861 670.786 471.826 672.511 472.861 674.236C473.896 676.306 473.206 676.651 470.791 675.271C468.721 673.891 464.926 674.236 462.511 676.306C456.301 681.136 451.471 676.651 450.781 664.921C450.436 658.022 451.471 656.297 453.541 659.746C454.921 662.506 459.406 664.921 463.546 664.921ZM446.296 682.171C446.296 684.931 439.741 686.656 438.016 684.241C436.981 682.516 438.361 681.136 441.121 681.136C443.881 681.136 446.296 681.826 446.296 682.171ZM482.521 707.01C481.486 708.045 478.726 707.01 476.311 704.595C473.206 701.145 473.551 700.8 478.381 702.87C481.831 703.905 483.556 705.975 482.521 707.01Z" fill="#F97316"/>
<path d="M905.15 -140.63C663.303 294.057 464.581 651.466 463.891 653.191C463.201 655.261 464.581 655.951 466.651 654.571C468.721 653.191 471.481 654.226 472.516 656.986C474.931 663.886 482.866 662.851 482.866 655.606C482.866 651.121 481.486 650.431 478.726 652.846C475.966 655.261 473.896 654.916 472.171 652.501C470.791 650.431 686.763 294.402 952.071 -138.56C1217.03 -571.522 1434.73 -926.861 1435.42 -928.586C1436.11 -929.966 1416.1 -931.001 1390.91 -931.001H1345.03L905.15 -140.63Z" fill="#F97316"/>
<path d="M2089.89 -773.34C1993.29 -686.403 1731.09 -450.775 1507.18 -249.646C1283.27 -48.5173 979.326 224.369 831.665 356.845C684.003 489.666 563.942 598.683 564.632 599.718C566.357 601.098 2321.73 -898.227 2345.54 -920.996L2355.89 -931.001H2310.69H2265.84L2089.89 -773.34Z" fill="#F97316"/>
<path d="M2252.39 -770.235C2144.4 -681.573 1723.84 -338.309 1318.12 -7.11853C882.035 348.911 582.227 595.923 584.297 597.303C587.057 599.028 584.297 602.478 577.397 607.653C571.532 611.793 567.392 616.278 568.427 617.313C569.462 618.348 573.257 616.623 576.707 613.518C580.157 610.068 584.642 607.653 586.367 607.653C588.093 607.653 584.987 611.448 579.122 616.278C573.602 620.762 570.497 624.557 572.912 624.902C574.982 624.902 578.087 623.177 579.122 621.452C580.157 619.383 582.917 618.003 584.642 618.003C586.712 618.003 587.057 619.383 586.022 621.452C584.987 623.522 584.987 624.902 586.367 624.902C587.403 624.902 1048.67 352.361 1611.03 19.1006L2633.62 -586.701V-621.2V-655.699L2626.03 -650.869C2621.54 -648.109 2275.85 -432.146 1857.36 -171.334C1438.87 89.4785 982.776 374.095 843.74 460.687C704.359 547.625 589.818 618.003 589.128 616.968C588.093 616.278 1045.91 315.447 1606.2 -51.2772C2166.48 -418.001 2627.06 -719.867 2629.48 -722.282C2632.58 -725.042 2633.62 -735.737 2632.93 -759.196L2631.89 -792.315L1611.37 -91.986C1050.05 293.022 589.818 607.653 589.128 606.618C588.438 605.928 1047.64 275.428 1609.65 -127.865L2631.89 -860.968L2632.93 -895.812L2633.96 -931.001L2346.57 -716.072C2188.56 -597.741 1731.78 -256.201 1331.92 43.2499C931.716 342.701 603.618 586.953 602.928 585.919C601.203 584.194 624.663 565.909 1803.88 -354.868C2208.23 -670.188 2539.43 -928.931 2540.12 -929.621C2540.81 -930.311 2520.8 -931.001 2495.27 -931.001H2449.04L2252.39 -770.235ZM598.098 592.128C595.683 594.888 592.233 597.303 590.508 597.303C588.438 597.303 588.783 594.888 591.198 592.128C593.613 589.368 597.063 586.953 598.788 586.953C600.858 586.953 600.513 589.368 598.098 592.128Z" fill="#F97316"/>
<path d="M2587.04 -491.829C2562.55 -477.684 2094.72 -215.147 1547.55 91.8935C1000.72 398.934 553.592 650.432 554.282 651.122C554.972 652.156 1022.8 404.799 1593.78 102.243L2631.89 -448.015L2632.93 -465.265C2633.62 -474.924 2633.62 -490.104 2632.93 -499.764L2631.89 -517.013L2587.04 -491.829Z" fill="#F97316"/>
<path d="M-1782.43 -276.555V-242.401L-1225.94 0.471313C-920.262 133.982 -557.319 292.332 -419.662 352.361C-282.006 412.389 -63.619 507.951 66.1022 564.529C195.478 621.108 300.704 668.026 300.014 668.716C299.324 669.406 -168.5 480.697 -739.826 248.864C-1311.15 17.3758 -1779.32 -172.023 -1780.36 -172.023C-1781.39 -172.023 -1782.43 -156.844 -1782.43 -138.214V-104.75L-1660.64 -59.2119C-1594.05 -34.0276 -1343.58 59.4645 -1104.49 148.817C-865.407 238.514 -505.913 373.06 -305.811 447.923C-105.709 522.786 111.988 604.203 177.538 628.697C275.519 665.266 298.635 672.856 305.189 670.096C309.675 668.371 311.054 666.646 308.294 666.301C303.81 666.301 303.81 665.611 308.294 662.506C312.435 659.401 312.435 659.056 306.915 660.781C302.774 662.161 284.489 655.607 256.889 642.497C180.988 607.308 -190.925 433.088 -994.093 57.3946C-1422.93 -143.044 -1775.87 -308.294 -1777.94 -308.984C-1781.39 -310.364 -1782.43 -302.43 -1782.43 -276.555Z" fill="#F97316"/>
<path d="M2454.22 88.4439C2362.1 117.423 2194.43 169.861 2081.61 205.05C1545.48 372.37 1374.7 425.499 1227.73 471.382C1140.44 498.636 1009 539.69 935.511 562.459C861.68 585.574 741.964 622.833 669.168 645.602C559.802 679.756 534.962 686.311 527.717 683.551C522.887 681.826 518.747 679.411 518.747 678.031C518.747 676.996 521.162 676.651 523.922 678.031C526.682 679.066 531.512 679.066 534.617 677.686C539.447 675.961 538.757 674.926 532.202 671.131C527.717 668.716 525.992 666.646 528.407 666.301C530.822 666.301 532.202 664.921 530.822 663.196C529.787 661.126 531.857 658.367 534.962 656.297C539.792 653.537 540.137 652.847 535.997 652.502C531.512 652.502 531.512 651.812 535.652 649.397C543.242 644.567 543.932 634.562 536.687 638.357C533.237 640.082 529.787 641.462 528.062 641.807C524.267 642.152 513.227 648.707 516.332 649.052C517.712 649.052 516.677 652.847 513.572 657.332C508.742 664.576 508.742 665.611 513.572 669.751C517.712 673.201 518.057 674.926 514.952 676.996C510.467 679.756 528.062 690.106 538.412 690.796C541.862 690.796 539.447 692.521 533.237 694.245C525.647 696.66 519.782 696.315 514.952 693.555C511.157 691.486 507.017 690.796 505.982 691.831C504.602 692.866 509.777 696.315 517.367 699.42C530.132 704.595 533.582 704.595 577.398 697.695C736.789 672.856 1158.73 607.308 1310.53 583.504C1409.2 568.324 1528.92 549.695 1576.18 542.105C1623.79 534.515 1743.16 515.886 1841.83 500.706C1940.51 485.182 2134.74 455.168 2273.09 433.433C2411.78 411.699 2548.06 390.655 2576 386.17C2603.95 382.03 2628.44 377.545 2630.51 376.51C2632.58 375.13 2633.62 360.641 2632.93 341.321L2631.89 308.547L2459.39 340.976C2063.33 415.149 1639.66 494.497 1282.93 561.08C1074.2 600.063 820.625 647.672 719.194 666.646C618.108 685.621 533.582 700.455 531.857 700.11C530.132 699.42 566.357 690.796 612.588 680.791C658.818 670.441 746.104 651.467 806.825 638.357C867.545 624.903 959.316 604.893 1010.38 593.854C1061.78 582.814 1171.84 558.665 1255.33 540.38C1556.52 474.487 1709.35 441.368 1815.96 417.909C1875.65 404.799 2018.48 373.75 2133.36 348.566C2248.25 323.727 2407.3 288.883 2486.99 271.633L2631.89 239.894L2632.93 204.705C2633.62 177.451 2632.93 169.861 2629.48 171.241C2616.02 176.416 548.417 690.451 545.312 689.416C543.587 689.071 573.603 679.756 612.243 669.061C650.883 658.367 738.514 633.872 806.825 614.553C875.135 595.233 974.496 567.289 1027.63 552.455C1080.76 537.62 1177.7 510.366 1243.25 492.082C1494.76 421.359 1740.4 352.361 2178.9 229.545L2633.62 102.243V68.4345C2633.62 38.7654 2632.93 34.9705 2627.75 35.3156C2624.3 35.6605 2546.33 59.4648 2454.22 88.4439ZM534.962 645.947C531.857 648.017 529.787 650.777 530.822 652.847C532.202 654.572 530.822 656.987 528.062 658.022C521.852 660.436 522.542 669.061 529.442 673.546C532.202 675.271 532.547 676.651 530.477 676.651C528.062 676.651 522.887 673.546 518.402 669.751C511.157 663.886 511.157 663.196 517.022 665.266C522.887 667.336 523.232 666.646 519.782 662.161C514.607 655.952 517.367 652.157 524.957 655.262C529.787 656.987 530.132 656.297 526.682 651.812C521.507 645.602 522.887 643.877 533.237 643.187C540.137 642.497 540.482 642.842 534.962 645.947Z" fill="#F97316"/>
<path d="M-1781.74 137.432L-1780.7 171.241L-740.516 430.673C-168.5 573.499 302.084 690.105 304.844 690.105C311.745 689.76 288.974 682.861 163.393 647.672C105.433 631.457 7.79675 604.203 -53.9589 586.954C-267.861 526.925 -361.357 500.706 -458.303 473.452C-1252.85 250.244 -1775.53 103.968 -1778.63 103.968C-1781.39 103.968 -1782.43 113.628 -1781.74 137.432Z" fill="#F97316"/>
</g>
<defs>
<linearGradient id="paint0_linear_5_7" x1="321.518" y1="35.2007" x2="305.132" y2="537.113" gradientUnits="userSpaceOnUse">
<stop offset="1" stop-color="#FF4F18"/>
<stop stop-color="#EA580C"/>
</linearGradient>
<clipPath id="clip0_5_7">
<rect width="4416.04" height="3305" fill="white" transform="translate(-1782.43 -931)"/>
</clipPath>
</defs>
</svg>
