<svg width="650" height="320" viewBox="0 0 650 320" fill="none" xmlns="http://www.w3.org/2000/svg">
<g opacity="0.2">
<rect x="579.549" y="-97.2067" width="110.86" height="110.86" rx="55.4299" transform="rotate(30 579.549 -97.2067)" fill="#6EE7B7"/>
<rect x="250.801" y="-116.939" width="110.86" height="110.86" rx="55.4299" transform="rotate(30 250.801 -116.939)" fill="#6EE7B7"/>
<rect x="378.354" y="-43.2966" width="110.86" height="110.86" rx="55.4299" transform="rotate(30 378.354 -43.2966)" fill="#6EE7B7"/>
<rect x="505.906" y="30.3459" width="110.86" height="110.86" rx="55.4299" transform="rotate(30 505.906 30.3459)" fill="#6EE7B7"/>
<rect x="633.459" y="103.988" width="110.86" height="110.86" rx="55.4299" transform="rotate(30 633.459 103.988)" fill="#6EE7B7"/>
<rect x="49.606" y="-63.0291" width="110.86" height="110.86" rx="55.4299" transform="rotate(30 49.606 -63.0291)" fill="#6EE7B7"/>
<rect x="177.159" y="10.6135" width="110.86" height="110.86" rx="55.4299" transform="rotate(30 177.159 10.6135)" fill="#6EE7B7"/>
<rect x="304.711" y="84.256" width="110.86" height="110.86" rx="55.4299" transform="rotate(30 304.711 84.256)" fill="#6EE7B7"/>
<rect x="432.264" y="157.899" width="110.86" height="110.86" rx="55.4299" transform="rotate(30 432.264 157.899)" fill="#6EE7B7"/>
<rect x="559.816" y="231.541" width="110.86" height="110.86" rx="55.4299" transform="rotate(30 559.816 231.541)" fill="#6EE7B7"/>
<rect x="-24.0364" y="64.5236" width="110.86" height="110.86" rx="55.4299" transform="rotate(30 -24.0364 64.5236)" fill="#6EE7B7"/>
<rect x="103.516" y="138.166" width="110.86" height="110.86" rx="55.4299" transform="rotate(30 103.516 138.166)" fill="#6EE7B7"/>
<rect x="231.069" y="211.809" width="110.86" height="110.86" rx="55.4299" transform="rotate(30 231.069 211.809)" fill="#6EE7B7"/>
<rect x="358.621" y="285.451" width="110.86" height="110.86" rx="55.4299" transform="rotate(30 358.621 285.451)" fill="#6EE7B7"/>
<rect x="29.8735" y="265.719" width="110.86" height="110.86" rx="55.4299" transform="rotate(30 29.8735 265.719)" fill="#6EE7B7"/>
</g>
</svg>
