<svg width="852" height="393" viewBox="0 0 852 393" fill="none" xmlns="http://www.w3.org/2000/svg">
<g opacity="0.2">
<g clip-path="url(#clip0_24_232)">
<rect x="747.242" y="-128" width="140" height="140" rx="34.4827" transform="rotate(30 747.242 -128)" fill="#A3E635"/>
<path d="M769.286 -48.9318L785.505 -59.7067C787.586 -61.09 790.368 -59.4843 790.21 -56.9897L788.988 -37.5564L804.35 -25.4379C806.321 -23.8831 805.66 -20.7585 803.232 -20.1493L784.317 -15.4049L777.598 2.84579C776.735 5.1897 773.546 5.51577 772.202 3.39766L761.734 -13.1005L742.212 -13.9174C739.705 -14.0222 738.393 -16.9466 739.992 -18.866L752.438 -33.8106L747.089 -52.5636C746.402 -54.9712 748.778 -57.1057 751.11 -56.1762L769.286 -48.9318Z" fill="#84CC16"/>
</g>
<g clip-path="url(#clip1_24_232)">
<rect x="908.323" y="-35" width="140" height="140" rx="34.4827" transform="rotate(30 908.323 -35)" fill="#A3E635"/>
</g>
<g clip-path="url(#clip2_24_232)">
<rect x="332.081" y="-152.919" width="140" height="140" rx="34.4827" transform="rotate(30 332.081 -152.919)" fill="#A3E635"/>
</g>
<g clip-path="url(#clip3_24_232)">
<rect x="493.161" y="-59.9193" width="140" height="140" rx="34.4827" transform="rotate(30 493.161 -59.9193)" fill="#A3E635"/>
<path d="M515.205 19.1487L531.423 8.37385C533.505 6.99054 536.286 8.59621 536.129 11.0908L534.907 30.5241L550.269 42.6426C552.24 44.1974 551.579 47.322 549.151 47.9312L530.236 52.6756L523.517 70.9263C522.654 73.2702 519.465 73.5963 518.121 71.4782L507.653 54.98L488.131 54.1631C485.624 54.0583 484.312 51.1339 485.911 49.2146L498.356 34.2699L493.008 15.5169C492.321 13.1093 494.697 10.9748 497.029 11.9043L515.205 19.1487Z" fill="#84CC16"/>
</g>
<g clip-path="url(#clip4_24_232)">
<rect x="654.242" y="33.0807" width="140" height="140" rx="34.4827" transform="rotate(30 654.242 33.0807)" fill="#A3E635"/>
<path d="M676.286 112.149L692.505 101.374C694.586 99.9907 697.368 101.596 697.21 104.091L695.988 123.524L711.35 135.643C713.321 137.198 712.66 140.322 710.232 140.931L691.317 145.676L684.598 163.927C683.735 166.27 680.546 166.596 679.202 164.478L668.734 147.98L649.212 147.163C646.705 147.058 645.393 144.134 646.992 142.215L659.438 127.27L654.089 108.517C653.402 106.11 655.778 103.975 658.11 104.904L676.286 112.149Z" fill="#84CC16"/>
</g>
<g clip-path="url(#clip5_24_232)">
<rect x="815.323" y="126.081" width="140" height="140" rx="34.4827" transform="rotate(30 815.323 126.081)" fill="#A3E635"/>
<path d="M837.367 205.149L853.585 194.374C855.667 192.991 858.448 194.596 858.291 197.091L857.069 216.524L872.431 228.643C874.402 230.198 873.741 233.322 871.313 233.931L852.398 238.676L845.678 256.926C844.816 259.27 841.627 259.596 840.283 257.478L829.815 240.98L810.292 240.163C807.786 240.058 806.474 237.134 808.073 235.215L820.518 220.27L815.17 201.517C814.483 199.109 816.859 196.975 819.191 197.904L837.367 205.149Z" fill="#84CC16"/>
</g>
<g clip-path="url(#clip6_24_232)">
<rect x="78" y="-84.8386" width="140" height="140" rx="34.4827" transform="rotate(30 78 -84.8386)" fill="#A3E635"/>
<path d="M100.044 -5.77026L116.263 -16.5451C118.344 -17.9284 121.126 -16.3228 120.969 -13.8281L119.747 5.60512L135.108 17.7236C137.079 19.2784 136.419 22.403 133.99 23.0122L115.075 27.7567L108.356 46.0073C107.493 48.3512 104.304 48.6773 102.96 46.5592L92.4918 30.061L72.9697 29.2442C70.4634 29.1393 69.1515 26.2149 70.7498 24.2956L83.1956 9.35091L77.8472 -9.40204C77.1604 -11.8097 79.5361 -13.9442 81.8681 -13.0147L100.044 -5.77026Z" fill="#84CC16"/>
</g>
<g clip-path="url(#clip7_24_232)">
<rect x="239.081" y="8.16144" width="140" height="140" rx="34.4827" transform="rotate(30 239.081 8.16144)" fill="#A3E635"/>
<path d="M261.124 87.2295L277.343 76.4546C279.425 75.0713 282.206 76.677 282.049 79.1716L280.827 98.6049L296.189 110.723C298.16 112.278 297.499 115.403 295.071 116.012L276.156 120.756L269.436 139.007C268.573 141.351 265.385 141.677 264.041 139.559L253.572 123.061L234.05 122.244C231.544 122.139 230.232 119.215 231.83 117.295L244.276 102.351L238.927 83.5977C238.241 81.1901 240.616 79.0556 242.948 79.9851L261.124 87.2295Z" fill="#84CC16"/>
</g>
<g clip-path="url(#clip8_24_232)">
<rect x="400.161" y="101.161" width="140" height="140" rx="34.4827" transform="rotate(30 400.161 101.161)" fill="#A3E635"/>
<path d="M422.205 180.229L438.423 169.455C440.505 168.071 443.286 169.677 443.129 172.172L441.907 191.605L457.269 203.723C459.24 205.278 458.579 208.403 456.151 209.012L437.236 213.756L430.517 232.007C429.654 234.351 426.465 234.677 425.121 232.559L414.653 216.061L395.131 215.244C392.624 215.139 391.312 212.215 392.911 210.295L405.356 195.351L400.008 176.598C399.321 174.19 401.697 172.056 404.029 172.985L422.205 180.229Z" fill="#84CC16"/>
</g>
<g clip-path="url(#clip9_24_232)">
<rect x="561.242" y="194.161" width="140" height="140" rx="34.4827" transform="rotate(30 561.242 194.161)" fill="#A3E635"/>
<path d="M583.286 273.23L599.505 262.455C601.586 261.071 604.368 262.677 604.21 265.172L602.988 284.605L618.35 296.723C620.321 298.278 619.66 301.403 617.232 302.012L598.317 306.757L591.598 325.007C590.735 327.351 587.546 327.677 586.202 325.559L575.734 309.061L556.212 308.244C553.705 308.139 552.393 305.215 553.992 303.295L566.438 288.351L561.089 269.598C560.402 267.19 562.778 265.056 565.11 265.985L583.286 273.23Z" fill="#84CC16"/>
</g>
<g clip-path="url(#clip10_24_232)">
<rect x="722.323" y="287.161" width="140" height="140" rx="34.4827" transform="rotate(30 722.323 287.161)" fill="#A3E635"/>
<path d="M744.367 366.23L760.585 355.455C762.667 354.071 765.448 355.677 765.291 358.172L764.069 377.605L779.431 389.723C781.402 391.278 780.741 394.403 778.313 395.012L759.398 399.757L752.678 418.007C751.816 420.351 748.627 420.677 747.283 418.559L736.815 402.061L717.292 401.244C714.786 401.139 713.474 398.215 715.073 396.295L727.518 381.351L722.17 362.598C721.483 360.19 723.859 358.056 726.191 358.985L744.367 366.23Z" fill="#84CC16"/>
</g>
<g clip-path="url(#clip11_24_232)">
<rect x="-15" y="76.2422" width="140" height="140" rx="34.4827" transform="rotate(30 -15 76.2422)" fill="#A3E635"/>
<path d="M7.0438 155.31L23.2626 144.536C25.3445 143.152 28.1256 144.758 27.9685 147.253L26.7465 166.686L42.1084 178.804C44.0794 180.359 43.4185 183.484 40.9903 184.093L22.0753 188.837L15.3557 207.088C14.4928 209.432 11.3042 209.758 9.96022 207.64L-0.50817 191.142L-20.0303 190.325C-22.5366 190.22 -23.8485 187.296 -22.2502 185.376L-9.80442 170.432L-15.1528 151.679C-15.8396 149.271 -13.4639 147.137 -11.1319 148.066L7.0438 155.31Z" fill="#84CC16"/>
</g>
<g clip-path="url(#clip12_24_232)">
<rect x="146.081" y="169.242" width="140" height="140" rx="34.4827" transform="rotate(30 146.081 169.242)" fill="#A3E635"/>
<path d="M168.124 248.31L184.343 237.535C186.425 236.152 189.206 237.758 189.049 240.252L187.827 259.686L203.189 271.804C205.16 273.359 204.499 276.484 202.071 277.093L183.156 281.837L176.436 300.088C175.573 302.432 172.385 302.758 171.041 300.64L160.572 284.141L141.05 283.325C138.544 283.22 137.232 280.295 138.83 278.376L151.276 263.431L145.927 244.678C145.241 242.271 147.616 240.136 149.948 241.066L168.124 248.31Z" fill="#84CC16"/>
</g>
<g clip-path="url(#clip13_24_232)">
<rect x="307.161" y="262.242" width="140" height="140" rx="34.4827" transform="rotate(30 307.161 262.242)" fill="#A3E635"/>
<path d="M329.205 341.31L345.423 330.535C347.505 329.152 350.286 330.758 350.129 333.252L348.907 352.686L364.269 364.804C366.24 366.359 365.579 369.483 363.151 370.093L344.236 374.837L337.517 393.088C336.654 395.432 333.465 395.758 332.121 393.64L321.653 377.141L302.131 376.325C299.624 376.22 298.312 373.295 299.911 371.376L312.356 356.431L307.008 337.678C306.321 335.271 308.697 333.136 311.029 334.066L329.205 341.31Z" fill="#84CC16"/>
</g>
<g clip-path="url(#clip14_24_232)">
<rect x="468.242" y="355.242" width="140" height="140" rx="34.4827" transform="rotate(30 468.242 355.242)" fill="#A3E635"/>
</g>
<g clip-path="url(#clip15_24_232)">
<rect x="-108" y="237.323" width="140" height="140" rx="34.4827" transform="rotate(30 -108 237.323)" fill="#A3E635"/>
</g>
<g clip-path="url(#clip16_24_232)">
<rect x="53.0808" y="330.323" width="140" height="140" rx="34.4827" transform="rotate(30 53.0808 330.323)" fill="#A3E635"/>
<path d="M75.1241 409.391L91.3429 398.616C93.4248 397.233 96.2059 398.838 96.0489 401.333L94.8269 420.766L110.189 432.885C112.16 434.44 111.499 437.564 109.071 438.173L90.1556 442.918L83.436 461.168C82.5731 463.512 79.3846 463.838 78.0405 461.72L67.5722 445.222L48.05 444.405C45.5438 444.3 44.2318 441.376 45.8302 439.457L58.2759 424.512L52.9275 405.759C52.2407 403.351 54.6164 401.217 56.9484 402.146L75.1241 409.391Z" fill="#84CC16"/>
</g>
</g>
<defs>
<clipPath id="clip0_24_232">
<rect x="747.242" y="-128" width="140" height="140" rx="34.4827" transform="rotate(30 747.242 -128)" fill="white"/>
</clipPath>
<clipPath id="clip1_24_232">
<rect x="908.323" y="-35" width="140" height="140" rx="34.4827" transform="rotate(30 908.323 -35)" fill="white"/>
</clipPath>
<clipPath id="clip2_24_232">
<rect x="332.081" y="-152.919" width="140" height="140" rx="34.4827" transform="rotate(30 332.081 -152.919)" fill="white"/>
</clipPath>
<clipPath id="clip3_24_232">
<rect x="493.161" y="-59.9193" width="140" height="140" rx="34.4827" transform="rotate(30 493.161 -59.9193)" fill="white"/>
</clipPath>
<clipPath id="clip4_24_232">
<rect x="654.242" y="33.0807" width="140" height="140" rx="34.4827" transform="rotate(30 654.242 33.0807)" fill="white"/>
</clipPath>
<clipPath id="clip5_24_232">
<rect x="815.323" y="126.081" width="140" height="140" rx="34.4827" transform="rotate(30 815.323 126.081)" fill="white"/>
</clipPath>
<clipPath id="clip6_24_232">
<rect x="78" y="-84.8386" width="140" height="140" rx="34.4827" transform="rotate(30 78 -84.8386)" fill="white"/>
</clipPath>
<clipPath id="clip7_24_232">
<rect x="239.081" y="8.16144" width="140" height="140" rx="34.4827" transform="rotate(30 239.081 8.16144)" fill="white"/>
</clipPath>
<clipPath id="clip8_24_232">
<rect x="400.161" y="101.161" width="140" height="140" rx="34.4827" transform="rotate(30 400.161 101.161)" fill="white"/>
</clipPath>
<clipPath id="clip9_24_232">
<rect x="561.242" y="194.161" width="140" height="140" rx="34.4827" transform="rotate(30 561.242 194.161)" fill="white"/>
</clipPath>
<clipPath id="clip10_24_232">
<rect x="722.323" y="287.161" width="140" height="140" rx="34.4827" transform="rotate(30 722.323 287.161)" fill="white"/>
</clipPath>
<clipPath id="clip11_24_232">
<rect x="-15" y="76.2422" width="140" height="140" rx="34.4827" transform="rotate(30 -15 76.2422)" fill="white"/>
</clipPath>
<clipPath id="clip12_24_232">
<rect x="146.081" y="169.242" width="140" height="140" rx="34.4827" transform="rotate(30 146.081 169.242)" fill="white"/>
</clipPath>
<clipPath id="clip13_24_232">
<rect x="307.161" y="262.242" width="140" height="140" rx="34.4827" transform="rotate(30 307.161 262.242)" fill="white"/>
</clipPath>
<clipPath id="clip14_24_232">
<rect x="468.242" y="355.242" width="140" height="140" rx="34.4827" transform="rotate(30 468.242 355.242)" fill="white"/>
</clipPath>
<clipPath id="clip15_24_232">
<rect x="-108" y="237.323" width="140" height="140" rx="34.4827" transform="rotate(30 -108 237.323)" fill="white"/>
</clipPath>
<clipPath id="clip16_24_232">
<rect x="53.0808" y="330.323" width="140" height="140" rx="34.4827" transform="rotate(30 53.0808 330.323)" fill="white"/>
</clipPath>
</defs>
</svg>
