<svg width="852" height="393" viewBox="0 0 852 393" fill="none" xmlns="http://www.w3.org/2000/svg">
<g opacity="0.4">
<path d="M760.498 -9.20716L754.373 1.40165" stroke="#F97316" stroke-width="8.75" stroke-linecap="round" stroke-linejoin="round"/>
<path d="M722.114 -1.057C720.503 1.73304 721.459 5.30065 724.249 6.91148L764.664 30.2448C767.454 31.8556 771.021 30.8997 772.632 28.1097C775.84 22.5527 773.919 15.381 768.362 12.1727L738.051 -5.3273C732.494 -8.53563 725.322 -6.614 722.114 -1.057Z" fill="#F97316" stroke="#F97316" stroke-width="8.75" stroke-miterlimit="10"/>
<path d="M761.198 -12.1709C741.647 -23.4584 734.964 -48.3997 746.252 -67.9503L755.002 -83.1057C761.448 -94.2702 775.711 -98.0921 786.876 -91.6463L817.187 -74.1463C828.351 -67.7005 832.173 -53.4369 825.727 -42.2724L816.977 -27.1169C805.69 -7.5664 780.748 -0.883388 761.198 -12.1709Z" fill="#F97316" stroke="#F97316" stroke-width="8.75" stroke-linecap="round" stroke-linejoin="round"/>
<path d="M806.874 -15.1C811.363 -14.125 815.981 -14.4228 820.124 -15.533C827.588 -17.9598 834.119 -22.272 838.202 -29.3446C842.285 -36.4171 839.937 -45.1824 832.864 -49.2658L829.581 -51.1616C829.249 -48.2544 828.267 -45.3863 826.721 -42.7089L817.971 -27.5534C815.054 -22.5016 811.252 -18.3654 806.874 -15.1Z" fill="#F97316" stroke="#F97316" stroke-width="8.75" stroke-linecap="round" stroke-linejoin="round"/>
<path d="M306.952 -25.9763C305.341 -23.1862 306.297 -19.6186 309.087 -18.0078L349.502 5.32553C352.292 6.93636 355.86 5.98042 357.47 3.19038C360.679 -2.36662 358.757 -9.53825 353.2 -12.7466L322.889 -30.2466C317.332 -33.4549 310.161 -31.5333 306.952 -25.9763Z" fill="#F97316" stroke="#F97316" stroke-width="8.75" stroke-miterlimit="10"/>
<path d="M506.417 58.8736L500.292 69.4824" stroke="#F97316" stroke-width="8.75" stroke-linecap="round" stroke-linejoin="round"/>
<path d="M468.033 67.0237C466.423 69.8138 467.378 73.3814 470.169 74.9922L510.583 98.3255C513.373 99.9364 516.941 98.9804 518.552 96.1904C521.76 90.6334 519.838 83.4618 514.281 80.2534L483.97 62.7534C478.413 59.5451 471.242 61.4667 468.033 67.0237Z" fill="#F97316" stroke="#F97316" stroke-width="8.75" stroke-miterlimit="10"/>
<path d="M507.117 55.9098C487.567 44.6223 480.884 19.681 492.171 0.130463L500.921 -15.025C507.367 -26.1895 521.631 -30.0114 532.795 -23.5656L563.106 -6.06557C574.271 0.380257 578.092 14.6438 571.647 25.8084L562.897 40.9638C551.609 60.5143 526.668 67.1973 507.117 55.9098Z" fill="#F97316" stroke="#F97316" stroke-width="8.75" stroke-linecap="round" stroke-linejoin="round"/>
<path d="M486.816 14.8886C483.727 11.4886 481.677 7.34085 480.566 3.19724C478.936 -4.47957 479.405 -12.2918 483.489 -19.3643C487.572 -26.4368 496.337 -28.7855 503.41 -24.7022L506.693 -22.8063C504.341 -21.0658 502.349 -18.7811 500.803 -16.1036L492.053 -0.94816C489.136 4.10366 487.455 9.46486 486.816 14.8886Z" fill="#F97316" stroke="#F97316" stroke-width="8.75" stroke-linecap="round" stroke-linejoin="round"/>
<path d="M552.794 52.9807C557.283 53.9558 561.9 53.658 566.044 52.5477C573.507 50.1209 580.038 45.8087 584.121 38.7362C588.205 31.6636 585.856 22.8983 578.784 18.815L575.5 16.9191C575.169 19.8263 574.186 22.6944 572.641 25.3718L563.891 40.5273C560.974 45.5791 557.171 49.7153 552.794 52.9807Z" fill="#F97316" stroke="#F97316" stroke-width="8.75" stroke-linecap="round" stroke-linejoin="round"/>
<path d="M667.498 151.874L661.373 162.482" stroke="#F97316" stroke-width="8.75" stroke-linecap="round" stroke-linejoin="round"/>
<path d="M629.114 160.024C627.503 162.814 628.459 166.381 631.249 167.992L671.664 191.326C674.454 192.936 678.021 191.98 679.632 189.19C682.84 183.633 680.919 176.462 675.362 173.253L645.051 155.753C639.494 152.545 632.322 154.467 629.114 160.024Z" fill="#F97316" stroke="#F97316" stroke-width="8.75" stroke-miterlimit="10"/>
<path d="M668.198 148.91C648.647 137.622 641.964 112.681 653.252 93.1305L662.002 77.975C668.448 66.8105 682.711 62.9886 693.876 69.4344L724.187 86.9344C735.351 93.3803 739.173 107.644 732.727 118.808L723.977 133.964C712.69 153.514 687.748 160.197 668.198 148.91Z" fill="#F97316" stroke="#F97316" stroke-width="8.75" stroke-linecap="round" stroke-linejoin="round"/>
<path d="M647.897 107.889C644.808 104.489 642.757 100.341 641.647 96.1972C640.017 88.5204 640.486 80.7082 644.569 73.6357C648.653 66.5632 657.418 64.2145 664.49 68.2978L667.774 70.1937C665.422 71.9342 663.429 74.2189 661.884 76.8964L653.134 92.0518C650.217 97.1037 648.536 102.465 647.897 107.889Z" fill="#F97316" stroke="#F97316" stroke-width="8.75" stroke-linecap="round" stroke-linejoin="round"/>
<path d="M713.874 145.981C718.363 146.956 722.981 146.658 727.124 145.548C734.588 143.121 741.119 138.809 745.202 131.736C749.285 124.664 746.937 115.898 739.864 111.815L736.581 109.919C736.249 112.826 735.267 115.694 733.721 118.372L724.971 133.527C722.054 138.579 718.252 142.715 713.874 145.981Z" fill="#F97316" stroke="#F97316" stroke-width="8.75" stroke-linecap="round" stroke-linejoin="round"/>
<path d="M828.578 244.874L822.453 255.482" stroke="#F97316" stroke-width="8.75" stroke-linecap="round" stroke-linejoin="round"/>
<path d="M790.194 253.024C788.584 255.814 789.54 259.381 792.33 260.992L832.744 284.326C835.534 285.936 839.102 284.98 840.713 282.19C843.921 276.633 841.999 269.462 836.442 266.253L806.131 248.753C800.574 245.545 793.403 247.467 790.194 253.024Z" fill="#F97316" stroke="#F97316" stroke-width="8.75" stroke-miterlimit="10"/>
<path d="M829.278 241.91C809.728 230.622 803.045 205.681 814.332 186.13L823.082 170.975C829.528 159.81 843.792 155.989 854.956 162.434L885.267 179.934C896.432 186.38 900.254 200.644 893.808 211.808L885.058 226.964C873.77 246.514 848.829 253.197 829.278 241.91Z" fill="#F97316" stroke="#F97316" stroke-width="8.75" stroke-linecap="round" stroke-linejoin="round"/>
<path d="M808.977 200.889C805.889 197.489 803.838 193.341 802.727 189.197C801.097 181.52 801.566 173.708 805.65 166.636C809.733 159.563 818.498 157.214 825.571 161.298L828.855 163.194C826.503 164.934 824.51 167.219 822.964 169.896L814.214 185.052C811.297 190.104 809.617 195.465 808.977 200.889Z" fill="#F97316" stroke="#F97316" stroke-width="8.75" stroke-linecap="round" stroke-linejoin="round"/>
<path d="M91.2554 33.9543L85.1304 44.5631" stroke="#F97316" stroke-width="8.75" stroke-linecap="round" stroke-linejoin="round"/>
<path d="M52.8717 42.1044C51.2609 44.8945 52.2169 48.4621 55.0069 50.0729L95.4214 73.4063C98.2115 75.0171 101.779 74.0611 103.39 71.2711C106.598 65.7141 104.677 58.5425 99.1196 55.3341L68.8087 37.8341C63.2517 34.6258 56.0801 36.5474 52.8717 42.1044Z" fill="#F97316" stroke="#F97316" stroke-width="8.75" stroke-miterlimit="10"/>
<path d="M91.9556 30.9906C72.4051 19.7031 65.7221 -5.23829 77.0096 -24.7888L85.7596 -39.9443C92.2054 -51.1088 106.469 -54.9307 117.634 -48.4849L147.944 -30.9849C159.109 -24.539 162.931 -10.2754 156.485 0.889076L147.735 16.0445C136.448 35.595 111.506 42.2781 91.9556 30.9906Z" fill="#F97316" stroke="#F97316" stroke-width="8.75" stroke-linecap="round" stroke-linejoin="round"/>
<path d="M137.632 28.0614C142.121 29.0365 146.739 28.7387 150.882 27.6284C158.345 25.2016 164.877 20.8894 168.96 13.8169C173.043 6.74434 170.695 -2.02099 163.622 -6.10432L160.338 -8.00016C160.007 -5.09299 159.025 -2.22489 157.479 0.452569L148.729 15.608C145.812 20.6598 142.01 24.796 137.632 28.0614Z" fill="#F97316" stroke="#F97316" stroke-width="8.75" stroke-linecap="round" stroke-linejoin="round"/>
<path d="M252.336 126.954L246.211 137.563" stroke="#F97316" stroke-width="8.75" stroke-linecap="round" stroke-linejoin="round"/>
<path d="M213.952 135.104C212.341 137.894 213.297 141.462 216.087 143.073L256.502 166.406C259.292 168.017 262.86 167.061 264.47 164.271C267.679 158.714 265.757 151.542 260.2 148.334L229.889 130.834C224.332 127.626 217.161 129.547 213.952 135.104Z" fill="#F97316" stroke="#F97316" stroke-width="8.75" stroke-miterlimit="10"/>
<path d="M253.036 123.991C233.486 112.703 226.803 87.7617 238.09 68.2112L246.84 53.0557C253.286 41.8912 267.55 38.0693 278.714 44.5151L309.025 62.0151C320.189 68.461 324.011 82.7246 317.566 93.8891L308.816 109.045C297.528 128.595 272.587 135.278 253.036 123.991Z" fill="#F97316" stroke="#F97316" stroke-width="8.75" stroke-linecap="round" stroke-linejoin="round"/>
<path d="M232.735 82.9693C229.646 79.5694 227.596 75.4216 226.485 71.278C224.855 63.6011 225.324 55.789 229.408 48.7164C233.491 41.6439 242.256 39.2952 249.329 43.3786L252.612 45.2744C250.26 47.0149 248.268 49.2997 246.722 51.9771L237.972 67.1326C235.055 72.1844 233.374 77.5456 232.735 82.9693Z" fill="#F97316" stroke="#F97316" stroke-width="8.75" stroke-linecap="round" stroke-linejoin="round"/>
<path d="M298.713 121.061C303.202 122.036 307.819 121.739 311.963 120.628C319.426 118.202 325.957 113.889 330.04 106.817C334.124 99.7443 331.775 90.979 324.703 86.8957L321.419 84.9998C321.088 87.907 320.105 90.7751 318.559 93.4526L309.809 108.608C306.893 113.66 303.09 117.796 298.713 121.061Z" fill="#F97316" stroke="#F97316" stroke-width="8.75" stroke-linecap="round" stroke-linejoin="round"/>
<path d="M413.417 219.954L407.292 230.563" stroke="#F97316" stroke-width="8.75" stroke-linecap="round" stroke-linejoin="round"/>
<path d="M375.033 228.104C373.423 230.894 374.378 234.462 377.169 236.073L417.583 259.406C420.373 261.017 423.941 260.061 425.552 257.271C428.76 251.714 426.838 244.542 421.281 241.334L390.97 223.834C385.413 220.626 378.242 222.547 375.033 228.104Z" fill="#F97316" stroke="#F97316" stroke-width="8.75" stroke-miterlimit="10"/>
<path d="M414.117 216.991C394.567 205.703 387.884 180.762 399.171 161.211L407.921 146.056C414.367 134.891 428.631 131.069 439.795 137.515L470.106 155.015C481.271 161.461 485.092 175.725 478.647 186.889L469.897 202.045C458.609 221.595 433.668 228.278 414.117 216.991Z" fill="#F97316" stroke="#F97316" stroke-width="8.75" stroke-linecap="round" stroke-linejoin="round"/>
<path d="M393.816 175.969C390.727 172.569 388.677 168.422 387.566 164.278C385.936 156.601 386.405 148.789 390.489 141.716C394.572 134.644 403.337 132.295 410.41 136.379L413.693 138.274C411.341 140.015 409.349 142.3 407.803 144.977L399.053 160.133C396.136 165.184 394.455 170.546 393.816 175.969Z" fill="#F97316" stroke="#F97316" stroke-width="8.75" stroke-linecap="round" stroke-linejoin="round"/>
<path d="M459.794 214.061C464.283 215.036 468.9 214.739 473.044 213.628C480.507 211.202 487.038 206.889 491.121 199.817C495.205 192.744 492.856 183.979 485.784 179.896L482.5 178C482.169 180.907 481.186 183.775 479.641 186.453L470.891 201.608C467.974 206.66 464.171 210.796 459.794 214.061Z" fill="#F97316" stroke="#F97316" stroke-width="8.75" stroke-linecap="round" stroke-linejoin="round"/>
<path d="M574.498 312.954L568.373 323.563" stroke="#F97316" stroke-width="8.75" stroke-linecap="round" stroke-linejoin="round"/>
<path d="M536.114 321.104C534.503 323.894 535.459 327.462 538.249 329.073L578.664 352.406C581.454 354.017 585.021 353.061 586.632 350.271C589.84 344.714 587.919 337.542 582.362 334.334L552.051 316.834C546.494 313.626 539.322 315.547 536.114 321.104Z" fill="#F97316" stroke="#F97316" stroke-width="8.75" stroke-miterlimit="10"/>
<path d="M575.198 309.991C555.647 298.703 548.964 273.762 560.252 254.211L569.002 239.056C575.448 227.891 589.711 224.069 600.876 230.515L631.187 248.015C642.351 254.461 646.173 268.725 639.727 279.889L630.977 295.045C619.69 314.595 594.748 321.278 575.198 309.991Z" fill="#F97316" stroke="#F97316" stroke-width="8.75" stroke-linecap="round" stroke-linejoin="round"/>
<path d="M554.897 268.969C551.808 265.569 549.757 261.422 548.647 257.278C547.017 249.601 547.486 241.789 551.569 234.716C555.653 227.644 564.418 225.295 571.49 229.379L574.774 231.274C572.422 233.015 570.429 235.3 568.884 237.977L560.134 253.133C557.217 258.184 555.536 263.546 554.897 268.969Z" fill="#F97316" stroke="#F97316" stroke-width="8.75" stroke-linecap="round" stroke-linejoin="round"/>
<path d="M620.874 307.061C625.363 308.036 629.981 307.739 634.124 306.628C641.588 304.202 648.119 299.889 652.202 292.817C656.285 285.744 653.937 276.979 646.864 272.896L643.581 271C643.249 273.907 642.267 276.775 640.721 279.453L631.971 294.608C629.054 299.66 625.252 303.796 620.874 307.061Z" fill="#F97316" stroke="#F97316" stroke-width="8.75" stroke-linecap="round" stroke-linejoin="round"/>
<path d="M736.278 402.991C716.728 391.703 710.045 366.762 721.332 347.211L730.082 332.056C736.528 320.891 750.792 317.069 761.956 323.515L792.267 341.015C803.432 347.461 807.254 361.725 800.808 372.889L792.058 388.045C780.77 407.595 755.829 414.278 736.278 402.991Z" fill="#F97316" stroke="#F97316" stroke-width="8.75" stroke-linecap="round" stroke-linejoin="round"/>
<path d="M715.977 361.969C712.889 358.569 710.838 354.422 709.727 350.278C708.097 342.601 708.566 334.789 712.65 327.716C716.733 320.644 725.498 318.295 732.571 322.379L735.855 324.274C733.503 326.015 731.51 328.3 729.964 330.977L721.214 346.133C718.297 351.184 716.617 356.546 715.977 361.969Z" fill="#F97316" stroke="#F97316" stroke-width="8.75" stroke-linecap="round" stroke-linejoin="round"/>
<path d="M781.955 400.061C786.444 401.036 791.061 400.739 795.205 399.628C802.668 397.202 809.199 392.889 813.283 385.817C817.366 378.744 815.017 369.979 807.945 365.896L804.661 364C804.33 366.907 803.347 369.775 801.802 372.453L793.052 387.608C790.135 392.66 786.332 396.796 781.955 400.061Z" fill="#F97316" stroke="#F97316" stroke-width="8.75" stroke-linecap="round" stroke-linejoin="round"/>
<path d="M-1.74463 195.035L-7.86963 205.644" stroke="#F97316" stroke-width="8.75" stroke-linecap="round" stroke-linejoin="round"/>
<path d="M-40.1283 203.185C-41.7391 205.975 -40.7831 209.543 -37.9931 211.154L2.42141 234.487C5.21145 236.098 8.77906 235.142 10.3899 232.352C13.5982 226.795 11.6766 219.623 6.11959 216.415L-24.1913 198.915C-29.7483 195.707 -36.9199 197.628 -40.1283 203.185Z" fill="#F97316" stroke="#F97316" stroke-width="8.75" stroke-miterlimit="10"/>
<path d="M-1.04436 192.071C-20.5949 180.784 -27.2779 155.842 -15.9904 136.292L-7.2404 121.136C-0.794564 109.972 13.469 106.15 24.6335 112.596L54.9444 130.096C66.1089 136.542 69.9308 150.805 63.485 161.97L54.735 177.125C43.4475 196.676 18.5062 203.359 -1.04436 192.071Z" fill="#F97316" stroke="#F97316" stroke-width="8.75" stroke-linecap="round" stroke-linejoin="round"/>
<path d="M-21.3453 151.05C-24.4341 147.65 -26.485 143.502 -27.5953 139.359C-29.2253 131.682 -28.7563 123.87 -24.673 116.797C-20.5897 109.725 -11.8244 107.376 -4.75181 111.459L-1.46813 113.355C-3.82016 115.096 -5.81284 117.38 -7.35868 120.058L-16.1087 135.213C-19.0253 140.265 -20.7061 145.626 -21.3453 151.05Z" fill="#F97316" stroke="#F97316" stroke-width="8.75" stroke-linecap="round" stroke-linejoin="round"/>
<path d="M44.6322 189.142C49.121 190.117 53.7385 189.819 57.8822 188.709C65.3455 186.282 71.8765 181.97 75.9599 174.898C80.0432 167.825 77.6945 159.06 70.622 154.976L67.3383 153.081C67.007 155.988 66.0247 158.856 64.4789 161.533L55.7289 176.689C52.8122 181.741 49.0097 185.877 44.6322 189.142Z" fill="#F97316" stroke="#F97316" stroke-width="8.75" stroke-linecap="round" stroke-linejoin="round"/>
<path d="M159.336 288.035L153.211 298.644" stroke="#F97316" stroke-width="8.75" stroke-linecap="round" stroke-linejoin="round"/>
<path d="M120.952 296.185C119.341 298.975 120.297 302.543 123.087 304.154L163.502 327.487C166.292 329.098 169.86 328.142 171.47 325.352C174.679 319.795 172.757 312.623 167.2 309.415L136.889 291.915C131.332 288.707 124.161 290.628 120.952 296.185Z" fill="#F97316" stroke="#F97316" stroke-width="8.75" stroke-miterlimit="10"/>
<path d="M160.036 285.071C140.486 273.784 133.803 248.842 145.09 229.292L153.84 214.136C160.286 202.972 174.55 199.15 185.714 205.596L216.025 223.096C227.189 229.542 231.011 243.805 224.566 254.97L215.816 270.125C204.528 289.676 179.587 296.359 160.036 285.071Z" fill="#F97316" stroke="#F97316" stroke-width="8.75" stroke-linecap="round" stroke-linejoin="round"/>
<path d="M139.735 244.05C136.646 240.65 134.596 236.502 133.485 232.359C131.855 224.682 132.324 216.87 136.408 209.797C140.491 202.725 149.256 200.376 156.329 204.459L159.612 206.355C157.26 208.096 155.268 210.38 153.722 213.058L144.972 228.213C142.055 233.265 140.374 238.626 139.735 244.05Z" fill="#F97316" stroke="#F97316" stroke-width="8.75" stroke-linecap="round" stroke-linejoin="round"/>
<path d="M205.713 282.142C210.202 283.117 214.819 282.819 218.963 281.709C226.426 279.282 232.957 274.97 237.04 267.898C241.124 260.825 238.775 252.06 231.703 247.976L228.419 246.081C228.088 248.988 227.105 251.856 225.559 254.533L216.809 269.689C213.893 274.741 210.09 278.877 205.713 282.142Z" fill="#F97316" stroke="#F97316" stroke-width="8.75" stroke-linecap="round" stroke-linejoin="round"/>
<path d="M320.417 381.035L314.292 391.644" stroke="#F97316" stroke-width="8.75" stroke-linecap="round" stroke-linejoin="round"/>
<path d="M282.033 389.185C280.423 391.975 281.378 395.543 284.169 397.154L324.583 420.487C327.373 422.098 330.941 421.142 332.552 418.352C335.76 412.795 333.838 405.623 328.281 402.415L297.97 384.915C292.413 381.707 285.242 383.628 282.033 389.185Z" fill="#F97316" stroke="#F97316" stroke-width="8.75" stroke-miterlimit="10"/>
<path d="M321.117 378.071C301.567 366.784 294.884 341.842 306.171 322.292L314.921 307.136C321.367 295.972 335.631 292.15 346.795 298.596L377.106 316.096C388.271 322.542 392.092 336.805 385.647 347.97L376.897 363.125C365.609 382.676 340.668 389.359 321.117 378.071Z" fill="#F97316" stroke="#F97316" stroke-width="8.75" stroke-linecap="round" stroke-linejoin="round"/>
<path d="M300.816 337.05C297.727 333.65 295.677 329.502 294.566 325.359C292.936 317.682 293.405 309.87 297.489 302.797C301.572 295.725 310.337 293.376 317.41 297.459L320.693 299.355C318.341 301.096 316.349 303.38 314.803 306.058L306.053 321.213C303.136 326.265 301.455 331.626 300.816 337.05Z" fill="#F97316" stroke="#F97316" stroke-width="8.75" stroke-linecap="round" stroke-linejoin="round"/>
<path d="M366.794 375.142C371.283 376.117 375.9 375.819 380.044 374.709C387.507 372.282 394.038 367.97 398.121 360.898C402.205 353.825 399.856 345.06 392.784 340.976L389.5 339.081C389.169 341.988 388.186 344.856 386.641 347.533L377.891 362.689C374.974 367.741 371.171 371.877 366.794 375.142Z" fill="#F97316" stroke="#F97316" stroke-width="8.75" stroke-linecap="round" stroke-linejoin="round"/>
<path d="M482.198 471.071C462.647 459.784 455.964 434.842 467.252 415.292L476.002 400.136C482.448 388.972 496.711 385.15 507.876 391.596L538.187 409.096C549.351 415.542 553.173 429.805 546.727 440.97L537.977 456.125C526.69 475.676 501.748 482.359 482.198 471.071Z" fill="#F97316" stroke="#F97316" stroke-width="8.75" stroke-linecap="round" stroke-linejoin="round"/>
<path d="M461.897 430.05C458.808 426.65 456.757 422.502 455.647 418.359C454.017 410.682 454.486 402.87 458.569 395.797C462.653 388.725 471.418 386.376 478.49 390.459L481.774 392.355C479.422 394.096 477.429 396.38 475.884 399.058L467.134 414.213C464.217 419.265 462.536 424.626 461.897 430.05Z" fill="#F97316" stroke="#F97316" stroke-width="8.75" stroke-linecap="round" stroke-linejoin="round"/>
<path d="M67.0362 446.152C47.4857 434.864 40.8027 409.923 52.0902 390.373L60.8402 375.217C67.286 364.053 81.5496 360.231 92.7141 366.677L123.025 384.177C134.189 390.622 138.011 404.886 131.566 416.051L122.816 431.206C111.528 450.756 86.5867 457.439 67.0362 446.152Z" fill="#F97316" stroke="#F97316" stroke-width="8.75" stroke-linecap="round" stroke-linejoin="round"/>
<path d="M46.7353 405.131C43.6464 401.731 41.5956 397.583 40.4853 393.439C38.8553 385.763 39.3242 377.95 43.4076 370.878C47.4909 363.805 56.2562 361.457 63.3288 365.54L66.6124 367.436C64.2604 369.176 62.2677 371.461 60.7219 374.139L51.9719 389.294C49.0552 394.346 47.3744 399.707 46.7353 405.131Z" fill="#F97316" stroke="#F97316" stroke-width="8.75" stroke-linecap="round" stroke-linejoin="round"/>
</g>
</svg>
