<svg width="30" height="30" viewBox="0 0 30 30" fill="none" xmlns="http://www.w3.org/2000/svg">
<path d="M23.7501 3.75H22.5001C21.1194 3.75 20.0001 4.86929 20.0001 6.25V23.75C20.0001 25.1307 21.1194 26.25 22.5001 26.25H23.7501C25.1308 26.25 26.2501 25.1307 26.2501 23.75V6.25C26.2501 4.86929 25.1308 3.75 23.7501 3.75Z" fill="#10B981"/>
<path d="M15.6249 11.25H14.3749C12.9942 11.25 11.8749 12.3693 11.8749 13.75V23.75C11.8749 25.1307 12.9942 26.25 14.3749 26.25H15.6249C17.0057 26.25 18.1249 25.1307 18.1249 23.75V13.75C18.1249 12.3693 17.0057 11.25 15.6249 11.25Z" fill="#10B981"/>
<path d="M7.50001 20H6.25002C4.8693 20 3.75002 21.1193 3.75002 22.5V23.75C3.75002 25.1307 4.8693 26.25 6.25002 26.25H7.50001C8.88073 26.25 10 25.1307 10 23.75V22.5C10 21.1193 8.88073 20 7.50001 20Z" fill="#10B981"/>
</svg>
