<svg width="30" height="30" viewBox="0 0 30 30" fill="none" xmlns="http://www.w3.org/2000/svg">
<path d="M18.75 26.25H11.25V15.75C11.25 15.3358 11.5858 15 12 15H18C18.4143 15 18.75 15.3358 18.75 15.75V26.25Z" fill="#6366F1" stroke="#6366F1" stroke-width="1.875" stroke-linecap="round" stroke-linejoin="round"/>
<path d="M25.5 26.25H18.75V22.625C18.75 22.2107 19.0858 21.875 19.5 21.875H25.5C25.9143 21.875 26.25 22.2107 26.25 22.625V25.5C26.25 25.9142 25.9143 26.25 25.5 26.25Z" fill="#6366F1" stroke="#6366F1" stroke-width="1.875" stroke-linecap="round" stroke-linejoin="round"/>
<path d="M11.25 26.2499V20.1249C11.25 19.7107 10.9142 19.3749 10.5 19.3749H4.50002C4.08581 19.3749 3.75002 19.7107 3.75002 20.1249V25.4999C3.75002 25.9142 4.08581 26.2499 4.50002 26.2499H11.25Z" fill="#6366F1" stroke="#6366F1" stroke-width="1.875" stroke-linecap="round" stroke-linejoin="round"/>
<path d="M13.507 5.45407L14.6434 3.0445C14.7893 2.73517 15.2108 2.73517 15.3567 3.0445L16.493 5.45407L19.0344 5.84284C19.3605 5.89273 19.4904 6.31222 19.2544 6.55287L17.4158 8.42713L17.8497 11.075C17.9054 11.415 17.5644 11.6744 17.2727 11.5137L15 10.2629L12.7274 11.5137C12.4357 11.6744 12.0946 11.415 12.1504 11.075L12.5843 8.42713L10.7457 6.55287C10.5096 6.31222 10.6396 5.89273 10.9656 5.84284L13.507 5.45407Z" fill="#6366F1" stroke="#6366F1" stroke-width="1.875" stroke-linecap="round" stroke-linejoin="round"/>
</svg>
