<svg width="38" height="38" viewBox="0 0 38 38" fill="none" xmlns="http://www.w3.org/2000/svg">
<g id="Work Briefcase 1" clip-path="url(#clip0_78_193)">
<path id="Vector" d="M30.0833 6.33333H28.3417C27.6133 2.72333 24.415 0 20.5833 0H17.4167C13.6008 0 10.4025 2.72333 9.65833 6.33333H7.91667C3.54667 6.33333 1.52417e-07 9.88 2.19832e-07 14.25L4.6409e-07 30.0833C5.31505e-07 34.4533 3.54667 38 7.91667 38H30.0833C34.4533 38 38 34.4533 38 30.0833L38 14.25C38 9.88 34.4533 6.33333 30.0833 6.33333ZM17.4167 3.16667H20.5833C22.6417 3.16667 24.3833 4.49667 25.0483 6.33333H12.9675C13.6167 4.49667 15.3583 3.16667 17.4325 3.16667H17.4167Z" fill="#10B981"/>
</g>
<defs>
<clipPath id="clip0_78_193">
<rect width="38" height="38" fill="white"/>
</clipPath>
</defs>
</svg>
