<svg width="30" height="30" viewBox="0 0 30 30" xmlns="http://www.w3.org/2000/svg">
<path d="M9.37645 6.56467C11.3449 4.59625 12.3291 3.61203 13.464 3.24328C14.4623 2.91891 15.5377 2.91891 16.536 3.24328C17.6709 3.61203 18.6551 4.59625 20.6236 6.56468L23.4353 9.37645C25.4038 11.3449 26.388 12.3291 26.7567 13.464C27.0811 14.4623 27.0811 15.5377 26.7567 16.536C26.388 17.6709 25.4038 18.6551 23.4353 20.6236L20.6235 23.4353C18.6551 25.4038 17.6709 26.388 16.536 26.7567C15.5377 27.0811 14.4623 27.0811 13.464 26.7567C12.3291 26.388 11.3449 25.4038 9.37645 23.4353L6.56467 20.6235C4.59625 18.6551 3.61203 17.6709 3.24328 16.536C2.91891 15.5377 2.91891 14.4623 3.24328 13.464C3.61203 12.3291 4.59625 11.3449 6.56468 9.37645L9.37645 6.56467Z" />
</svg>
