<svg width="20" height="20" viewBox="0 0 20 20" xmlns="http://www.w3.org/2000/svg">
<path fill-rule="evenodd" clip-rule="evenodd" d="M11.0265 1.90567C11.284 1.98939 11.4583 2.22933 11.4583 2.50004V7.70837H15.8333C16.0684 7.70837 16.2835 7.84028 16.3902 8.04977C16.4969 8.25925 16.477 8.51083 16.3388 8.701L9.67213 17.8677C9.51288 18.0866 9.23079 18.1781 8.97338 18.0944C8.71588 18.0107 8.54163 17.7707 8.54163 17.5001V12.2917H4.16663C3.93155 12.2917 3.71635 12.1598 3.60968 11.9503C3.50301 11.7408 3.5229 11.4892 3.66117 11.2991L10.3279 2.13243C10.487 1.9135 10.7691 1.82196 11.0265 1.90567Z" />
</svg>
