<svg width="412" height="78" viewBox="0 0 412 78" fill="none" xmlns="http://www.w3.org/2000/svg">
<g filter="url(#filter0_d_1_301)">
<mask id="path-1-outside-1_1_301" maskUnits="userSpaceOnUse" x="0" y="0.699997" width="412" height="72" fill="black">
<rect fill="white" y="0.699997" width="412" height="72"/>
<path d="M244.853 16.7799C249.315 12.3182 251.546 10.0873 254.118 9.25142C256.381 8.51619 258.819 8.51619 261.082 9.25142C263.654 10.0873 265.885 12.3182 270.347 16.7799L276.72 23.1533C281.182 27.6151 283.413 29.8459 284.249 32.4184C284.984 34.6812 284.984 37.1187 284.249 39.3816C283.413 41.9541 281.182 44.1849 276.72 48.6467L270.347 55.0201C265.885 59.4818 263.654 61.7127 261.082 62.5486C258.819 63.2838 256.381 63.2838 254.118 62.5486C251.546 61.7127 249.315 59.4818 244.853 55.0201L238.48 48.6467C234.018 44.1849 231.787 41.9541 230.951 39.3816C230.216 37.1187 230.216 34.6812 230.951 32.4184C231.787 29.8459 234.018 27.6151 238.48 23.1533L244.853 16.7799Z"/>
<path d="M8 21.1842C8 14.3746 13.5664 8.85433 20.4329 8.85433C23.8385 8.85433 27.0951 10.2398 29.4421 12.6872L46.5067 30.4819L63.5714 12.6872C65.9184 10.2398 69.1749 8.85433 72.5806 8.85433C79.4471 8.85433 85.0135 14.3746 85.0135 21.1843V54.8972C85.0135 59.7627 81.0363 63.7069 76.1302 63.7069C71.2242 63.7069 67.247 59.7627 67.247 54.8972V34.0865L53.4004 47.7408C49.5868 51.5014 43.4266 51.5014 39.6131 47.7408L25.7665 34.0865V54.8972C25.7665 59.7627 21.7893 63.7069 16.8832 63.7069C11.9772 63.7069 8 59.7627 8 54.8972V21.1842Z"/>
<path d="M137.12 56.8503C137.12 60.6371 134.024 63.7069 130.206 63.7069H107.331C99.2313 63.7069 92.6654 57.1954 92.6654 49.163V23.3982C92.6654 15.3658 99.2313 8.85433 107.331 8.85433H130.206C134.024 8.85433 137.12 11.9241 137.12 15.7109C137.12 19.4977 134.024 22.5675 130.206 22.5675H110.432V29.3849H125.783C129.602 29.3849 132.697 32.4547 132.697 36.2414C132.697 40.0282 129.602 43.098 125.783 43.098H110.432V49.9938H130.206C134.024 49.9938 137.12 53.0636 137.12 56.8503Z"/>
<path d="M143.971 21.1843C143.971 14.3746 149.537 8.85433 156.404 8.85433C159.809 8.85433 163.066 10.2398 165.413 12.6872L182.478 30.4819L199.542 12.6872C201.889 10.2398 205.146 8.85433 208.552 8.85433C215.418 8.85433 220.984 14.3746 220.984 21.1842V54.8972C220.984 59.7627 217.007 63.7069 212.101 63.7069C207.195 63.7069 203.218 59.7627 203.218 54.8972V34.0865L189.371 47.7408C185.558 51.5014 179.398 51.5014 175.584 47.7408L161.737 34.0865V54.8972C161.737 59.7627 157.76 63.7069 152.854 63.7069C147.948 63.7069 143.971 59.7627 143.971 54.8972V21.1843Z"/>
<path d="M324.829 27.1124H311.485V36.2806H324.829C327.346 36.2806 329.328 34.2432 329.328 31.7357C329.328 29.1498 327.346 27.1124 324.829 27.1124ZM302.602 63.7069C297.696 63.7069 293.719 59.7627 293.719 54.8972V23.3982C293.719 15.3658 300.285 8.85433 308.384 8.85433H324.829C337.106 8.85433 347.094 19.1196 347.094 31.7357C347.094 40.8255 341.833 48.8183 334.284 52.4229C337.76 57.0986 334.394 63.7069 328.536 63.7069H327.198C324.618 63.7069 322.204 62.4448 320.747 60.3337L316.747 54.5387H311.485V54.8972C311.485 59.7627 307.508 63.7069 302.602 63.7069Z"/>
<path d="M350.021 20.3763C348.177 14.6807 352.461 8.85433 358.493 8.85433C362.354 8.85433 365.775 11.3246 366.961 14.9693L373.893 36.2806H379.002L385.87 14.9844C387.048 11.3325 390.471 8.85433 394.337 8.85433C400.363 8.85433 404.643 14.6756 402.8 20.3659L390.745 57.5863C389.563 61.2335 386.142 63.7069 382.28 63.7069H379.792C374.992 63.7069 371.585 59.0698 373.054 54.5387H369.994C364.684 54.5387 359.982 51.1382 358.358 46.1244L350.021 20.3763Z"/>
</mask>
<path d="M244.853 16.7799C249.315 12.3182 251.546 10.0873 254.118 9.25142C256.381 8.51619 258.819 8.51619 261.082 9.25142C263.654 10.0873 265.885 12.3182 270.347 16.7799L276.72 23.1533C281.182 27.6151 283.413 29.8459 284.249 32.4184C284.984 34.6812 284.984 37.1187 284.249 39.3816C283.413 41.9541 281.182 44.1849 276.72 48.6467L270.347 55.0201C265.885 59.4818 263.654 61.7127 261.082 62.5486C258.819 63.2838 256.381 63.2838 254.118 62.5486C251.546 61.7127 249.315 59.4818 244.853 55.0201L238.48 48.6467C234.018 44.1849 231.787 41.9541 230.951 39.3816C230.216 37.1187 230.216 34.6812 230.951 32.4184C231.787 29.8459 234.018 27.6151 238.48 23.1533L244.853 16.7799Z" fill="white"/>
<path d="M8 21.1842C8 14.3746 13.5664 8.85433 20.4329 8.85433C23.8385 8.85433 27.0951 10.2398 29.4421 12.6872L46.5067 30.4819L63.5714 12.6872C65.9184 10.2398 69.1749 8.85433 72.5806 8.85433C79.4471 8.85433 85.0135 14.3746 85.0135 21.1843V54.8972C85.0135 59.7627 81.0363 63.7069 76.1302 63.7069C71.2242 63.7069 67.247 59.7627 67.247 54.8972V34.0865L53.4004 47.7408C49.5868 51.5014 43.4266 51.5014 39.6131 47.7408L25.7665 34.0865V54.8972C25.7665 59.7627 21.7893 63.7069 16.8832 63.7069C11.9772 63.7069 8 59.7627 8 54.8972V21.1842Z" fill="white"/>
<path d="M137.12 56.8503C137.12 60.6371 134.024 63.7069 130.206 63.7069H107.331C99.2313 63.7069 92.6654 57.1954 92.6654 49.163V23.3982C92.6654 15.3658 99.2313 8.85433 107.331 8.85433H130.206C134.024 8.85433 137.12 11.9241 137.12 15.7109C137.12 19.4977 134.024 22.5675 130.206 22.5675H110.432V29.3849H125.783C129.602 29.3849 132.697 32.4547 132.697 36.2414C132.697 40.0282 129.602 43.098 125.783 43.098H110.432V49.9938H130.206C134.024 49.9938 137.12 53.0636 137.12 56.8503Z" fill="white"/>
<path d="M143.971 21.1843C143.971 14.3746 149.537 8.85433 156.404 8.85433C159.809 8.85433 163.066 10.2398 165.413 12.6872L182.478 30.4819L199.542 12.6872C201.889 10.2398 205.146 8.85433 208.552 8.85433C215.418 8.85433 220.984 14.3746 220.984 21.1842V54.8972C220.984 59.7627 217.007 63.7069 212.101 63.7069C207.195 63.7069 203.218 59.7627 203.218 54.8972V34.0865L189.371 47.7408C185.558 51.5014 179.398 51.5014 175.584 47.7408L161.737 34.0865V54.8972C161.737 59.7627 157.76 63.7069 152.854 63.7069C147.948 63.7069 143.971 59.7627 143.971 54.8972V21.1843Z" fill="white"/>
<path d="M324.829 27.1124H311.485V36.2806H324.829C327.346 36.2806 329.328 34.2432 329.328 31.7357C329.328 29.1498 327.346 27.1124 324.829 27.1124ZM302.602 63.7069C297.696 63.7069 293.719 59.7627 293.719 54.8972V23.3982C293.719 15.3658 300.285 8.85433 308.384 8.85433H324.829C337.106 8.85433 347.094 19.1196 347.094 31.7357C347.094 40.8255 341.833 48.8183 334.284 52.4229C337.76 57.0986 334.394 63.7069 328.536 63.7069H327.198C324.618 63.7069 322.204 62.4448 320.747 60.3337L316.747 54.5387H311.485V54.8972C311.485 59.7627 307.508 63.7069 302.602 63.7069Z" fill="white"/>
<path d="M350.021 20.3763C348.177 14.6807 352.461 8.85433 358.493 8.85433C362.354 8.85433 365.775 11.3246 366.961 14.9693L373.893 36.2806H379.002L385.87 14.9844C387.048 11.3325 390.471 8.85433 394.337 8.85433C400.363 8.85433 404.643 14.6756 402.8 20.3659L390.745 57.5863C389.563 61.2335 386.142 63.7069 382.28 63.7069H379.792C374.992 63.7069 371.585 59.0698 373.054 54.5387H369.994C364.684 54.5387 359.982 51.1382 358.358 46.1244L350.021 20.3763Z" fill="white"/>
<path d="M244.853 16.7799L250.51 22.4368V22.4368L244.853 16.7799ZM254.118 9.25142L256.591 16.8599V16.8599L254.118 9.25142ZM261.082 9.25142L258.609 16.8599V16.8599L261.082 9.25142ZM270.347 16.7799L264.69 22.4368V22.4368L270.347 16.7799ZM276.72 23.1533L282.377 17.4964V17.4964L276.72 23.1533ZM284.249 32.4184L291.857 29.9463H291.857L284.249 32.4184ZM284.249 39.3816L291.857 41.8537H291.857L284.249 39.3816ZM276.72 48.6467L282.377 54.3036V54.3036L276.72 48.6467ZM270.347 55.0201L264.69 49.3632V49.3632L270.347 55.0201ZM261.082 62.5486L263.554 70.157L261.082 62.5486ZM254.118 62.5486L251.646 70.157L254.118 62.5486ZM244.853 55.0201L250.51 49.3632V49.3632L244.853 55.0201ZM238.48 48.6467L232.823 54.3036L232.823 54.3036L238.48 48.6467ZM230.951 39.3816L238.56 36.9094L230.951 39.3816ZM230.951 32.4184L238.56 34.8906V34.8906L230.951 32.4184ZM238.48 23.1533L232.823 17.4964L232.823 17.4964L238.48 23.1533ZM29.4421 12.6872L35.2161 7.15002L29.4421 12.6872ZM46.5067 30.4819L40.7327 36.0191L46.5067 42.0402L52.2808 36.0191L46.5067 30.4819ZM63.5714 12.6872L69.3455 18.2243V18.2243L63.5714 12.6872ZM67.247 34.0865H75.247V14.9622L61.6298 28.3902L67.247 34.0865ZM53.4004 47.7408L59.0175 53.4371H59.0175L53.4004 47.7408ZM39.6131 47.7408L33.9959 53.4371H33.9959L39.6131 47.7408ZM25.7665 34.0865L31.3836 28.3902L17.7665 14.9622V34.0865H25.7665ZM110.432 22.5675V14.5675H102.432V22.5675H110.432ZM110.432 29.3849H102.432V37.3849H110.432V29.3849ZM110.432 43.098V35.098H102.432V43.098H110.432ZM110.432 49.9938H102.432V57.9938H110.432V49.9938ZM165.413 12.6872L159.639 18.2243V18.2243L165.413 12.6872ZM182.478 30.4819L176.704 36.0191L182.478 42.0402L188.252 36.0191L182.478 30.4819ZM199.542 12.6872L205.316 18.2243V18.2243L199.542 12.6872ZM203.218 34.0865H211.218V14.9622L197.601 28.3902L203.218 34.0865ZM189.371 47.7408L194.989 53.437L189.371 47.7408ZM175.584 47.7408L169.967 53.4371L175.584 47.7408ZM161.737 34.0865L167.355 28.3902L153.737 14.9622V34.0865H161.737ZM311.485 27.1124V19.1124H303.485V27.1124H311.485ZM311.485 36.2806H303.485V44.2806H311.485V36.2806ZM334.284 52.4229L330.837 45.2037L322.064 49.3929L327.864 57.1955L334.284 52.4229ZM320.747 60.3337L327.331 55.789V55.789L320.747 60.3337ZM316.747 54.5387L323.33 49.9939L320.945 46.5387H316.747V54.5387ZM311.485 54.5387V46.5387H303.485V54.5387H311.485ZM350.021 20.3763L342.41 22.8407V22.8408L350.021 20.3763ZM366.961 14.9693L374.569 12.4947V12.4947L366.961 14.9693ZM373.893 36.2806L366.285 38.7553L368.083 44.2806H373.893V36.2806ZM379.002 36.2806V44.2806H384.828L386.616 38.7361L379.002 36.2806ZM385.87 14.9844L393.484 17.4399V17.4399L385.87 14.9844ZM402.8 20.3659L395.189 17.9008V17.9008L402.8 20.3659ZM390.745 57.5863L398.355 60.0514V60.0514L390.745 57.5863ZM373.054 54.5387L380.664 57.007L384.06 46.5387H373.054V54.5387ZM358.358 46.1244L365.969 43.6599V43.6599L358.358 46.1244ZM250.51 22.4368C252.834 20.1126 254.242 18.714 255.372 17.7547C256.43 16.856 256.709 16.8215 256.591 16.8599L251.646 1.64297C248.956 2.51722 246.832 4.01608 245.017 5.55724C243.273 7.03777 241.334 8.98553 239.196 11.1231L250.51 22.4368ZM256.591 16.8599C257.247 16.6467 257.953 16.6467 258.609 16.8599L263.554 1.64297C259.684 0.385672 255.516 0.385672 251.646 1.64297L256.591 16.8599ZM258.609 16.8599C258.491 16.8215 258.77 16.856 259.828 17.7547C260.958 18.714 262.366 20.1126 264.69 22.4368L276.004 11.1231C273.866 8.98553 271.927 7.03777 270.183 5.55724C268.368 4.01608 266.244 2.51722 263.554 1.64297L258.609 16.8599ZM264.69 22.4368L271.063 28.8101L282.377 17.4964L276.004 11.1231L264.69 22.4368ZM271.063 28.8101C273.387 31.1344 274.786 32.5417 275.745 33.6718C276.644 34.7304 276.679 35.0087 276.64 34.8906L291.857 29.9463C290.983 27.2556 289.484 25.1323 287.943 23.3169C286.462 21.5729 284.514 19.634 282.377 17.4964L271.063 28.8101ZM276.64 34.8906C276.853 35.5466 276.853 36.2534 276.64 36.9094L291.857 41.8537C293.114 37.9841 293.114 33.8159 291.857 29.9463L276.64 34.8906ZM276.64 36.9094C276.679 36.7913 276.644 37.0696 275.745 38.1282C274.786 39.2583 273.387 40.6656 271.063 42.9899L282.377 54.3036C284.514 52.166 286.462 50.2271 287.943 48.4831C289.484 46.6677 290.983 44.5444 291.857 41.8537L276.64 36.9094ZM271.063 42.9899L264.69 49.3632L276.004 60.6769L282.377 54.3036L271.063 42.9899ZM264.69 49.3632C262.366 51.6874 260.958 53.086 259.828 54.0453C258.77 54.944 258.491 54.9785 258.609 54.9401L263.554 70.157C266.244 69.2828 268.368 67.7839 270.183 66.2428C271.927 64.7622 273.866 62.8145 276.004 60.6769L264.69 49.3632ZM258.609 54.9401C257.953 55.1533 257.247 55.1533 256.591 54.9401L251.646 70.157C255.516 71.4143 259.684 71.4143 263.554 70.157L258.609 54.9401ZM256.591 54.9401C256.709 54.9785 256.43 54.944 255.372 54.0453C254.242 53.086 252.834 51.6874 250.51 49.3632L239.196 60.6769C241.334 62.8145 243.273 64.7622 245.017 66.2428C246.832 67.7839 248.956 69.2828 251.646 70.157L256.591 54.9401ZM250.51 49.3632L244.137 42.9898L232.823 54.3036L239.196 60.6769L250.51 49.3632ZM244.137 42.9899C241.813 40.6656 240.414 39.2583 239.455 38.1282C238.556 37.0696 238.521 36.7913 238.56 36.9094L223.343 41.8537C224.217 44.5444 225.716 46.6677 227.257 48.4831C228.738 50.2271 230.686 52.166 232.823 54.3036L244.137 42.9899ZM238.56 36.9094C238.347 36.2534 238.347 35.5466 238.56 34.8906L223.343 29.9463C222.086 33.8159 222.086 37.9841 223.343 41.8537L238.56 36.9094ZM238.56 34.8906C238.521 35.0087 238.556 34.7304 239.455 33.6718C240.414 32.5417 241.813 31.1344 244.137 28.8101L232.823 17.4964C230.686 19.634 228.738 21.5729 227.257 23.3169C225.716 25.1323 224.217 27.2556 223.343 29.9463L238.56 34.8906ZM244.137 28.8101L250.51 22.4368L239.196 11.1231L232.823 17.4964L244.137 28.8101ZM16 21.1842C16 18.8555 17.9218 16.8543 20.4329 16.8543V0.85433C9.21097 0.85433 0 9.89375 0 21.1842H16ZM20.4329 16.8543C21.6695 16.8543 22.8372 17.358 23.668 18.2243L35.2161 7.15002C31.353 3.12155 26.0076 0.85433 20.4329 0.85433V16.8543ZM23.668 18.2243L40.7327 36.0191L52.2808 24.9448L35.2161 7.15002L23.668 18.2243ZM52.2808 36.0191L69.3455 18.2243L57.7973 7.15001L40.7327 24.9448L52.2808 36.0191ZM69.3455 18.2243C70.1762 17.358 71.344 16.8543 72.5806 16.8543V0.85433C67.0059 0.85433 61.6605 3.12155 57.7973 7.15001L69.3455 18.2243ZM72.5806 16.8543C75.0917 16.8543 77.0135 18.8555 77.0135 21.1843H93.0135C93.0135 9.89375 83.8025 0.85433 72.5806 0.85433V16.8543ZM77.0135 21.1843V54.8972H93.0135V21.1843H77.0135ZM77.0135 54.8972C77.0135 55.2818 76.6809 55.7069 76.1302 55.7069V71.7069C85.3917 71.7069 93.0135 64.2436 93.0135 54.8972H77.0135ZM76.1302 55.7069C75.5796 55.7069 75.247 55.2818 75.247 54.8972H59.247C59.247 64.2435 66.8687 71.7069 76.1302 71.7069V55.7069ZM75.247 54.8972V34.0865H59.247V54.8972H75.247ZM61.6298 28.3902L47.7832 42.0445L59.0175 53.4371L72.8641 39.7828L61.6298 28.3902ZM47.7832 42.0445C47.0846 42.7335 45.9289 42.7335 45.2302 42.0445L33.9959 53.4371C40.9244 60.2693 52.0891 60.2693 59.0175 53.4371L47.7832 42.0445ZM45.2302 42.0445L31.3836 28.3902L20.1493 39.7828L33.9959 53.4371L45.2302 42.0445ZM17.7665 34.0865V54.8972H33.7665V34.0865H17.7665ZM17.7665 54.8972C17.7665 55.2818 17.4339 55.7069 16.8832 55.7069V71.7069C26.1447 71.7069 33.7665 64.2435 33.7665 54.8972H17.7665ZM16.8832 55.7069C16.3326 55.7069 16 55.2818 16 54.8972H0C0 64.2436 7.62174 71.7069 16.8832 71.7069V55.7069ZM16 54.8972V21.1842H0V54.8972H16ZM129.12 56.8503C129.12 56.1563 129.669 55.7069 130.206 55.7069V71.7069C138.38 71.7069 145.12 65.118 145.12 56.8503H129.12ZM130.206 55.7069H107.331V71.7069H130.206V55.7069ZM107.331 55.7069C103.587 55.7069 100.665 52.7145 100.665 49.163H84.6654C84.6654 61.6763 94.8758 71.7069 107.331 71.7069V55.7069ZM100.665 49.163V23.3982H84.6654V49.163H100.665ZM100.665 23.3982C100.665 19.8467 103.587 16.8543 107.331 16.8543V0.85433C94.8758 0.85433 84.6654 10.885 84.6654 23.3982H100.665ZM107.331 16.8543H130.206V0.85433H107.331V16.8543ZM130.206 16.8543C129.669 16.8543 129.12 16.405 129.12 15.7109H145.12C145.12 7.44324 138.38 0.85433 130.206 0.85433V16.8543ZM129.12 15.7109C129.12 15.0168 129.669 14.5675 130.206 14.5675V30.5675C138.38 30.5675 145.12 23.9785 145.12 15.7109H129.12ZM130.206 14.5675H110.432V30.5675H130.206V14.5675ZM102.432 22.5675V29.3849H118.432V22.5675H102.432ZM110.432 37.3849H125.783V21.3849H110.432V37.3849ZM125.783 37.3849C125.246 37.3849 124.697 36.9355 124.697 36.2414H140.697C140.697 27.9738 133.957 21.3849 125.783 21.3849V37.3849ZM124.697 36.2414C124.697 35.5474 125.246 35.098 125.783 35.098V51.098C133.957 51.098 140.697 44.5091 140.697 36.2414H124.697ZM125.783 35.098H110.432V51.098H125.783V35.098ZM102.432 43.098V49.9938H118.432V43.098H102.432ZM110.432 57.9938H130.206V41.9938H110.432V57.9938ZM130.206 57.9938C129.669 57.9938 129.12 57.5444 129.12 56.8503H145.12C145.12 48.5827 138.38 41.9938 130.206 41.9938V57.9938ZM151.971 21.1843C151.971 18.8555 153.893 16.8543 156.404 16.8543V0.85433C145.182 0.85433 135.971 9.89376 135.971 21.1843H151.971ZM156.404 16.8543C157.64 16.8543 158.808 17.358 159.639 18.2243L171.187 7.15002C167.324 3.12154 161.979 0.85433 156.404 0.85433V16.8543ZM159.639 18.2243L176.704 36.0191L188.252 24.9448L171.187 7.15002L159.639 18.2243ZM188.252 36.0191L205.316 18.2243L193.768 7.15002L176.704 24.9448L188.252 36.0191ZM205.316 18.2243C206.147 17.358 207.315 16.8543 208.552 16.8543V0.85433C202.977 0.85433 197.631 3.12155 193.768 7.15002L205.316 18.2243ZM208.552 16.8543C211.063 16.8543 212.984 18.8555 212.984 21.1842H228.984C228.984 9.89374 219.773 0.85433 208.552 0.85433V16.8543ZM212.984 21.1842V54.8972H228.984V21.1842H212.984ZM212.984 54.8972C212.984 55.2818 212.652 55.7069 212.101 55.7069V71.7069C221.363 71.7069 228.984 64.2435 228.984 54.8972H212.984ZM212.101 55.7069C211.551 55.7069 211.218 55.2818 211.218 54.8972H195.218C195.218 64.2436 202.84 71.7069 212.101 71.7069V55.7069ZM211.218 54.8972V34.0865H195.218V54.8972H211.218ZM197.601 28.3902L183.754 42.0445L194.989 53.437L208.835 39.7828L197.601 28.3902ZM183.754 42.0445C183.056 42.7335 181.9 42.7335 181.201 42.0445L169.967 53.4371C176.895 60.2693 188.06 60.2693 194.989 53.437L183.754 42.0445ZM181.201 42.0445L167.355 28.3902L156.12 39.7828L169.967 53.4371L181.201 42.0445ZM153.737 34.0865V54.8972H169.737V34.0865H153.737ZM153.737 54.8972C153.737 55.2818 153.405 55.7069 152.854 55.7069V71.7069C162.116 71.7069 169.737 64.2435 169.737 54.8972H153.737ZM152.854 55.7069C152.304 55.7069 151.971 55.2818 151.971 54.8972H135.971C135.971 64.2436 143.593 71.7069 152.854 71.7069V55.7069ZM151.971 54.8972V21.1843H135.971V54.8972H151.971ZM324.829 19.1124H311.485V35.1124H324.829V19.1124ZM303.485 27.1124V36.2806H319.485V27.1124H303.485ZM311.485 44.2806H324.829V28.2806H311.485V44.2806ZM324.829 44.2806C331.88 44.2806 337.328 38.5445 337.328 31.7357H321.328C321.328 29.942 322.811 28.2806 324.829 28.2806V44.2806ZM337.328 31.7357C337.328 24.9388 331.968 19.1124 324.829 19.1124V35.1124C322.723 35.1124 321.328 33.3608 321.328 31.7357H337.328ZM302.602 55.7069C302.051 55.7069 301.719 55.2818 301.719 54.8972H285.719C285.719 64.2436 293.341 71.7069 302.602 71.7069V55.7069ZM301.719 54.8972V23.3982H285.719V54.8972H301.719ZM301.719 23.3982C301.719 19.8467 304.64 16.8543 308.384 16.8543V0.85433C295.929 0.85433 285.719 10.885 285.719 23.3982H301.719ZM308.384 16.8543H324.829V0.85433H308.384V16.8543ZM324.829 16.8543C332.483 16.8543 339.094 23.3306 339.094 31.7357H355.094C355.094 14.9086 341.728 0.85433 324.829 0.85433V16.8543ZM339.094 31.7357C339.094 37.7479 335.6 42.9296 330.837 45.2037L337.732 59.6422C348.067 54.7071 355.094 43.9032 355.094 31.7357H339.094ZM327.864 57.1955C327.799 57.1088 327.708 56.9142 327.692 56.6691C327.679 56.4562 327.727 56.2952 327.782 56.1871C327.837 56.0791 327.932 55.9589 328.09 55.8581C328.273 55.7408 328.455 55.7069 328.536 55.7069V71.7069C340.843 71.7069 348.179 57.7059 340.705 47.6504L327.864 57.1955ZM328.536 55.7069H327.198V71.7069H328.536V55.7069ZM327.198 55.7069C327.229 55.7069 327.284 55.7217 327.331 55.789L314.163 64.8785C317.124 69.1678 322.007 71.7069 327.198 71.7069V55.7069ZM327.331 55.789L323.33 49.9939L310.163 59.0834L314.163 64.8785L327.331 55.789ZM316.747 46.5387H311.485V62.5387H316.747V46.5387ZM303.485 54.5387V54.8972H319.485V54.5387H303.485ZM303.485 54.8972C303.485 55.2818 303.153 55.7069 302.602 55.7069V71.7069C311.864 71.7069 319.485 64.2435 319.485 54.8972H303.485ZM357.632 17.9119C357.49 17.4728 357.798 16.8543 358.493 16.8543V0.85433C347.123 0.85433 338.864 11.8886 342.41 22.8407L357.632 17.9119ZM358.493 16.8543C358.926 16.8543 359.251 17.1283 359.353 17.444L374.569 12.4947C372.3 5.52085 365.783 0.85433 358.493 0.85433V16.8543ZM359.353 17.444L366.285 38.7553L381.501 33.806L374.569 12.4947L359.353 17.444ZM373.893 44.2806H379.002V28.2806H373.893V44.2806ZM386.616 38.7361L393.484 17.4399L378.256 12.5289L371.388 33.8251L386.616 38.7361ZM393.484 17.4399C393.585 17.1271 393.907 16.8543 394.337 16.8543V0.85433C387.035 0.85433 380.511 5.53795 378.256 12.5289L393.484 17.4399ZM394.337 16.8543C395.025 16.8543 395.33 17.4672 395.189 17.9008L410.411 22.831C413.956 11.8841 405.701 0.85433 394.337 0.85433V16.8543ZM395.189 17.9008L383.134 55.1212L398.355 60.0514L410.411 22.8309L395.189 17.9008ZM383.134 55.1212C383.032 55.4343 382.71 55.7069 382.28 55.7069V71.7069C389.575 71.7069 396.094 67.0326 398.355 60.0514L383.134 55.1212ZM382.28 55.7069H379.792V71.7069H382.28V55.7069ZM379.792 55.7069C380.332 55.7069 380.9 56.2807 380.664 57.007L365.445 52.0704C362.27 61.8588 369.653 71.7069 379.792 71.7069V55.7069ZM373.054 46.5387H369.994V62.5387H373.054V46.5387ZM369.994 46.5387C368.117 46.5387 366.513 45.3394 365.969 43.6599L350.747 48.5888C353.451 56.9371 361.252 62.5387 369.994 62.5387V46.5387ZM365.969 43.6599L357.632 17.9119L342.41 22.8408L350.747 48.5888L365.969 43.6599Z" fill="#F97316" mask="url(#path-1-outside-1_1_301)"/>
</g>
<defs>
<filter id="filter0_d_1_301" x="0" y="0.699997" width="411.242" height="75.8069" filterUnits="userSpaceOnUse" color-interpolation-filters="sRGB">
<feFlood flood-opacity="0" result="BackgroundImageFix"/>
<feColorMatrix in="SourceAlpha" type="matrix" values="0 0 0 0 0 0 0 0 0 0 0 0 0 0 0 0 0 0 127 0" result="hardAlpha"/>
<feOffset dy="4.8"/>
<feComposite in2="hardAlpha" operator="out"/>
<feColorMatrix type="matrix" values="0 0 0 0 1 0 0 0 0 0.597641 0 0 0 0 0.318392 0 0 0 1 0"/>
<feBlend mode="normal" in2="BackgroundImageFix" result="effect1_dropShadow_1_301"/>
<feBlend mode="normal" in="SourceGraphic" in2="effect1_dropShadow_1_301" result="shape"/>
</filter>
</defs>
</svg>
