<svg width="40" height="60" viewBox="0 0 40 60" fill="none" xmlns="http://www.w3.org/2000/svg">
<path d="M24.8641 49.6667C25.1402 50.007 25.3526 50.3904 25.4919 50.8C25.7415 51.1701 25.9298 51.5749 26.0499 52C26.0809 52.4439 26.0809 52.8894 26.0499 53.3333C26.0378 53.7584 25.9911 54.1819 25.9104 54.6C25.8457 55.0416 25.7042 55.4697 25.4919 55.8667C25.3526 56.2762 25.1402 56.6597 24.8641 57L24.0271 58.0667C23.3491 58.6555 22.5706 59.1291 21.7253 59.4667C20.8868 59.8083 19.9863 59.9895 19.0748 60C17.228 59.9754 15.4592 59.2849 14.1225 58.0667L13.2855 57C13.0094 56.6597 12.797 56.2762 12.6577 55.8667C12.4453 55.4697 12.3039 55.0416 12.2392 54.6C12.2051 54.1784 12.2051 53.7549 12.2392 53.3333C12.2082 52.8894 12.2082 52.4439 12.2392 52C12.3156 51.5823 12.4566 51.1779 12.6577 50.8C12.797 50.3904 13.0094 50.007 13.2855 49.6667L14.1225 48.6C15.1034 47.675 16.3489 47.0483 17.702 46.7991C19.0551 46.55 20.4551 46.6895 21.7253 47.2C22.5706 47.5376 23.3491 48.0111 24.0271 48.6L24.8641 49.6667Z" fill="white"/>
<path d="M8.60458 2.67629C11.7882 0.920808 15.3994 -0.00224817 19.0748 4.11185e-06C24.6245 4.22363e-06 29.9469 2.10714 33.8712 5.85787C37.7954 9.60859 40 14.6957 40 20C40 25.3043 37.7954 30.3914 33.8712 34.1421C29.9469 37.8929 24.6245 40 19.0748 40C17.2249 40 15.4508 39.2976 14.1427 38.0474C12.8346 36.7971 12.0997 35.1014 12.0997 33.3333C12.0997 31.5652 12.8346 29.8695 14.1427 28.6193C15.4508 27.369 17.2249 26.6667 19.0748 26.6667C20.9247 26.6667 22.6988 25.9643 24.0069 24.714C25.315 23.4638 26.0499 21.7681 26.0499 20C26.0499 18.2319 25.315 16.5362 24.0069 15.286C22.6988 14.0357 20.9247 13.3333 19.0748 13.3333C17.8457 13.3287 16.6372 13.6345 15.5715 14.2199C14.5059 14.8052 13.621 15.6493 13.0065 16.6667C12.0863 18.1915 10.5725 19.3067 8.79539 19.7688C7.01823 20.2309 5.12199 20.0025 3.52039 19.1333C2.72114 18.6978 2.01993 18.1154 1.45715 17.4198C0.894368 16.7242 0.481139 15.929 0.241258 15.08C0.00137773 14.2311 -0.0604141 13.3452 0.0594407 12.4733C0.179296 11.6015 0.478428 10.7609 0.939613 10C2.77732 6.95774 5.42099 4.43177 8.60458 2.67629Z" fill="white"/>
</svg>
