<svg width="20" height="20" viewBox="0 0 20 20" xmlns="http://www.w3.org/2000/svg">
<path fill-rule="evenodd" clip-rule="evenodd" d="M2 10C2 5.60003 5.6 2.00003 10 2.00003C14.4 2.00003 18 5.60003 18 10C18 14.4 14.4 18 10 18C5.6 18 2 14.4 2 10ZM9.6 10.72L11.5935 11.9161C12.0286 12.1772 12.5937 12.0126 12.8206 11.5588C13.0317 11.1366 12.868 10.623 12.4515 10.4008L10.8 9.52003V6.80003C10.8 6.35821 10.4418 6.00003 10 6.00003C9.55817 6.00003 9.2 6.35821 9.2 6.80003V10C9.2 10.32 9.36 10.56 9.6 10.72Z" />
</svg>
