<svg width="852" height="393" viewBox="0 0 852 393" fill="none" xmlns="http://www.w3.org/2000/svg">
<path opacity="0.3" d="M-168 196C82.8933 -6.66666 123.36 -6.66666 -46.6 196C-216.56 398.667 -176.093 398.667 74.8 196C325.693 -6.66666 366.16 -6.66666 196.2 196C26.24 398.667 66.7067 398.667 317.6 196C568.493 -6.66666 608.96 -6.66666 439 196C269.04 398.667 309.507 398.667 560.4 196C811.293 -6.66666 851.76 -6.66666 681.8 196C511.84 398.667 552.307 398.667 803.2 196C1054.09 -6.66666 1094.56 -6.66666 924.6 196C754.64 398.667 795.107 398.667 1046 196" stroke="#FB923C" stroke-width="106"/>
</svg>
